{"glyphs":{"0":{"ha":750,"x_min":56,"x_max":697,"o":"m 375 972 q 482 944 428 972 q 576 864 536 915 q 646 744 618 813 q 685 599 674 675 q 693 443 697 524 q 667 286 689 363 q 563 90 632 168 q 407 -4 494 13 q 370 -8 385 -8 q 332 -1 356 -7 q 206 68 264 13 q 111 211 149 124 q 68 359 81 281 q 60 517 56 438 q 84 672 64 596 q 142 811 104 747 q 185 869 160 840 q 240 922 210 899 q 304 958 269 944 q 375 972 339 972 m 478 451 q 499 570 492 511 q 506 681 506 629 q 501 774 507 733 q 483 836 496 815 q 453 858 471 858 q 406 829 433 858 q 353 749 378 800 q 306 637 328 699 q 269 506 285 575 q 246 370 254 436 q 238 247 238 304 q 250 149 239 189 q 258 131 253 140 q 268 114 264 121 q 293 99 281 99 q 322 111 306 99 q 365 158 343 126 q 407 235 386 190 q 446 335 428 281 q 478 451 464 390 z "},"1":{"ha":483,"x_min":42,"x_max":431,"o":"m 375 101 q 387 85 378 94 q 406 65 396 75 q 428 36 425 47 q 417 14 431 25 l 407 3 l 276 3 q 181 3 222 3 q 133 6 139 3 q 103 38 104 15 q 133 78 103 61 q 152 92 146 86 q 161 121 158 97 q 165 198 164 144 q 167 356 165 251 q 168 524 168 460 q 166 625 168 588 q 160 682 164 663 q 149 715 156 701 q 126 744 139 735 q 93 757 114 754 q 65 762 72 760 q 56 771 58 764 q 85 831 42 796 q 242 924 129 865 q 307 955 285 946 q 342 964 329 964 q 364 954 354 964 l 375 944 l 372 654 q 370 423 371 517 q 369 269 369 329 q 368 176 368 208 q 369 129 368 144 q 371 110 369 114 q 375 101 372 106 z "},"2":{"ha":736,"x_min":58,"x_max":651,"o":"m 561 294 q 626 271 593 304 q 639 255 635 263 q 645 235 643 247 q 648 207 647 224 q 647 163 649 190 q 641 103 646 131 q 624 56 636 76 q 590 22 611 35 q 535 6 569 8 q 499 3 521 4 q 442 3 476 3 q 356 3 407 3 q 229 6 304 4 l 117 8 l 100 19 q 73 53 79 32 q 69 124 67 74 q 78 192 71 163 q 106 255 86 222 q 162 329 125 288 q 258 432 199 371 q 322 497 296 469 q 366 546 347 524 q 399 588 385 568 q 431 633 414 608 q 456 676 446 658 q 472 711 467 694 q 478 744 476 728 q 479 781 481 761 q 458 861 476 826 q 386 896 439 896 q 328 880 354 896 q 289 833 303 864 q 284 819 286 826 q 281 801 282 813 q 278 773 279 790 q 276 728 278 756 q 274 674 275 694 q 270 642 274 654 q 262 620 267 629 q 247 599 257 611 q 183 574 231 574 q 133 581 153 574 q 97 607 114 589 q 77 632 85 621 q 65 654 69 643 q 60 679 61 665 q 58 713 58 693 q 78 806 58 768 q 140 879 97 843 q 201 917 168 900 q 268 946 233 935 q 337 962 303 957 q 400 963 371 967 q 433 957 414 961 q 469 947 451 953 q 503 934 488 940 q 528 922 519 928 q 550 906 538 917 q 575 882 563 894 q 598 857 588 869 q 613 836 608 844 q 644 744 636 790 q 644 644 651 699 q 556 431 632 531 q 535 407 550 422 q 502 372 521 392 q 461 328 483 351 q 415 282 439 306 q 347 213 372 239 q 310 169 322 186 q 293 140 297 153 q 286 113 289 128 q 285 93 283 97 q 294 83 288 89 q 328 74 310 74 q 381 92 354 74 q 430 135 407 110 q 470 186 453 160 q 496 229 488 213 q 524 276 513 264 q 561 294 536 288 z "},"3":{"ha":706,"x_min":60,"x_max":650,"o":"m 528 465 q 581 428 556 450 q 621 388 607 407 q 640 343 633 369 q 649 287 647 317 q 647 226 650 257 q 633 169 643 196 q 621 138 626 150 q 609 115 615 125 q 594 95 603 104 q 575 75 586 86 q 553 54 561 63 q 537 40 544 46 q 522 31 529 35 q 501 22 514 26 q 417 -1 460 6 q 342 -4 375 -8 q 262 14 303 0 q 183 49 221 28 q 116 101 146 71 q 71 171 86 132 q 62 203 64 190 q 60 244 60 217 q 61 278 60 264 q 67 303 63 292 q 78 325 71 314 q 99 350 86 336 q 138 378 117 369 q 193 383 160 386 q 235 372 219 382 q 264 336 250 361 q 270 322 268 328 q 274 305 272 315 q 276 278 275 294 q 278 232 276 261 q 281 169 279 197 q 285 136 282 142 q 347 69 300 88 q 365 64 358 64 q 383 67 372 64 q 422 90 404 74 q 453 131 440 107 q 471 183 465 154 q 474 240 476 211 q 453 319 469 283 q 407 382 436 356 q 383 401 397 390 q 353 419 368 411 q 324 433 338 428 q 304 439 311 439 q 279 448 293 439 q 263 465 265 457 q 278 499 257 481 q 340 533 300 518 q 428 595 392 554 q 475 689 464 636 q 481 742 481 714 q 477 797 481 771 q 467 844 474 824 q 449 874 460 864 q 421 890 438 885 q 386 896 404 896 q 356 890 368 896 q 324 863 342 883 q 293 815 306 842 q 285 799 288 806 q 281 782 282 792 q 278 758 279 772 q 276 717 278 743 q 274 666 276 692 q 263 620 272 640 q 236 587 254 600 q 185 574 218 574 q 135 581 154 574 q 99 608 115 589 q 78 633 86 622 q 67 656 71 644 q 61 681 63 667 q 60 714 60 694 q 79 806 61 769 q 142 879 97 843 q 201 917 168 900 q 269 946 235 935 q 338 962 304 957 q 401 963 372 967 q 433 957 415 961 q 469 947 451 953 q 503 935 488 942 q 529 924 519 929 q 550 907 538 918 q 575 883 563 896 q 598 857 588 869 q 613 836 608 844 q 635 778 626 811 q 647 721 644 744 q 648 686 649 706 q 645 648 647 667 q 640 613 643 629 q 632 589 636 597 q 611 560 624 575 q 584 531 599 544 q 553 506 569 517 q 522 490 538 496 q 514 488 518 489 q 507 485 510 486 q 501 482 504 483 q 528 465 501 479 z "},"4":{"ha":811,"x_min":40,"x_max":775,"o":"m 711 963 q 742 910 775 953 q 700 818 714 871 q 694 794 696 806 q 692 756 693 783 q 692 675 692 728 q 694 526 693 622 q 695 419 694 474 q 697 317 696 365 q 699 231 699 269 q 700 174 700 193 l 703 79 l 717 54 q 731 24 729 33 q 722 7 732 15 q 693 -1 713 -3 q 667 -1 686 -1 q 624 -1 649 -1 q 574 1 600 0 q 524 2 547 1 q 485 4 501 3 q 468 7 469 6 q 464 28 461 14 q 478 60 467 42 l 492 83 l 492 149 q 491 191 492 176 q 488 213 490 206 q 477 222 485 219 q 456 229 469 225 q 436 232 450 231 q 397 235 422 233 q 335 237 372 236 q 242 239 297 238 q 120 241 161 240 q 61 245 79 242 q 42 255 43 249 q 40 274 40 261 q 44 289 40 279 q 59 319 47 299 q 92 377 71 340 q 150 474 114 414 q 195 549 172 511 q 238 619 218 586 q 272 676 257 651 q 293 711 286 700 q 364 824 335 778 q 412 898 393 869 q 441 941 431 926 q 456 960 451 956 l 469 972 l 576 969 q 660 967 621 968 q 711 963 700 965 m 482 558 q 484 642 483 603 q 485 713 485 682 q 485 763 485 743 q 485 785 485 782 q 478 792 482 796 q 449 753 474 788 q 334 586 389 671 q 233 411 279 501 q 218 382 226 396 q 207 363 210 368 q 203 343 197 350 q 225 332 207 339 q 260 322 243 325 q 290 321 267 321 q 342 322 314 321 q 397 324 371 322 q 433 328 422 326 q 455 333 444 331 q 469 339 465 336 l 479 346 l 482 558 z "},"5":{"ha":668,"x_min":57,"x_max":635,"o":"m 331 894 q 282 862 299 885 q 260 797 265 839 q 256 705 254 740 q 281 651 257 669 q 304 648 283 650 q 356 640 325 646 q 424 624 388 635 q 497 590 461 613 q 561 531 532 567 q 607 442 590 494 q 624 331 625 388 q 606 213 624 275 q 558 111 589 157 q 485 35 528 65 q 389 -10 442 4 q 275 -17 336 -24 q 194 2 232 -12 q 126 42 156 17 q 79 101 97 67 q 60 182 61 136 q 65 253 57 219 q 89 301 74 286 q 139 321 108 321 q 185 307 163 321 q 218 269 207 293 q 223 241 221 263 q 228 192 225 219 q 233 137 231 153 q 240 110 235 121 q 318 75 267 60 q 366 114 346 85 q 400 197 386 143 q 416 333 419 269 q 383 442 413 396 q 298 513 354 488 q 156 536 242 539 q 122 535 129 535 q 107 542 114 536 q 94 557 99 550 q 88 581 89 564 q 88 629 86 597 q 92 719 89 661 q 94 782 93 749 q 97 844 96 815 q 100 892 99 872 q 101 913 101 911 q 120 940 104 922 q 149 965 136 958 q 163 969 153 968 q 197 972 174 971 q 260 972 219 972 q 365 972 300 972 q 446 972 407 972 q 515 972 485 972 q 563 970 544 971 q 585 968 582 969 q 609 960 600 965 q 624 943 618 956 q 631 906 629 931 q 633 842 632 882 q 631 748 635 775 q 615 708 626 721 q 571 686 594 686 q 513 724 542 686 q 502 746 506 735 q 496 776 499 757 q 472 845 492 819 q 425 885 453 871 q 379 896 408 893 q 331 894 350 899 z "},"6":{"ha":733,"x_min":57,"x_max":707,"o":"m 679 438 q 701 362 696 397 q 704 289 707 326 q 671 169 699 231 q 601 67 643 108 q 510 6 557 24 q 399 -12 464 -12 q 265 13 322 -12 q 168 83 208 39 q 103 188 128 128 q 65 314 78 247 q 60 344 63 332 q 58 370 58 357 q 57 398 57 383 q 58 435 57 413 q 101 684 63 567 q 235 894 139 801 q 278 933 258 918 q 319 956 299 947 q 360 969 339 965 q 408 972 382 972 q 545 938 490 972 q 618 821 600 904 q 621 755 626 782 q 593 703 615 728 q 540 675 568 675 q 484 699 501 675 q 463 760 467 724 q 456 807 460 789 q 447 837 453 825 q 434 855 442 849 q 415 865 426 861 q 374 862 397 871 q 339 835 350 853 q 308 776 322 811 q 284 699 294 740 q 268 617 274 658 q 264 540 263 576 l 265 503 l 290 536 q 365 601 322 576 q 461 626 408 626 q 535 610 501 626 q 597 566 569 593 q 646 505 625 539 q 679 438 667 471 m 533 282 q 534 314 533 301 q 533 337 535 326 q 530 358 532 347 q 524 383 528 368 q 510 428 519 401 q 486 481 500 456 q 453 525 472 507 q 411 543 435 543 q 319 460 360 543 q 303 422 310 439 q 294 388 297 404 q 290 354 290 372 q 290 313 289 336 q 357 111 297 175 q 442 68 397 68 q 468 74 457 68 q 481 88 474 76 q 496 115 489 99 q 510 150 503 131 q 521 188 517 169 q 528 231 525 204 q 533 282 532 258 z "},"7":{"ha":669,"x_min":43,"x_max":638,"o":"m 632 940 q 633 900 638 929 q 630 880 632 888 q 625 865 628 872 q 616 847 622 857 q 600 822 610 838 q 574 779 589 806 q 544 721 560 753 q 515 654 529 689 q 488 588 500 619 q 455 492 469 536 q 430 408 440 449 q 412 328 419 367 q 400 247 404 289 q 392 174 394 201 q 388 126 389 146 q 388 91 386 107 q 390 54 389 75 q 393 10 393 24 q 390 -7 393 -4 q 363 -14 385 -12 q 313 -15 342 -15 q 253 -14 285 -15 q 193 -11 221 -12 q 145 -8 165 -10 q 118 -7 125 -7 l 121 25 q 134 135 122 74 q 167 263 146 196 q 217 399 189 329 q 281 535 246 469 q 317 599 293 558 q 369 685 342 640 q 421 767 396 729 q 458 822 446 806 l 469 836 l 393 833 q 320 830 361 832 q 251 825 279 828 q 160 821 206 821 q 106 823 129 821 q 75 829 83 825 q 46 899 49 843 q 45 926 43 919 q 54 943 47 933 l 65 956 l 150 958 q 445 969 332 965 q 574 972 558 972 q 610 963 593 972 q 632 940 626 954 z "},"8":{"ha":793,"x_min":53,"x_max":731,"o":"m 589 581 q 633 548 608 569 q 669 510 657 526 q 724 360 718 442 q 692 199 731 278 q 624 104 665 146 q 532 34 583 63 q 424 -7 481 6 q 310 -12 367 -19 q 223 11 264 -7 q 149 57 182 29 q 92 122 115 85 q 58 200 69 158 q 54 231 56 213 q 53 269 53 250 q 54 307 53 289 q 58 339 56 325 q 82 404 65 371 q 122 469 99 438 q 172 526 144 500 q 228 565 199 551 q 240 575 240 572 q 237 583 240 576 q 228 596 233 589 q 195 667 204 628 q 191 747 186 706 q 215 828 196 788 q 264 901 233 868 q 371 975 313 953 q 490 989 429 997 q 619 921 572 976 q 667 782 667 865 q 649 689 667 733 q 597 608 631 644 l 576 588 l 589 581 m 376 758 q 367 691 367 726 q 375 640 367 656 q 400 626 385 626 q 433 640 415 626 q 475 691 456 658 q 507 760 494 724 q 522 830 519 796 q 515 885 525 864 q 501 904 508 900 q 479 906 494 908 q 451 890 467 903 q 422 856 436 876 q 397 811 408 836 q 376 758 385 786 m 517 289 q 529 378 528 329 q 521 458 531 428 q 497 502 514 482 q 465 528 481 522 q 395 517 432 540 q 328 450 358 494 q 278 347 297 406 q 258 228 258 289 q 262 183 258 208 q 275 136 265 158 q 301 99 285 114 q 343 83 317 83 q 405 106 376 83 q 456 160 433 128 q 494 227 478 192 q 517 289 510 263 z "},"9":{"ha":763,"x_min":57,"x_max":708,"o":"m 367 985 q 530 938 454 985 q 651 810 606 890 q 678 749 667 783 q 696 675 689 714 q 706 597 703 636 q 704 521 708 557 q 653 278 692 381 q 546 104 614 176 q 455 24 501 57 q 340 -8 408 -8 q 197 28 257 -8 q 122 153 138 65 q 124 225 115 196 q 160 278 132 254 q 225 294 188 306 q 281 206 281 275 q 282 170 281 189 q 290 135 283 151 q 308 108 296 118 q 343 97 321 97 q 401 128 374 97 q 423 161 411 139 q 446 210 435 183 q 466 264 457 238 q 478 310 475 290 q 481 328 478 315 q 486 357 483 342 q 490 392 489 372 q 492 424 492 411 l 492 457 l 458 419 q 396 368 426 385 q 325 346 365 351 q 292 343 303 343 q 261 347 281 343 q 208 367 228 356 q 160 406 188 378 q 103 481 126 439 q 69 571 81 524 q 58 666 57 618 q 76 758 60 714 q 123 849 96 807 q 186 921 150 890 q 267 968 222 951 q 367 985 313 985 m 468 569 q 474 604 472 582 q 476 652 476 626 q 474 703 476 678 q 467 749 471 729 q 449 799 461 772 q 419 850 436 826 q 381 890 401 874 q 340 906 361 906 q 275 850 303 906 q 253 794 263 825 q 238 731 243 764 q 231 669 232 699 q 233 615 229 639 q 278 475 249 525 q 347 425 308 425 q 389 441 369 425 q 424 480 408 457 q 451 528 439 503 q 468 569 463 553 z "},"\u0000":{"ha":0,"x_min":0,"x_max":0,"o":""},"\r":{"ha":0,"x_min":0,"x_max":0,"o":""}," ":{"ha":429,"x_min":0,"x_max":0,"o":""},"\n":{"ha":0,"x_min":0,"x_max":0,"o":""},"!":{"ha":375,"x_min":86,"x_max":315,"o":"m 311 853 q 312 776 315 824 q 297 651 308 729 q 289 597 293 624 q 283 558 285 569 q 271 474 278 515 q 257 397 264 432 q 244 335 250 361 q 232 297 238 310 q 212 269 225 282 q 192 256 199 256 q 174 264 185 256 q 147 324 157 279 q 128 464 136 369 q 123 506 126 475 q 115 574 119 538 q 109 621 111 601 q 106 660 107 640 q 105 701 106 679 q 104 754 104 722 q 106 830 104 799 q 108 869 107 861 q 136 919 115 897 q 182 949 157 942 q 221 952 197 953 q 256 947 244 951 q 294 913 283 933 q 311 853 306 893 m 214 179 q 286 107 274 163 q 287 72 290 90 q 274 36 283 53 q 237 1 261 14 q 185 -11 213 -11 q 151 -6 167 -11 q 117 19 135 1 q 90 73 93 43 q 103 133 86 103 q 151 176 119 163 q 214 179 182 189 z "},"\"":{"ha":513,"x_min":47,"x_max":465,"o":"m 465 843 q 422 738 465 778 q 396 719 411 728 q 365 706 381 711 q 335 698 349 700 q 313 700 321 696 q 304 712 301 704 q 322 726 307 719 q 332 763 364 749 q 288 797 301 774 q 275 851 275 821 q 276 878 275 871 q 285 899 278 886 q 322 938 300 924 q 369 951 344 951 q 441 919 417 951 q 465 843 465 888 m 238 843 q 194 738 238 776 q 168 719 183 728 q 138 706 153 711 q 108 698 122 700 q 86 700 94 696 q 77 712 75 704 q 94 726 79 719 q 104 763 138 749 q 77 781 92 768 q 56 808 63 794 q 49 826 50 817 q 47 851 47 835 q 74 922 47 892 q 142 951 100 951 q 213 919 189 951 q 238 843 238 888 z "},"#":{"ha":639,"x_min":49,"x_max":593,"o":"m 422 408 q 418 395 419 401 q 417 388 417 389 q 433 385 418 386 q 469 383 449 385 q 502 381 490 382 q 522 378 514 381 q 538 372 531 376 q 556 360 544 368 q 583 314 583 339 q 574 303 583 307 q 540 301 569 301 q 475 303 511 301 l 385 306 l 368 258 q 356 224 363 242 q 340 194 350 207 q 316 172 331 181 q 281 164 301 164 q 263 175 263 164 q 269 197 263 178 q 283 240 275 215 q 297 284 290 265 q 303 304 303 303 q 275 308 303 308 l 247 307 l 229 256 q 215 217 222 235 q 204 196 207 199 q 188 181 199 188 q 167 169 178 174 q 147 164 157 165 q 131 167 136 163 q 125 175 125 169 q 131 194 125 176 q 143 235 136 213 q 157 280 150 258 q 167 308 164 301 q 146 313 169 313 q 92 322 113 313 q 58 351 72 331 q 50 372 51 363 q 54 385 49 382 q 78 387 57 386 q 126 388 99 388 l 193 389 l 200 407 q 206 424 204 418 q 203 433 207 431 q 190 435 200 435 q 158 438 179 436 q 131 438 142 438 q 115 440 121 439 q 104 444 108 442 q 93 450 100 446 q 60 487 68 465 q 69 511 51 508 q 99 513 74 513 q 157 513 125 513 l 233 511 l 243 539 q 253 565 247 550 q 261 588 258 579 q 298 637 271 615 q 349 656 325 658 q 359 653 357 656 q 363 644 361 651 q 358 627 363 642 q 349 594 354 613 q 336 554 343 575 q 322 517 329 533 q 324 513 319 514 q 346 511 328 511 l 372 511 l 382 539 q 392 565 386 550 q 400 588 397 579 q 437 637 410 615 q 488 656 464 658 q 498 653 496 656 q 500 644 500 651 q 496 619 501 639 q 481 572 490 600 q 465 529 471 547 q 458 510 458 511 q 468 510 463 510 q 489 508 474 508 q 572 475 540 508 q 588 451 583 464 q 588 432 593 438 q 565 428 585 429 q 506 428 546 428 l 429 428 l 422 408 m 338 407 q 343 430 344 426 q 318 433 342 433 l 292 433 l 285 414 q 278 390 278 396 q 304 388 278 388 l 332 389 l 338 407 z "},"$":{"ha":524,"x_min":54,"x_max":474,"o":"m 436 353 q 465 290 456 328 q 467 219 474 251 q 413 149 458 182 q 374 126 392 133 q 326 115 357 118 q 300 111 311 113 q 286 108 289 110 q 281 83 283 106 q 277 60 279 75 q 270 32 275 46 q 257 8 265 18 q 235 -1 249 -1 q 215 6 229 -1 q 200 25 204 10 q 192 88 196 40 l 188 129 l 175 131 q 135 148 160 135 q 96 176 111 161 q 75 264 54 219 q 108 299 85 288 q 154 310 131 310 q 210 288 190 310 q 246 236 231 265 q 258 214 253 225 q 267 200 264 203 q 304 185 281 185 q 340 203 331 185 q 340 236 350 221 q 288 281 329 251 q 157 376 204 339 q 93 432 110 414 q 73 458 81 447 q 61 478 65 468 q 56 499 57 488 q 56 528 56 510 q 57 563 56 554 q 65 586 58 572 q 103 633 79 613 q 153 663 126 653 l 171 668 l 171 706 q 180 772 171 753 q 210 792 189 792 q 245 777 236 792 q 256 718 254 763 l 257 675 l 286 671 q 376 647 342 664 q 432 600 410 631 q 451 554 451 574 q 429 513 450 535 q 367 493 404 485 q 323 518 342 500 q 285 572 304 536 q 211 614 253 629 q 190 589 192 607 q 204 547 189 571 q 221 530 208 542 q 249 504 233 518 q 283 476 265 490 q 318 451 301 463 q 436 353 406 393 z "},"%":{"ha":907,"x_min":46,"x_max":863,"o":"m 690 975 q 735 972 718 974 q 760 967 751 969 q 772 963 769 965 q 775 954 775 960 q 756 913 775 953 q 705 810 736 874 q 633 665 674 746 q 549 499 592 583 q 466 332 507 414 q 392 185 425 250 q 338 80 358 121 q 314 36 317 39 q 280 12 303 21 q 238 3 257 3 q 218 4 232 3 q 190 8 204 6 q 163 15 175 11 q 150 24 151 18 q 178 86 149 26 q 258 249 207 146 q 310 349 282 293 q 368 464 339 406 q 425 578 397 522 q 475 676 453 633 q 517 760 497 719 q 554 833 538 800 q 582 887 571 865 q 597 914 593 908 q 619 946 608 933 q 640 965 629 958 q 662 974 650 972 q 690 975 674 976 m 375 658 q 314 567 360 601 q 213 532 268 532 q 149 545 179 532 q 95 581 118 558 q 59 633 72 603 q 46 697 46 664 q 60 764 46 733 q 97 816 74 794 q 149 850 119 838 q 213 863 179 863 q 293 842 254 863 q 336 808 318 829 q 365 763 354 788 q 379 712 376 739 q 375 658 382 685 m 210 800 q 178 753 190 785 q 167 681 167 721 q 177 619 167 642 q 203 596 188 596 q 221 604 213 596 q 247 650 238 619 q 257 712 256 681 q 251 769 258 743 q 229 801 244 794 q 210 800 219 807 m 856 297 q 858 239 863 269 q 842 182 854 208 q 814 147 835 167 q 776 117 793 126 q 690 94 739 94 q 591 131 636 94 q 531 218 546 167 q 531 301 519 261 q 570 370 543 340 q 636 415 597 400 q 718 422 675 429 q 807 379 769 414 q 856 297 844 344 m 735 236 q 740 281 740 258 q 735 323 739 304 q 723 353 731 342 q 706 365 715 365 q 675 343 690 365 q 651 288 660 321 q 647 229 646 263 q 657 179 649 196 q 681 158 668 158 q 701 167 692 158 q 717 189 710 176 q 728 215 724 201 q 735 236 733 228 z "},"&":{"ha":1010,"x_min":51,"x_max":968,"o":"m 936 64 q 967 33 968 50 q 958 24 965 28 q 936 17 951 19 q 896 14 921 15 q 832 11 871 13 q 754 10 782 10 q 712 15 726 11 q 693 26 697 18 q 686 49 689 35 q 674 88 683 69 l 664 104 l 636 85 q 543 35 592 53 q 436 10 494 17 q 408 8 419 8 q 387 7 397 7 q 365 8 376 7 q 335 11 353 10 q 258 28 297 15 q 182 63 218 42 q 117 113 146 85 q 71 176 88 142 q 57 213 60 200 q 51 253 54 225 q 57 322 51 294 q 126 453 75 392 q 243 547 178 515 q 262 556 254 551 q 269 561 269 560 q 263 572 269 563 q 249 594 257 582 q 193 705 213 651 q 176 799 174 758 q 206 887 181 851 q 282 947 231 922 q 344 974 318 967 q 406 981 371 981 q 525 950 467 981 q 611 864 583 919 q 620 835 618 847 q 622 792 622 824 q 619 749 621 761 q 611 722 618 736 q 570 672 600 699 q 501 621 540 644 q 469 601 482 610 q 456 592 456 593 q 465 578 456 590 q 488 550 475 565 q 513 522 500 535 q 529 504 525 508 q 539 493 531 503 q 561 468 547 483 q 592 433 575 453 q 628 392 610 414 l 719 285 l 732 307 q 763 367 750 336 q 783 425 776 397 q 789 476 789 453 q 781 514 789 500 q 773 528 774 525 q 778 536 772 532 q 792 542 782 540 q 829 544 803 544 q 863 543 847 544 q 885 539 879 542 q 896 525 896 535 q 885 504 896 515 q 864 461 872 492 q 824 339 844 392 q 783 256 803 286 q 774 242 778 249 q 771 232 771 235 q 785 214 771 231 q 818 176 799 197 q 858 132 838 154 q 892 96 878 110 q 915 77 903 86 q 936 64 928 68 m 346 926 q 300 855 301 907 q 340 728 299 803 q 360 698 349 714 q 382 668 371 682 q 401 646 393 654 q 414 638 410 638 q 437 651 425 638 q 460 683 449 665 q 479 719 471 701 q 489 746 488 738 q 494 826 499 783 q 475 892 490 868 q 438 924 461 913 q 390 936 415 936 q 346 926 365 936 m 610 168 l 556 228 q 432 364 483 307 q 349 461 381 421 q 319 497 332 482 q 303 513 306 513 q 292 506 299 513 q 276 488 285 499 q 258 465 267 478 q 244 440 250 451 q 221 364 229 407 q 217 340 218 349 q 216 322 215 331 q 218 305 217 314 q 224 281 219 296 q 280 158 240 210 q 369 86 319 106 q 396 83 378 83 q 435 83 414 82 q 475 88 456 85 q 506 94 494 90 q 529 106 515 99 q 557 123 543 114 q 583 141 571 132 q 601 157 596 150 l 610 168 z "},"'":{"ha":286,"x_min":47,"x_max":238,"o":"m 211 922 q 232 889 226 907 q 238 843 238 871 q 194 738 238 776 q 167 719 183 728 q 134 704 150 710 q 104 697 118 699 q 83 700 90 696 q 94 726 65 711 q 104 763 139 749 q 77 781 92 768 q 56 808 63 794 q 49 826 50 817 q 47 851 47 835 q 49 878 47 871 q 58 899 51 886 q 94 937 69 921 q 143 953 118 953 q 178 944 158 953 q 211 922 199 935 z "},"(":{"ha":393,"x_min":60,"x_max":356,"o":"m 332 1 q 346 -12 346 -8 q 339 -15 346 -15 q 322 -15 332 -15 q 301 -12 313 -14 q 281 -7 289 -10 q 174 73 217 18 q 106 196 131 128 q 70 337 81 264 q 60 469 60 410 q 71 605 60 531 q 108 749 82 679 q 178 876 135 819 q 285 958 221 933 q 326 968 301 965 q 354 967 350 971 q 350 959 356 965 q 336 944 344 953 q 201 617 239 853 q 197 562 199 599 q 194 485 194 525 q 195 410 194 446 q 199 356 196 374 q 212 286 204 322 q 229 215 219 250 q 249 151 239 181 q 267 101 258 121 q 301 41 281 71 q 332 1 321 11 z "},")":{"ha":393,"x_min":36,"x_max":332,"o":"m 265 788 q 316 636 300 715 q 332 464 332 557 q 315 292 332 372 q 267 147 297 211 q 194 42 236 83 q 101 -14 151 0 q 66 -17 86 -17 q 46 -15 46 -18 q 50 -10 46 -14 q 60 -3 54 -7 q 91 38 71 7 q 125 97 111 68 q 147 153 136 119 q 166 224 157 186 q 183 299 175 261 q 194 371 190 338 q 199 433 197 399 q 199 503 200 468 q 194 573 197 539 q 188 633 192 607 q 56 942 147 856 q 42 955 47 949 q 38 963 36 961 q 66 965 42 967 q 108 956 90 963 q 265 788 203 918 z "},"*":{"ha":542,"x_min":49,"x_max":492,"o":"m 488 858 q 491 820 492 843 q 486 786 490 797 q 399 744 468 744 q 375 743 376 744 q 383 735 375 742 q 401 722 390 729 q 449 676 439 699 q 443 622 458 653 q 367 564 417 564 q 321 583 339 564 q 288 646 303 601 q 283 659 285 653 q 281 669 282 665 q 276 679 278 675 q 274 669 275 675 q 265 646 269 663 q 232 583 250 601 q 183 565 214 564 q 138 582 156 565 q 110 622 121 599 q 143 718 83 678 q 157 728 151 724 q 161 733 163 732 q 156 735 158 733 l 140 735 q 54 778 72 735 q 49 810 49 788 q 53 847 49 833 q 78 885 60 871 q 119 899 96 899 q 186 867 153 896 q 199 856 193 860 q 204 853 204 851 q 201 860 203 856 l 194 874 q 182 904 185 893 q 179 931 179 915 q 207 985 179 967 q 275 994 235 1004 q 313 980 300 989 q 333 956 326 971 q 339 928 339 943 q 333 886 339 913 q 329 867 331 875 q 329 857 328 858 q 335 861 332 860 q 342 867 338 864 q 349 874 346 871 q 421 908 388 908 q 463 894 444 908 q 488 858 481 881 z "},"+":{"ha":678,"x_min":44,"x_max":633,"o":"m 604 529 q 633 464 633 504 q 603 397 633 419 q 532 374 572 374 q 503 372 519 372 q 475 371 486 371 q 451 367 456 368 q 440 356 446 365 q 433 338 435 347 q 432 297 432 329 q 431 265 432 278 q 428 242 431 251 q 423 224 426 232 q 414 208 419 217 q 381 181 401 190 q 339 171 361 171 q 294 184 315 171 q 263 218 274 197 q 258 230 260 225 q 254 242 256 235 q 252 262 253 250 q 251 294 251 274 l 249 353 l 239 361 q 223 369 232 368 q 178 369 214 369 q 113 374 133 369 q 76 394 92 379 q 53 424 63 406 q 44 458 44 443 q 71 521 44 494 q 89 536 81 531 q 109 545 97 542 q 137 550 121 549 q 176 551 153 551 q 213 552 196 551 q 235 554 231 553 q 249 572 246 558 q 254 629 251 585 q 257 677 256 664 q 264 699 258 690 q 299 736 276 724 q 344 749 321 749 q 390 736 368 749 q 425 699 411 724 q 433 676 432 688 q 436 629 433 664 q 437 599 436 610 q 439 583 438 589 q 442 574 440 576 q 447 567 443 571 q 463 558 454 560 q 511 554 472 557 q 548 553 533 554 q 572 549 563 551 q 589 541 582 546 q 604 529 596 536 z "},",":{"ha":319,"x_min":42,"x_max":278,"o":"m 271 114 q 266 41 278 78 q 229 -21 254 4 q 184 -53 213 -37 q 133 -72 156 -68 q 110 -75 117 -75 q 94 -71 103 -75 q 104 -40 63 -60 q 133 -17 131 -26 q 114 0 135 -8 q 71 30 88 10 q 48 74 54 50 q 48 124 42 99 q 72 171 54 150 q 160 211 110 211 q 233 184 203 211 q 271 114 264 157 z "},"-":{"ha":589,"x_min":39,"x_max":547,"o":"m 547 276 l 521 275 q 478 274 508 275 q 408 274 447 274 q 326 273 369 274 q 247 273 283 272 q 184 274 210 274 q 154 275 158 275 q 83 315 113 282 q 44 388 53 347 q 42 417 39 413 q 51 419 43 418 q 78 420 58 419 q 130 421 97 421 q 214 421 163 421 q 342 420 283 421 q 417 418 401 419 q 506 385 471 411 q 546 301 542 358 l 547 276 z "},".":{"ha":317,"x_min":46,"x_max":269,"o":"m 269 108 q 269 75 269 85 q 261 53 268 65 q 220 2 246 21 q 160 -17 194 -17 q 117 -12 131 -18 q 82 11 99 -6 q 57 47 65 28 q 48 71 50 63 q 46 103 46 79 q 47 134 46 125 q 56 157 49 143 q 98 208 71 189 q 157 231 125 228 q 238 194 203 233 q 263 158 257 175 q 269 108 269 140 z "},"/":{"ha":679,"x_min":68,"x_max":611,"o":"m 610 961 q 604 940 611 960 q 578 869 597 919 q 524 728 558 818 q 432 496 489 638 q 349 285 382 369 q 294 148 315 201 q 260 67 272 94 q 238 28 247 40 q 223 12 229 15 q 206 3 217 8 q 193 -3 199 -1 q 180 -7 188 -6 q 160 -9 172 -8 q 129 -10 149 -10 q 81 -9 90 -10 q 71 -4 72 -8 q 71 11 68 1 q 119 131 88 51 q 189 308 150 211 q 268 506 228 404 q 343 693 308 608 q 400 834 378 778 q 425 896 422 890 q 474 956 449 942 q 490 959 478 957 q 519 963 503 961 q 554 967 536 965 q 586 968 572 968 q 610 961 607 968 z "},":":{"ha":361,"x_min":76,"x_max":310,"o":"m 194 707 q 248 692 224 707 q 288 651 272 676 q 306 595 303 626 q 294 532 310 564 q 249 478 279 497 q 188 458 219 458 q 151 465 169 458 q 104 503 122 478 q 81 560 86 529 q 85 622 76 590 q 119 676 94 654 q 154 699 133 690 q 194 707 175 707 m 226 322 q 269 287 253 310 q 290 238 285 264 q 287 183 294 211 q 258 132 279 156 q 218 106 243 114 q 168 100 193 97 q 89 160 115 107 q 82 180 83 171 q 81 211 81 189 q 82 244 81 235 q 89 264 83 253 q 131 313 104 296 q 188 331 158 331 q 226 322 208 331 z "},";":{"ha":376,"x_min":103,"x_max":325,"o":"m 194 476 q 150 497 171 481 q 118 536 129 513 q 111 556 113 547 q 110 589 110 565 q 111 620 110 611 q 118 640 113 629 q 160 690 133 672 q 217 707 188 707 q 256 699 238 707 q 294 670 279 689 q 315 628 308 651 q 319 581 322 606 q 304 532 317 556 q 258 487 289 503 q 194 476 226 471 m 321 215 q 290 102 325 150 q 192 38 256 54 q 168 33 175 33 q 151 35 161 32 q 138 49 135 40 q 160 68 140 58 q 186 90 185 81 q 167 108 188 99 q 119 149 135 122 q 103 208 103 175 q 135 288 103 254 q 214 322 167 322 q 288 291 258 322 q 321 215 317 260 z "},"<":{"ha":481,"x_min":42,"x_max":426,"o":"m 296 433 q 258 406 274 418 q 242 392 243 394 q 245 376 239 383 q 275 354 251 369 q 354 298 319 326 q 400 256 389 269 q 417 224 413 238 q 421 186 421 211 q 419 153 421 163 q 411 142 418 144 q 375 139 386 135 q 337 160 365 142 q 272 204 308 178 q 197 260 236 231 q 123 317 157 290 q 67 365 89 344 q 43 392 44 386 q 45 404 42 397 q 70 428 49 411 q 138 481 92 446 q 265 575 183 515 q 325 618 297 599 q 360 640 353 638 q 390 647 372 647 q 414 642 407 647 q 421 629 418 639 q 425 607 424 619 q 426 581 426 594 q 424 558 426 568 q 415 531 421 543 q 394 506 408 519 q 357 475 381 492 q 296 433 333 458 z "},"=":{"ha":868,"x_min":46,"x_max":821,"o":"m 117 476 q 54 551 69 507 q 48 574 50 567 q 67 583 46 581 q 144 586 89 586 q 311 586 200 586 q 510 585 436 586 q 626 582 583 585 q 694 574 669 579 q 743 557 718 568 q 794 518 772 544 q 818 464 815 492 l 821 442 l 783 440 q 726 440 771 440 q 622 438 682 439 q 496 438 563 438 q 372 438 429 438 q 277 438 315 438 q 235 439 239 439 q 192 446 208 443 q 163 453 175 449 q 141 463 151 457 q 117 476 131 468 m 743 274 q 794 235 772 261 q 818 181 815 208 l 821 158 l 783 157 q 726 156 771 157 q 622 156 682 156 q 496 156 563 156 q 372 156 429 156 q 277 156 315 156 q 235 156 239 156 q 192 163 208 160 q 163 169 175 165 q 141 179 151 174 q 117 193 131 185 q 54 268 69 224 q 48 290 50 283 q 67 300 46 297 q 144 303 89 303 q 311 303 200 303 q 510 302 436 303 q 626 299 583 301 q 694 290 669 296 q 743 274 718 285 z "},">":{"ha":479,"x_min":50,"x_max":439,"o":"m 214 564 q 340 470 294 504 q 408 419 386 436 q 434 394 429 401 q 436 382 439 388 q 425 367 435 376 q 396 340 415 357 q 345 299 376 324 q 269 242 314 275 q 181 176 214 200 q 129 141 149 153 q 99 128 110 129 q 76 129 88 126 q 63 135 67 132 q 60 147 61 136 q 58 169 58 157 q 59 194 58 182 q 61 213 60 207 q 101 266 68 236 q 204 344 133 296 q 234 367 228 360 q 238 382 240 375 q 216 399 236 385 q 168 432 196 413 q 117 468 140 451 q 88 490 94 485 q 58 536 65 513 q 54 594 50 560 q 64 630 57 622 q 90 638 71 638 q 106 635 99 638 q 126 626 114 633 q 159 603 139 618 q 214 564 179 589 z "},"?":{"ha":663,"x_min":33,"x_max":618,"o":"m 365 992 q 460 968 417 989 q 538 914 504 947 q 591 840 571 881 q 615 757 611 799 q 603 676 618 715 q 549 608 588 638 q 481 559 504 575 q 449 529 458 543 q 422 492 432 508 q 406 456 413 475 q 394 411 399 436 q 386 350 390 386 q 350 265 378 265 q 322 283 336 265 q 303 311 307 300 q 293 347 297 325 q 288 393 289 368 q 287 444 286 418 q 292 492 288 469 q 325 585 301 540 q 390 674 349 629 q 416 712 404 688 q 431 753 428 736 q 424 808 435 781 q 393 853 414 836 q 365 869 378 864 q 332 874 351 874 q 288 865 304 874 q 264 840 272 856 q 253 803 256 824 q 250 763 251 783 q 244 706 247 724 q 233 678 242 689 q 188 647 215 657 q 133 636 161 636 q 83 649 104 636 q 50 688 61 661 q 38 774 33 733 q 65 849 43 814 q 120 910 86 883 q 195 956 154 938 q 280 984 236 975 q 365 992 324 993 m 350 179 q 404 144 385 169 q 424 86 424 119 q 392 16 424 43 q 321 -11 361 -11 q 303 -10 313 -11 q 288 -6 294 -8 q 253 19 271 1 q 225 73 229 43 q 239 133 221 103 q 287 175 256 163 q 350 179 318 188 z "},"@":{"ha":874,"x_min":49,"x_max":819,"o":"m 811 443 q 817 412 815 431 q 819 374 819 393 q 819 338 819 356 q 815 307 818 319 q 713 156 793 210 q 687 142 694 144 q 661 139 679 140 q 635 139 646 138 q 608 147 625 140 q 572 167 586 154 q 543 207 558 181 l 532 226 l 510 204 q 458 166 488 181 q 396 151 428 151 q 275 199 326 150 q 251 233 261 211 q 236 282 242 256 q 231 336 231 308 q 238 386 231 364 q 264 448 249 424 q 307 499 279 472 q 374 538 339 526 q 443 544 410 550 q 474 535 457 542 q 508 519 490 529 q 513 532 510 518 q 521 550 515 547 q 535 553 524 553 q 560 553 547 554 q 586 551 574 553 q 600 547 599 550 q 603 540 603 544 q 601 519 604 535 q 590 453 594 481 q 583 406 585 426 q 580 367 581 385 q 579 332 579 350 q 582 289 581 300 q 588 269 583 278 q 633 242 603 242 q 694 276 668 242 q 722 346 717 306 q 717 427 726 386 q 683 506 707 468 q 624 571 660 544 q 469 622 553 622 q 328 582 396 622 q 301 563 317 575 q 272 535 286 550 q 244 503 257 519 q 225 475 232 488 q 191 387 201 435 q 188 297 181 339 q 256 149 200 207 q 401 72 311 90 q 423 67 411 71 q 446 58 435 64 q 465 44 457 53 q 472 22 472 35 q 461 -4 472 7 q 435 -18 450 -15 q 392 -22 419 -22 q 344 -17 365 -21 q 181 60 249 4 q 81 192 114 117 q 55 352 49 267 q 114 515 61 438 q 186 597 144 561 q 277 656 228 632 q 381 690 326 679 q 492 699 436 701 q 713 613 632 690 q 774 534 747 578 q 811 443 800 490 m 485 443 q 483 451 483 446 q 481 463 482 457 q 469 488 478 478 q 449 497 460 497 q 408 478 428 497 q 372 431 388 458 q 346 376 356 404 q 333 331 336 347 q 331 272 329 306 q 338 226 332 239 q 344 216 340 221 q 350 210 347 211 q 372 206 360 204 q 396 215 385 208 q 435 259 418 232 q 463 319 451 286 q 479 384 474 351 q 485 443 485 417 z "},"A":{"ha":793,"x_min":-8,"x_max":799,"o":"m 58 -8 q 19 -2 29 -6 q 4 13 8 1 q 31 90 -8 44 q 44 109 39 100 q 56 135 50 118 q 68 178 61 151 q 85 251 75 206 q 97 302 90 275 q 110 347 104 329 q 123 396 115 364 q 138 456 131 428 q 156 525 144 483 q 175 599 167 567 q 193 662 185 631 q 204 706 201 693 q 211 735 207 718 q 218 764 215 753 q 224 794 222 779 q 225 829 225 810 q 224 864 225 856 q 215 886 222 872 q 236 960 186 939 q 263 965 243 963 q 306 969 282 967 q 354 972 329 971 q 396 971 379 972 q 436 969 410 969 q 486 967 463 968 q 519 965 510 967 q 534 962 529 964 q 541 956 539 960 q 549 946 543 951 q 555 926 557 938 q 538 889 553 915 q 518 840 521 858 q 520 791 515 822 q 535 732 525 760 q 551 685 539 722 q 578 596 563 647 q 613 488 594 544 q 646 381 631 431 q 660 338 653 361 q 671 301 667 315 q 683 260 675 289 q 700 206 692 232 q 731 128 717 154 q 764 88 744 103 q 791 47 783 72 q 788 8 799 22 l 781 0 l 617 -4 q 547 -5 574 -4 q 506 -6 521 -6 q 485 -5 492 -6 q 476 -3 479 -4 q 469 3 474 -1 q 461 10 464 7 q 458 20 457 17 q 463 39 458 24 q 469 55 465 46 q 476 68 474 64 q 484 81 482 75 q 485 98 486 86 q 480 132 485 110 q 465 194 475 154 q 452 242 457 232 q 436 256 447 253 q 406 251 431 257 q 353 238 382 246 q 297 221 324 229 q 257 206 269 213 q 220 170 232 193 q 210 110 208 147 q 213 87 210 96 q 222 63 215 78 q 229 4 247 18 q 199 -6 222 -3 q 149 -9 176 -8 q 97 -9 122 -10 q 58 -8 71 -8 m 276 435 q 265 381 269 401 q 259 351 261 361 q 258 335 257 340 q 260 326 258 331 q 267 318 264 318 q 285 325 269 318 q 304 331 292 328 q 328 338 317 335 q 374 353 351 343 q 403 369 396 363 q 415 396 414 382 q 407 443 415 410 q 395 492 403 461 q 382 549 388 524 q 368 606 375 575 q 357 654 361 636 q 349 688 353 672 q 344 708 346 703 q 341 719 342 718 q 338 713 340 719 q 332 690 336 708 q 322 647 328 671 q 308 577 314 607 q 296 523 301 547 q 285 478 290 499 q 276 435 281 457 z "},"B":{"ha":731,"x_min":32,"x_max":700,"o":"m 49 69 q 77 117 69 104 q 88 142 85 131 q 90 157 89 146 q 90 192 90 168 q 89 257 90 217 q 86 361 88 297 q 86 392 86 369 q 86 449 86 415 q 88 522 86 482 q 90 603 89 561 q 92 682 92 644 q 93 749 93 719 q 93 797 93 778 q 93 818 93 815 q 85 844 90 833 q 63 871 79 856 q 48 889 51 883 q 44 906 44 894 q 71 950 44 935 q 146 958 82 957 q 338 954 210 958 q 409 952 383 953 q 449 951 435 951 q 473 948 464 950 q 493 942 482 946 q 639 779 613 900 q 646 685 650 733 q 624 600 642 638 q 610 581 619 592 q 590 557 601 569 q 565 533 578 544 q 542 514 553 521 l 518 496 l 535 490 q 654 396 614 461 q 697 249 694 331 q 699 205 700 218 q 692 171 697 192 q 644 70 676 108 q 550 13 611 32 l 522 4 l 306 3 q 220 3 261 3 q 147 3 179 3 q 95 3 115 3 q 71 4 75 4 q 38 25 43 7 q 49 69 32 43 m 311 858 q 296 854 301 857 q 288 837 290 851 q 285 790 285 822 q 285 697 285 758 q 285 626 285 654 q 285 581 285 597 q 287 557 286 564 q 289 547 288 550 q 307 542 294 542 q 357 549 331 542 q 404 565 383 556 q 460 626 439 583 q 478 721 481 669 q 458 793 475 761 q 400 842 440 825 q 353 856 379 851 q 311 858 326 861 m 282 325 q 280 241 281 281 q 279 172 279 201 q 281 123 279 142 q 283 103 282 104 q 306 93 286 99 q 332 88 325 88 q 444 135 397 88 q 483 194 472 163 q 492 272 494 225 q 484 324 490 304 q 463 365 478 343 q 407 410 442 393 q 338 428 372 428 q 293 407 306 428 q 289 398 290 403 q 286 385 288 393 q 284 363 285 376 q 282 325 283 349 z "},"C":{"ha":735,"x_min":33,"x_max":704,"o":"m 38 446 q 67 669 33 560 q 176 867 100 779 q 288 951 225 922 q 415 979 351 979 q 496 967 457 979 q 567 931 535 956 q 625 870 600 907 q 663 785 650 833 q 671 726 669 761 q 669 668 672 692 q 653 606 667 636 q 619 553 639 576 q 576 517 600 531 q 526 503 551 503 q 457 540 486 503 q 443 580 444 557 q 447 627 442 603 q 462 675 453 651 q 476 717 471 699 q 486 765 483 736 q 484 822 489 794 q 465 869 479 849 q 425 893 451 890 q 352 865 392 896 q 285 775 313 833 q 256 694 268 740 q 237 599 243 647 q 230 506 231 551 q 238 426 229 460 q 258 358 246 390 q 289 288 269 325 q 325 224 308 250 q 360 181 342 199 q 402 151 379 163 q 454 131 425 139 q 478 126 468 128 q 497 124 488 124 q 521 126 510 124 q 547 136 532 129 q 594 172 581 151 q 607 224 608 192 q 614 257 607 247 q 653 279 631 279 q 685 263 671 279 q 703 214 700 246 q 701 185 704 203 q 694 150 699 168 q 685 116 690 132 q 674 92 679 100 q 500 -8 625 19 q 467 -12 488 -11 q 425 -15 447 -14 q 382 -15 403 -15 q 347 -12 361 -15 q 305 -5 322 -10 q 260 11 288 0 q 153 87 196 39 q 86 193 111 135 q 50 317 61 251 q 38 446 39 382 z "},"D":{"ha":789,"x_min":33,"x_max":763,"o":"m 61 857 q 38 891 42 876 q 43 925 33 906 q 58 945 50 938 q 80 957 65 953 q 117 964 94 961 q 178 968 140 967 q 217 970 201 969 q 247 971 233 971 q 274 969 261 971 q 301 967 286 968 q 371 956 339 963 q 433 940 403 950 q 493 916 464 931 q 554 881 522 901 q 602 845 582 863 q 640 807 622 828 q 673 761 657 786 q 707 701 689 736 q 749 577 735 649 q 760 435 763 506 q 722 278 758 354 q 626 141 685 201 q 492 42 568 81 q 336 -3 417 3 q 283 -5 315 -4 q 217 -6 250 -6 q 156 -5 183 -6 q 119 -3 129 -4 q 76 10 96 1 q 49 42 57 18 q 51 72 46 53 q 67 101 57 90 q 78 118 74 111 q 86 132 83 125 q 90 149 89 139 q 93 172 92 158 q 95 231 94 186 q 96 335 96 275 q 95 463 96 394 q 93 594 94 531 q 90 707 92 657 q 86 781 89 757 q 78 831 83 817 q 61 857 74 846 m 283 785 q 283 716 283 767 q 282 599 282 665 q 282 460 282 533 q 282 322 282 386 q 283 213 282 258 q 285 156 283 167 q 288 124 286 135 q 294 108 290 113 q 307 102 299 103 q 331 101 315 101 q 365 106 351 103 q 390 113 379 108 q 413 128 401 118 q 439 151 425 138 q 476 198 463 178 q 501 254 489 218 q 526 364 518 301 q 535 490 535 426 q 526 610 535 553 q 501 703 518 667 q 474 750 490 725 q 443 789 457 775 q 414 813 431 801 q 381 832 397 824 q 348 846 364 840 q 321 851 332 851 q 310 849 317 851 q 299 843 304 846 l 286 833 l 283 785 z "},"E":{"ha":729,"x_min":33,"x_max":683,"o":"m 67 93 q 88 115 81 106 q 98 151 94 124 q 101 240 101 179 q 101 415 101 300 q 101 597 101 525 q 99 713 100 668 q 94 783 97 758 q 86 821 90 807 q 56 879 74 861 q 42 903 47 890 q 36 932 36 917 q 40 957 36 951 q 56 969 43 963 q 65 974 61 972 q 75 975 69 975 q 89 975 81 975 q 111 974 97 975 q 147 973 119 974 q 214 972 174 972 q 303 970 254 971 q 404 969 353 969 q 547 967 496 968 q 622 966 597 967 q 653 964 647 965 q 663 960 660 963 q 674 947 669 953 q 680 928 678 942 q 682 890 682 915 q 682 819 682 865 q 682 759 682 782 q 681 723 682 736 q 679 703 681 710 q 675 690 678 696 q 638 663 664 663 q 613 671 625 663 q 603 682 608 674 q 592 699 597 690 q 584 718 588 708 q 581 733 581 728 q 558 778 581 754 q 508 811 536 801 q 464 822 489 818 q 415 825 439 825 q 347 814 381 825 q 297 767 313 803 q 294 755 296 761 q 292 739 293 749 q 291 713 292 729 q 290 671 290 697 q 290 630 290 646 q 292 604 290 614 q 294 589 293 594 q 297 579 296 583 q 314 560 304 564 q 337 556 318 557 q 377 553 356 554 q 419 553 399 553 q 450 556 440 554 q 469 563 458 558 q 490 574 481 567 q 519 588 510 588 q 536 581 526 588 q 550 556 547 572 q 550 503 553 539 q 535 407 546 429 q 524 392 529 396 q 506 389 518 389 q 488 397 499 389 q 478 410 478 404 q 461 419 478 413 q 440 424 451 424 q 399 424 428 425 q 347 417 363 421 q 310 401 331 414 q 294 389 300 396 q 286 371 289 382 q 283 340 283 360 q 282 289 282 321 q 283 234 282 258 q 286 203 283 210 q 308 170 290 186 q 344 149 325 154 q 401 144 364 144 q 469 149 442 144 q 517 167 496 154 q 555 205 538 181 q 590 267 572 229 q 599 279 593 272 q 608 290 604 286 q 619 299 615 297 q 633 299 622 300 q 661 285 651 297 q 670 269 665 278 q 678 254 675 261 q 681 224 679 247 q 683 173 682 201 q 683 114 683 144 q 682 63 683 83 q 678 33 679 39 q 669 19 676 26 q 640 7 661 8 q 617 6 636 7 q 567 5 597 6 q 497 3 536 4 q 417 3 458 3 q 333 2 375 3 q 254 1 290 1 q 190 0 218 0 q 150 0 163 0 q 101 -1 125 -1 q 71 1 78 0 q 33 42 33 6 q 39 65 33 57 q 67 93 44 74 z "},"F":{"ha":694,"x_min":28,"x_max":681,"o":"m 103 454 q 103 685 104 606 q 101 775 103 764 q 88 827 94 807 q 65 864 81 847 q 40 900 47 885 q 33 932 33 915 q 36 957 33 951 q 53 969 39 963 q 72 976 63 975 q 108 974 81 976 q 144 973 117 974 q 210 972 171 972 q 299 970 250 971 q 400 969 349 969 q 542 967 492 968 q 618 966 593 967 q 649 964 643 965 q 658 960 656 963 q 669 948 665 954 q 676 931 674 942 q 678 900 678 919 q 679 847 679 881 q 678 758 681 793 q 671 703 676 722 q 656 676 665 683 q 631 671 646 669 q 617 674 624 672 q 608 679 611 676 q 590 705 599 688 q 576 742 582 722 q 553 797 567 781 q 508 821 539 813 q 450 826 489 826 q 378 822 411 826 q 294 776 310 814 q 288 738 290 767 q 285 676 285 708 q 288 615 285 643 q 294 578 290 586 q 315 558 303 563 q 372 553 328 554 q 444 556 422 551 q 486 574 465 560 q 517 588 506 588 q 532 581 522 588 q 547 556 543 572 q 547 503 550 539 q 518 392 540 400 q 493 391 507 386 q 471 407 479 396 q 457 415 468 411 q 431 422 446 419 q 398 424 415 424 q 364 421 381 424 q 340 415 349 418 q 319 406 331 413 q 302 391 308 399 q 292 369 296 383 q 288 331 289 354 q 288 267 288 307 q 289 199 288 231 q 292 158 290 168 q 294 145 293 150 q 299 135 296 140 q 309 123 303 129 q 325 106 315 117 q 342 88 336 94 q 351 77 347 82 q 355 68 354 72 q 356 56 356 64 q 351 21 358 36 q 335 3 344 6 q 292 2 331 3 q 206 1 253 1 q 118 0 158 0 q 71 0 78 0 q 33 29 39 4 q 34 58 28 44 q 61 90 40 71 q 82 114 75 104 q 94 135 89 124 l 103 156 l 103 454 z "},"G":{"ha":796,"x_min":36,"x_max":757,"o":"m 40 401 q 38 492 36 444 q 47 608 40 539 q 88 751 56 682 q 169 872 119 819 q 285 956 219 925 q 425 988 350 988 q 531 970 482 988 q 615 920 579 953 q 672 840 650 888 q 697 733 693 793 q 695 677 699 703 q 682 626 692 651 q 630 546 663 576 q 542 515 597 515 q 493 531 508 515 q 474 570 478 547 q 473 620 469 593 q 481 668 476 647 q 490 738 490 706 q 483 797 490 771 q 463 839 476 822 q 431 860 449 856 q 349 841 383 874 q 290 749 314 808 q 255 611 267 689 q 243 458 243 533 q 260 324 243 379 q 306 233 278 268 q 369 181 335 197 q 438 164 404 164 q 524 195 486 164 q 568 282 563 226 q 566 315 571 306 q 546 335 561 325 q 528 343 535 342 q 504 343 521 344 q 474 338 483 342 q 446 314 464 333 q 418 297 429 297 q 385 371 393 297 q 381 432 381 413 q 389 463 382 451 q 409 476 396 474 q 458 475 422 478 q 561 469 513 469 q 636 472 610 468 q 667 476 653 475 q 694 478 682 478 q 731 472 721 478 q 740 463 736 468 q 744 446 743 458 q 746 411 746 433 q 744 353 746 389 q 744 313 744 335 q 742 267 743 290 q 742 223 742 244 q 742 185 742 201 q 743 113 742 132 q 749 79 744 94 q 756 42 756 61 q 751 13 757 22 q 745 6 750 10 q 735 -1 740 1 q 711 -7 725 -6 q 651 -8 697 -8 q 593 -7 608 -8 q 569 -1 578 -6 q 555 6 558 3 q 551 22 551 10 q 555 38 551 29 q 561 54 558 47 q 565 72 564 61 q 568 94 567 83 l 571 121 l 563 110 q 476 22 519 54 q 371 -10 432 -10 q 297 1 332 -10 q 229 32 261 13 q 144 103 178 64 q 88 190 110 143 q 56 290 67 238 q 40 401 44 343 z "},"H":{"ha":771,"x_min":35,"x_max":761,"o":"m 89 788 q 79 857 86 832 q 60 893 72 882 q 35 935 35 915 q 44 956 35 943 q 58 965 51 963 q 79 969 64 967 q 127 972 90 971 q 206 972 164 972 q 282 969 247 971 q 321 965 317 968 q 340 944 340 958 q 322 894 340 929 l 303 858 l 303 726 q 302 654 303 681 q 302 613 301 628 q 304 592 303 599 q 308 582 306 586 q 332 562 317 567 q 392 557 347 557 q 451 560 436 557 q 475 576 467 564 q 478 586 478 581 q 480 606 479 592 q 481 648 481 621 q 483 719 482 675 q 485 815 485 781 q 483 867 485 849 q 475 893 481 885 q 460 911 469 901 q 440 938 442 928 q 450 958 439 947 q 478 971 458 968 q 536 972 499 974 l 635 972 q 674 973 660 972 q 696 973 688 974 q 708 970 704 972 q 717 965 713 968 q 714 900 761 942 q 699 887 707 894 q 689 875 692 879 l 682 864 l 681 486 q 681 308 681 379 q 681 190 681 236 q 683 119 681 143 q 688 82 685 94 q 695 65 690 69 q 707 54 700 60 q 728 31 724 39 q 728 14 732 24 q 719 3 724 7 q 700 -2 715 0 q 656 -4 685 -4 q 572 -4 626 -4 l 439 -3 l 432 6 q 426 22 428 13 q 428 39 425 32 q 433 45 429 42 q 442 51 436 49 q 461 79 453 58 q 470 111 467 96 q 476 147 474 126 q 478 199 478 168 q 479 278 479 231 l 479 400 l 468 408 q 439 419 460 415 q 394 424 418 424 q 351 420 371 424 q 321 410 332 417 q 310 400 314 406 q 303 381 306 394 q 300 342 301 367 q 299 272 299 317 q 303 122 297 168 q 324 60 308 76 q 334 26 339 44 q 308 3 329 8 q 278 0 300 1 q 228 -2 257 -1 q 171 -3 200 -3 q 119 -1 142 -3 l 121 -1 q 55 9 71 1 q 39 38 39 17 q 43 51 39 44 q 60 71 47 58 q 81 94 74 85 q 90 134 88 103 q 92 233 93 165 q 92 432 92 301 q 92 554 92 494 q 91 663 92 614 q 90 744 90 711 q 89 788 89 778 z "},"I":{"ha":386,"x_min":33,"x_max":344,"o":"m 89 796 q 58 899 85 872 q 36 933 39 919 q 49 960 33 946 q 62 969 56 967 q 88 974 68 971 q 137 975 99 975 q 217 975 175 975 q 273 974 253 975 q 304 972 293 974 q 320 969 315 971 q 329 965 325 968 q 344 945 344 956 q 329 904 344 935 q 316 877 322 890 q 307 858 310 864 q 305 824 306 856 q 303 744 304 793 q 303 634 303 696 q 302 507 303 572 q 301 379 301 442 q 301 265 301 317 q 301 180 301 214 q 303 139 301 146 q 313 90 307 108 q 328 60 318 72 q 335 47 332 54 q 339 38 339 40 q 331 17 339 26 q 313 6 324 8 q 283 2 307 4 q 227 -1 258 0 q 164 -1 196 -1 q 113 1 132 0 q 56 11 71 4 q 40 36 40 18 q 46 56 40 47 q 67 81 51 65 q 82 97 76 89 q 90 138 88 106 q 92 239 92 169 q 92 440 92 308 q 92 565 92 506 q 91 674 92 625 q 90 755 90 722 q 89 796 89 788 z "},"J":{"ha":615,"x_min":8,"x_max":585,"o":"m 176 8 q 60 78 117 21 q 20 136 32 104 q 8 214 8 168 q 33 307 8 272 q 115 353 57 342 q 162 356 139 358 q 200 347 185 354 q 240 308 224 336 q 257 253 257 279 q 238 195 257 224 q 190 153 219 167 q 170 144 178 146 q 143 146 163 143 q 116 144 118 147 q 133 131 114 142 q 151 124 143 125 q 175 124 158 122 q 249 150 214 126 q 303 211 283 174 q 320 253 314 232 q 330 311 326 275 q 334 406 333 347 q 335 560 335 464 q 333 719 335 658 q 329 816 332 781 q 320 867 326 851 q 303 893 314 883 q 279 935 279 917 q 289 956 279 943 q 302 965 296 963 q 324 969 308 967 q 372 972 335 971 q 450 972 408 972 q 526 969 492 971 q 565 965 561 968 q 585 944 585 958 q 565 894 585 929 l 547 858 l 544 656 q 541 472 543 546 q 533 347 539 397 q 519 262 528 296 q 499 196 511 228 q 455 120 482 156 q 392 59 428 85 q 316 18 357 33 q 231 3 275 3 q 201 4 215 3 q 176 8 188 6 z "},"K":{"ha":763,"x_min":33,"x_max":749,"o":"m 307 565 q 321 557 314 557 q 371 583 332 557 q 443 645 414 614 q 499 718 472 676 q 514 758 514 744 q 499 781 514 771 q 460 819 468 799 q 460 862 453 840 q 488 903 468 883 q 535 939 508 924 q 592 964 563 954 q 650 974 622 974 q 695 965 675 974 q 726 935 715 956 q 735 880 736 914 q 714 797 733 846 q 673 719 699 760 q 613 643 647 679 q 589 620 604 635 q 557 591 574 606 q 526 564 540 576 q 506 547 513 551 q 499 542 503 544 q 496 538 496 540 q 500 524 494 535 q 515 499 506 514 q 533 469 525 483 q 549 439 540 456 q 565 401 557 422 q 586 347 574 379 q 608 290 596 321 q 631 231 619 260 q 651 178 642 201 q 667 140 661 154 q 681 115 672 126 q 708 83 689 103 q 735 53 728 64 q 744 36 742 43 q 722 -1 749 8 q 687 -6 717 -4 q 623 -8 657 -7 q 558 -8 589 -8 q 521 -6 528 -7 q 510 -1 517 -4 q 501 7 504 3 q 475 76 494 14 q 415 271 456 138 q 398 327 404 307 q 387 360 392 347 q 378 379 382 372 q 371 393 375 386 q 329 418 350 428 q 318 410 322 415 q 308 393 314 404 q 303 380 306 386 q 301 362 301 374 q 299 328 300 350 q 296 269 297 307 q 299 119 293 168 q 319 57 304 71 q 331 28 333 44 q 314 3 329 11 q 305 0 310 1 q 288 -2 300 -1 q 256 -3 276 -3 q 200 -3 235 -3 q 115 -1 147 -3 q 65 4 83 0 q 42 15 47 8 q 35 33 36 22 q 37 50 33 44 q 56 71 40 56 q 70 86 64 81 q 80 103 76 92 q 85 133 83 114 q 89 190 88 153 q 90 283 90 226 q 92 426 90 340 q 92 548 92 489 q 92 655 92 607 q 91 737 92 703 q 90 782 90 771 q 83 856 89 833 q 57 900 76 879 q 40 924 43 915 q 42 944 38 933 q 53 960 46 954 q 80 968 61 965 q 131 971 99 971 q 215 969 163 971 q 283 967 258 968 q 319 963 307 965 q 336 956 332 960 q 343 943 340 951 q 343 928 346 936 q 326 894 340 919 l 307 854 l 304 785 q 301 628 301 683 q 307 565 301 572 z "},"L":{"ha":651,"x_min":35,"x_max":643,"o":"m 79 964 q 127 965 90 965 q 206 965 164 965 q 282 963 247 964 q 321 960 317 961 q 340 938 340 953 q 322 889 340 924 l 303 853 l 300 597 q 299 391 299 472 q 299 261 299 310 q 301 192 299 213 q 306 165 303 171 q 325 146 314 150 q 371 142 336 142 q 431 146 407 142 q 474 160 456 150 q 506 186 493 169 q 532 229 519 203 q 560 274 549 263 q 588 286 571 285 q 631 257 617 286 q 636 219 635 249 q 639 155 638 190 q 640 87 640 119 q 640 40 640 54 q 640 15 643 25 q 631 3 638 6 q 606 2 629 3 q 544 1 582 1 q 454 -1 506 0 q 346 -1 403 -1 q 197 -2 253 -1 q 112 -2 142 -3 q 72 0 82 -1 q 58 3 61 1 q 43 14 47 8 q 39 31 39 19 q 42 45 39 39 q 60 65 46 51 q 81 88 74 79 q 90 128 88 97 q 92 228 93 160 q 92 426 92 296 q 92 549 92 489 q 91 657 92 608 q 90 739 90 706 q 88 782 89 772 q 78 851 85 826 q 60 888 72 876 q 35 929 35 910 q 44 949 35 939 q 58 958 51 956 q 79 964 64 961 z "},"M":{"ha":957,"x_min":29,"x_max":914,"o":"m 338 854 q 353 806 344 835 q 368 754 361 776 q 386 694 375 732 q 407 625 397 657 q 427 556 417 593 q 443 499 438 519 q 454 466 450 479 q 460 454 458 453 q 476 497 463 458 q 510 588 490 535 q 551 703 529 642 q 590 814 574 764 q 627 917 611 874 q 646 963 643 960 q 653 965 647 964 q 671 967 658 967 q 706 967 683 967 q 764 967 728 967 q 847 966 811 967 q 888 964 883 965 q 914 938 914 960 q 908 920 914 933 q 896 892 903 907 l 876 856 l 874 508 q 872 297 872 374 q 873 177 872 219 q 876 116 874 135 q 885 81 879 97 q 897 56 890 65 q 908 25 913 42 q 885 1 904 8 q 858 -3 878 -1 q 813 -6 839 -4 q 756 -6 786 -7 q 699 -4 726 -6 q 628 6 644 -1 q 613 35 613 14 q 617 49 613 42 q 635 69 621 56 q 652 91 646 82 q 661 114 658 100 q 665 151 664 128 q 667 217 667 175 q 667 290 667 250 q 667 370 667 329 q 666 449 667 411 q 665 517 665 488 q 663 563 664 546 q 663 579 663 581 q 654 556 661 576 q 638 507 647 535 q 616 447 628 479 q 596 394 604 414 q 575 339 589 374 q 550 274 561 304 q 534 234 540 249 q 524 211 528 219 q 516 199 519 203 q 508 193 513 196 q 480 181 497 185 q 443 178 463 178 q 398 183 419 178 q 363 200 376 189 q 342 227 349 213 q 328 271 335 242 q 315 322 324 288 q 294 397 306 357 q 273 474 283 436 q 257 531 263 511 l 244 574 l 242 525 q 241 494 242 515 q 240 444 240 472 q 239 382 239 415 q 239 315 239 349 q 239 235 239 268 q 240 179 239 203 q 242 140 240 156 q 244 114 243 125 q 264 50 250 58 q 267 33 267 47 q 264 13 267 19 q 244 -1 258 3 q 190 -6 231 -4 q 151 -6 171 -6 q 125 -6 132 -7 q 73 0 85 -3 q 53 10 61 3 q 63 71 29 33 q 72 83 68 78 q 78 101 75 89 q 81 137 81 114 q 83 201 82 160 q 83 307 83 243 q 83 465 83 371 q 83 655 83 586 q 83 761 83 724 q 81 814 82 799 q 78 840 81 829 q 69 872 74 860 q 57 896 65 883 q 42 931 42 918 q 53 956 42 944 q 65 963 58 960 q 87 967 72 965 q 126 969 101 968 q 189 969 150 969 q 256 968 233 969 q 283 964 278 967 q 303 947 294 960 q 317 917 313 933 q 325 892 319 910 q 338 854 331 874 z "},"N":{"ha":813,"x_min":32,"x_max":782,"o":"m 65 969 q 94 974 72 972 q 144 976 117 975 q 197 976 171 976 q 235 974 222 975 q 258 970 246 972 q 272 965 269 968 q 297 935 281 960 q 332 876 313 911 q 372 799 351 840 q 407 719 392 757 q 427 672 414 704 q 453 613 440 640 q 543 415 501 515 l 558 386 l 557 599 q 555 742 556 690 q 551 822 554 793 q 543 863 549 850 q 528 890 538 876 q 519 943 508 922 q 527 953 522 950 q 544 959 532 957 q 581 962 557 961 q 646 963 604 963 q 703 963 682 963 q 735 962 724 963 q 751 960 746 961 q 760 956 756 958 q 782 914 782 942 q 778 899 782 907 q 765 878 775 892 q 747 848 754 861 q 735 819 739 835 q 728 783 731 804 q 722 731 725 763 q 719 679 721 703 q 717 619 718 656 q 715 526 715 583 q 713 376 714 469 q 712 257 713 303 q 712 183 711 211 q 713 138 713 154 q 715 108 714 122 q 736 44 724 51 q 739 26 739 42 q 731 1 739 10 q 725 -5 728 -3 q 717 -8 722 -7 q 701 -10 711 -10 q 675 -11 692 -11 q 629 -12 656 -12 q 585 -11 603 -12 q 553 -9 567 -10 q 539 -8 540 -8 q 515 11 529 -7 q 488 51 501 29 q 462 93 474 72 q 446 122 450 114 q 437 140 443 125 q 422 172 431 154 q 410 198 418 181 q 392 238 403 215 q 370 284 382 260 q 347 333 358 308 q 323 383 335 358 q 301 430 311 408 q 283 469 290 451 q 271 494 275 486 l 254 538 l 251 506 q 251 481 251 500 q 250 435 250 463 q 249 376 250 408 q 249 311 249 344 q 249 231 249 264 q 249 174 249 197 q 251 134 250 150 q 254 107 253 118 q 274 44 260 51 q 276 28 276 42 q 274 7 276 14 q 254 -7 268 -4 q 201 -11 240 -10 q 161 -12 181 -12 q 135 -12 142 -12 q 83 -7 94 -10 q 64 3 71 -4 q 53 29 51 15 q 75 68 56 43 q 86 85 82 76 q 92 124 90 94 q 94 215 93 154 q 94 388 94 275 q 94 586 94 506 q 93 719 94 667 q 89 801 92 772 q 82 847 86 831 q 72 876 76 868 q 56 896 68 885 q 36 914 40 907 q 32 929 32 921 q 43 953 32 940 q 65 969 54 967 z "},"O":{"ha":800,"x_min":33,"x_max":778,"o":"m 33 460 q 49 602 33 529 q 92 733 64 675 q 152 825 115 782 q 235 899 189 868 q 336 949 282 931 q 449 967 390 967 q 549 951 496 967 q 659 881 611 933 q 735 753 707 829 q 770 584 763 678 q 758 389 778 490 q 714 253 746 325 q 633 119 682 181 q 522 18 585 58 q 386 -22 460 -22 q 297 -6 340 -22 q 217 37 254 10 q 151 99 181 64 q 100 175 121 135 q 74 240 86 204 q 52 313 61 275 q 38 389 43 351 q 33 460 33 426 m 242 506 q 239 483 240 493 q 236 459 238 472 q 235 428 235 446 q 235 385 235 411 q 235 326 235 350 q 240 282 236 301 q 249 245 243 263 q 263 207 254 228 q 283 166 275 179 q 304 144 292 153 q 317 138 311 139 q 332 139 322 138 q 393 163 365 143 q 444 212 421 183 q 485 272 468 240 q 515 331 503 303 q 535 392 524 349 q 558 492 547 436 q 575 608 569 547 q 574 717 581 668 q 547 799 568 767 q 485 831 526 831 q 328 717 413 831 q 303 676 315 700 q 278 622 290 651 q 257 563 267 593 q 242 506 247 533 z "},"P":{"ha":742,"x_min":33,"x_max":724,"o":"m 450 968 q 557 930 508 960 q 641 856 606 900 q 697 759 676 813 q 721 649 718 706 q 717 585 724 617 q 619 401 699 467 q 424 321 539 335 q 340 298 365 314 q 306 249 315 282 q 303 136 294 206 q 313 86 307 104 q 328 56 318 68 q 335 43 332 50 q 339 32 339 36 q 331 13 339 22 q 313 1 324 4 q 283 -3 307 -1 q 227 -5 258 -4 q 164 -5 196 -6 q 113 -3 132 -4 q 56 7 71 0 q 40 32 40 14 q 46 51 40 43 q 67 75 51 60 q 78 86 74 82 q 85 101 82 90 q 89 133 88 113 q 91 190 90 153 q 92 287 92 228 q 92 432 92 346 q 92 556 92 496 q 91 665 92 617 q 90 746 90 713 q 89 789 89 779 q 80 856 86 832 q 58 894 74 879 q 36 928 39 914 q 49 956 33 942 q 62 965 56 963 q 88 969 68 967 q 129 972 100 971 q 195 973 158 972 q 273 973 232 974 q 351 972 314 972 q 415 970 388 971 q 450 968 442 969 m 493 476 q 542 639 553 542 q 522 727 535 692 q 486 790 510 763 q 460 815 476 803 q 424 838 443 828 q 385 853 406 847 q 349 856 365 858 q 331 851 338 853 q 318 842 325 849 q 306 818 308 829 q 303 760 304 813 q 303 638 303 708 l 303 468 q 315 440 304 447 q 339 428 326 432 q 378 426 351 424 q 428 435 406 428 q 463 449 450 442 q 493 476 475 457 z "},"Q":{"ha":847,"x_min":29,"x_max":828,"o":"m 74 279 q 35 453 42 365 q 50 625 29 542 q 104 760 68 696 q 189 872 140 824 q 297 949 238 921 q 421 978 356 978 q 534 954 476 978 q 650 878 592 931 q 731 754 699 835 q 776 581 764 674 q 774 394 788 488 q 717 233 761 301 q 675 174 694 201 q 634 124 656 147 q 586 83 613 101 q 524 47 560 64 l 506 39 l 524 36 q 557 35 539 35 q 594 40 575 36 q 633 49 614 43 q 665 63 651 54 q 689 77 681 69 q 711 101 697 85 q 726 118 721 115 q 742 121 731 121 q 807 82 786 121 q 813 -10 828 43 q 777 -72 803 -42 q 724 -114 751 -103 q 694 -121 714 -118 q 654 -124 675 -124 q 592 -117 617 -124 q 568 -108 579 -112 q 542 -97 557 -104 q 507 -80 528 -90 q 456 -53 486 -69 q 367 -8 399 -21 q 310 4 335 4 q 292 3 300 4 q 274 -1 283 1 q 254 -8 261 -4 q 243 -17 247 -11 q 238 -33 239 -22 q 233 -61 236 -43 q 217 -103 231 -87 q 175 -119 203 -119 q 125 -93 150 -119 q 106 -64 110 -78 q 103 -25 101 -50 q 131 40 106 11 q 201 85 157 69 q 206 90 208 88 q 183 110 200 93 q 122 181 151 136 q 74 279 93 225 m 250 389 q 254 305 249 340 q 272 238 260 269 q 342 169 299 169 q 386 181 364 169 q 428 210 408 193 q 466 247 449 228 q 493 283 483 267 q 509 312 500 293 q 527 351 518 331 q 544 391 536 372 q 554 419 551 410 q 560 442 557 429 q 568 465 564 456 q 580 515 575 486 q 586 576 585 544 q 586 640 588 608 q 579 697 585 671 q 565 741 575 719 q 544 780 556 763 q 520 809 533 797 q 496 824 507 821 q 465 822 483 826 q 431 806 447 817 q 347 728 382 776 q 291 621 313 679 q 260 502 269 563 q 250 389 250 442 z "},"R":{"ha":761,"x_min":32,"x_max":735,"o":"m 57 888 q 35 922 38 908 q 47 949 32 935 q 60 959 54 957 q 85 963 67 961 q 124 964 93 964 q 194 964 154 964 q 281 963 235 964 q 367 962 328 963 q 433 960 406 961 q 465 960 461 960 q 578 909 528 947 q 663 818 629 871 q 710 702 696 765 q 715 578 725 639 q 617 393 696 456 q 592 372 597 378 q 581 354 586 365 q 578 344 579 350 q 583 324 578 339 q 598 281 588 310 q 629 201 608 253 q 648 154 642 171 q 660 127 654 138 q 674 108 667 117 q 694 86 682 100 q 728 44 722 58 q 728 15 735 29 q 718 6 724 10 q 699 -1 713 1 q 662 -3 685 -3 q 600 -4 639 -4 q 536 -3 558 -4 q 503 0 514 -3 q 487 10 492 3 q 478 31 482 18 q 467 63 475 38 q 448 120 458 88 q 427 186 438 153 q 410 243 417 219 q 393 282 403 271 q 368 293 383 293 q 338 284 357 293 q 310 264 319 275 q 301 249 303 257 q 299 211 300 242 q 301 140 297 178 q 311 81 304 101 q 318 65 314 74 q 326 49 322 56 q 334 37 331 43 q 338 26 338 31 q 330 7 338 17 q 311 -6 322 -3 q 281 -8 306 -7 q 226 -10 257 -10 q 163 -11 194 -11 q 113 -10 132 -11 q 54 1 69 -7 q 39 26 39 8 q 44 46 39 38 q 65 69 50 54 q 81 86 75 78 q 88 126 86 94 q 90 227 90 158 q 90 426 90 296 q 90 550 90 490 q 90 658 90 610 q 88 739 89 706 q 88 782 88 772 q 78 849 85 825 q 57 888 72 872 m 304 811 q 303 794 304 810 q 302 753 303 778 q 301 697 301 729 q 301 631 301 665 q 301 535 301 569 q 302 484 301 501 q 304 461 303 467 q 308 451 306 456 q 331 436 318 440 q 376 433 347 431 q 424 442 404 435 q 486 486 461 457 q 524 553 511 515 q 537 631 536 590 q 526 706 538 671 q 481 789 511 754 q 400 840 450 824 q 369 849 379 847 q 347 849 360 851 q 330 844 336 847 q 317 835 324 842 q 304 811 307 822 z "},"S":{"ha":726,"x_min":33,"x_max":690,"o":"m 68 819 q 83 842 72 829 q 106 868 93 854 q 132 894 118 882 q 158 915 146 907 q 201 941 181 931 q 244 958 222 951 q 293 969 267 965 q 351 975 319 974 q 464 967 410 978 q 554 935 518 956 q 637 869 597 908 q 683 776 676 829 q 656 678 690 718 q 563 639 622 639 q 514 651 538 639 q 475 683 490 663 q 456 729 460 703 q 465 785 451 756 q 477 816 475 804 q 474 839 479 828 q 448 860 467 854 q 410 865 429 865 q 381 863 394 865 q 360 857 368 861 q 303 802 319 838 q 308 726 288 767 q 356 658 328 692 q 415 592 383 624 q 481 533 447 561 q 544 479 514 504 q 658 353 621 417 q 683 290 678 321 q 683 217 689 258 q 640 103 676 150 q 549 28 603 57 q 433 -15 496 -1 q 313 -28 371 -28 q 218 -18 264 -28 q 135 13 172 -8 q 74 68 99 35 q 40 147 49 101 q 42 217 33 188 q 67 265 50 246 q 109 294 85 285 q 158 303 133 303 q 234 278 200 303 q 268 206 268 254 q 265 187 268 199 q 258 164 263 175 q 260 100 243 119 q 308 81 278 81 q 387 108 351 81 q 422 182 422 136 q 418 213 422 199 q 403 242 414 226 q 374 276 393 257 q 324 324 354 296 q 272 372 299 347 q 223 420 246 397 q 182 463 200 443 q 156 493 164 482 q 138 515 149 503 q 118 538 126 528 q 99 563 110 547 q 82 592 89 579 q 47 703 53 646 q 68 819 40 761 z "},"T":{"ha":694,"x_min":7,"x_max":688,"o":"m 444 465 q 444 308 444 372 q 444 202 443 244 q 447 135 444 160 q 452 95 449 110 q 460 72 456 81 q 474 56 465 64 q 488 38 485 44 q 492 25 492 32 q 487 4 492 14 q 475 -8 482 -6 q 326 -10 464 -14 q 267 -8 296 -8 q 229 -6 239 -7 q 185 42 175 1 q 191 52 185 44 q 206 68 197 60 q 219 84 213 75 q 229 99 226 93 q 232 118 231 103 q 234 168 233 133 q 235 261 235 203 q 235 411 235 319 q 235 596 235 525 q 234 708 235 667 q 231 768 233 750 q 224 792 228 786 q 215 798 221 794 q 204 804 210 801 q 133 786 181 811 q 117 773 122 779 q 101 747 111 767 q 78 713 90 725 q 58 700 67 700 q 34 709 47 700 q 17 728 21 718 q 10 766 13 738 q 7 826 7 794 q 8 888 7 858 q 14 926 10 917 q 61 965 28 961 q 90 966 64 965 q 157 967 115 967 q 252 966 199 967 q 364 965 306 965 q 547 965 485 965 q 635 961 608 964 q 665 953 661 958 q 675 936 669 947 q 687 865 686 915 q 676 747 688 814 q 663 715 674 729 q 633 700 653 700 q 610 707 618 700 q 590 736 601 714 q 503 818 547 818 q 454 790 468 818 l 446 774 l 444 465 z "},"U":{"ha":757,"x_min":15,"x_max":732,"o":"m 314 910 q 297 874 303 892 q 283 821 290 857 q 281 795 282 810 q 279 748 279 781 q 280 658 279 715 q 282 503 281 600 q 286 284 285 361 q 289 200 288 207 q 318 151 297 169 q 369 129 339 132 q 426 138 406 126 q 463 178 447 150 q 476 205 471 193 q 483 233 481 217 q 485 274 485 250 q 483 336 485 297 q 483 387 483 356 q 481 456 482 418 q 480 534 481 493 q 479 613 479 575 q 478 686 479 650 q 478 751 478 722 q 477 801 478 781 q 476 829 476 822 q 469 871 475 857 q 449 906 464 885 q 433 941 433 925 q 444 963 432 957 q 485 965 447 964 q 576 967 524 965 q 655 967 626 967 q 697 965 683 967 q 715 960 711 964 q 722 949 719 956 q 706 897 732 932 q 694 883 699 889 q 686 867 689 878 q 682 840 683 857 q 680 790 681 822 q 678 706 679 757 q 676 579 678 656 q 674 391 675 463 q 672 276 674 319 q 666 213 669 233 q 657 175 663 192 q 613 84 640 121 q 542 22 585 47 q 459 -10 501 0 q 371 -19 417 -19 q 270 -6 319 -19 q 181 38 221 8 q 116 111 142 67 q 85 217 90 156 q 83 245 85 226 q 81 297 82 264 q 79 377 81 329 q 78 492 78 425 q 76 656 78 588 q 74 770 75 725 q 69 840 72 815 q 64 875 67 865 q 56 890 61 882 q 46 904 51 897 q 56 961 15 942 q 102 968 64 964 q 185 974 140 972 q 233 974 204 974 q 287 968 263 974 q 322 949 311 963 q 314 910 332 936 z "},"V":{"ha":835,"x_min":-10,"x_max":842,"o":"m 375 910 q 352 888 360 897 q 342 869 344 879 q 343 842 340 858 q 351 799 346 826 q 373 711 363 757 q 400 594 383 665 q 414 536 407 565 q 424 496 421 507 q 433 458 426 485 q 444 406 439 432 q 463 331 456 364 q 478 269 471 299 q 485 256 481 260 q 492 258 489 253 q 497 273 493 260 q 503 304 500 286 q 513 352 507 322 q 525 406 519 382 q 546 501 536 454 q 567 599 556 549 q 576 641 571 617 q 585 681 582 665 q 608 781 600 746 q 617 836 615 817 q 615 867 618 856 q 603 893 611 878 q 592 940 588 924 q 624 969 596 957 q 635 973 629 972 q 651 974 640 974 q 678 975 661 975 q 724 975 696 975 q 777 974 757 975 q 808 972 797 974 q 824 966 819 969 q 832 957 829 963 q 814 907 842 939 q 783 856 796 885 q 754 768 771 826 q 740 715 747 740 q 729 678 732 689 q 723 653 726 667 q 717 629 719 639 q 710 601 714 619 q 701 565 706 582 q 680 478 693 536 q 643 322 667 419 q 610 181 624 235 q 586 96 597 128 q 564 47 575 64 q 538 17 553 31 q 511 1 526 6 q 468 -7 496 -4 q 451 -9 457 -8 q 440 -10 444 -10 q 429 -9 435 -10 q 414 -7 424 -8 q 360 10 382 -3 q 324 42 339 22 q 301 85 310 61 q 283 139 292 110 q 273 176 278 158 q 265 200 268 193 q 256 231 264 206 q 235 294 247 257 q 208 376 222 332 q 182 460 194 419 q 159 533 169 501 q 144 579 149 565 q 117 667 125 640 q 104 708 108 693 q 94 739 101 715 q 79 788 86 763 q 67 826 72 811 q 56 849 61 840 q 46 862 51 857 q 32 871 40 867 q 20 879 26 874 q 10 889 14 885 q 6 929 -10 913 q 57 956 21 946 q 142 969 93 965 q 239 974 192 974 q 326 970 288 974 q 376 960 364 967 q 390 951 388 954 q 394 939 393 947 q 393 925 396 929 q 375 910 390 921 z "},"W":{"ha":1407,"x_min":-14,"x_max":1407,"o":"m 376 894 q 353 874 361 882 q 344 854 346 865 q 344 827 342 843 q 354 783 347 811 q 378 684 367 731 q 401 579 389 638 q 425 485 414 532 q 446 392 436 439 q 465 311 458 340 q 475 269 471 282 q 481 253 479 256 q 486 253 483 251 q 494 261 490 256 q 501 282 497 267 q 513 327 506 297 q 531 407 519 357 q 540 451 533 425 q 550 496 546 476 q 569 585 560 539 q 588 673 579 631 q 604 749 597 715 q 615 800 611 782 q 619 840 622 828 q 596 865 615 851 q 572 892 578 879 q 571 924 567 904 q 578 944 574 939 q 601 956 583 949 q 615 960 608 958 q 632 963 621 961 q 661 964 643 964 q 708 964 679 964 q 792 963 753 964 q 865 960 832 963 q 919 956 897 958 q 946 951 940 954 q 962 938 954 949 q 969 921 969 928 q 960 909 969 918 q 940 889 951 900 q 915 863 918 869 q 911 846 911 857 q 915 821 911 839 q 922 783 918 803 q 946 684 935 731 q 971 579 957 638 q 985 522 978 551 q 994 482 992 493 q 1003 444 997 471 q 1015 392 1008 417 q 1029 335 1022 365 q 1040 286 1036 304 q 1047 254 1044 268 q 1050 238 1050 240 q 1056 232 1050 232 q 1067 258 1061 232 q 1074 290 1069 269 q 1081 325 1078 310 q 1090 365 1085 342 q 1099 407 1096 389 q 1108 451 1103 425 q 1118 496 1114 476 q 1144 613 1133 560 q 1163 699 1156 667 q 1172 741 1167 717 q 1181 782 1178 765 q 1187 813 1185 800 q 1188 835 1189 825 q 1183 856 1186 846 q 1174 879 1181 867 q 1163 926 1158 910 q 1194 956 1167 943 q 1205 959 1199 958 q 1222 960 1211 960 q 1249 961 1232 961 q 1293 961 1265 961 q 1348 960 1328 961 q 1380 958 1368 960 q 1396 951 1392 956 q 1403 940 1400 947 q 1400 913 1407 932 q 1378 872 1393 893 q 1342 801 1358 844 q 1311 709 1325 757 q 1288 615 1297 661 q 1271 535 1278 568 q 1255 460 1265 504 q 1233 365 1244 415 q 1206 261 1221 314 q 1176 160 1192 208 q 1143 74 1160 113 q 1110 13 1126 35 q 1097 1 1106 7 q 1078 -11 1088 -6 q 1064 -17 1069 -15 q 1052 -20 1058 -19 q 1038 -22 1046 -21 q 1017 -22 1031 -22 q 947 -12 974 -22 q 902 18 919 -1 q 873 68 885 38 q 850 138 861 99 q 840 173 844 157 q 832 194 835 189 q 826 212 831 197 q 813 251 821 226 q 796 306 806 275 q 775 372 786 338 q 756 438 765 407 q 738 492 746 468 q 726 530 731 515 q 721 546 721 544 q 717 544 719 549 q 710 524 715 540 q 697 475 706 507 q 674 389 689 443 q 661 342 667 361 q 654 321 656 322 q 647 298 653 318 q 635 250 642 278 q 593 113 615 175 q 556 24 571 50 q 531 -4 547 8 q 501 -19 514 -17 q 456 -23 483 -22 q 414 -21 429 -24 q 334 17 361 -14 q 285 125 307 49 q 274 160 279 143 q 267 185 269 178 q 256 217 265 190 q 235 283 247 244 q 208 365 222 321 q 182 450 194 410 q 160 522 169 490 q 146 565 150 553 q 135 600 140 582 q 126 626 129 618 q 113 667 124 633 q 90 739 103 700 q 67 811 76 783 q 54 842 57 839 q 33 857 47 851 q 22 865 28 860 q 11 875 15 871 q 13 932 -14 904 l 22 943 l 101 946 q 172 949 133 947 q 229 953 210 951 q 358 953 319 960 q 396 924 396 946 q 392 910 396 915 q 376 894 389 906 z "},"X":{"ha":782,"x_min":11,"x_max":769,"o":"m 93 276 q 140 340 114 308 q 215 424 167 371 q 260 476 247 458 q 272 504 272 493 q 263 528 272 507 q 242 576 254 550 q 220 626 231 603 q 207 654 210 649 q 190 695 200 674 q 174 731 181 717 q 158 764 167 743 q 143 801 150 785 q 123 850 131 832 q 106 881 115 868 q 86 906 97 894 q 56 931 75 917 q 44 943 46 939 q 42 956 42 947 q 79 982 44 982 q 140 981 99 982 q 224 978 181 981 q 302 974 268 976 q 340 971 336 972 q 351 931 379 960 q 340 915 342 919 q 339 888 338 910 q 342 858 339 868 q 356 824 344 847 q 369 792 361 811 q 387 752 378 772 q 404 713 396 732 q 418 683 413 694 q 429 667 425 668 q 445 671 436 663 q 472 704 454 679 q 509 764 497 740 q 526 815 521 788 q 531 847 531 836 q 529 876 532 857 q 525 919 526 900 q 526 944 524 938 q 568 965 532 956 q 647 974 604 974 q 717 964 694 974 q 754 929 740 954 q 768 869 769 897 q 747 804 767 842 q 725 768 738 786 q 690 724 713 750 q 631 659 667 697 q 542 564 596 621 q 515 534 524 546 q 506 507 506 522 q 516 468 506 492 q 546 401 526 444 q 569 352 553 386 q 600 285 585 318 q 658 156 638 200 q 688 90 678 111 q 704 65 699 69 q 718 54 710 61 q 749 22 742 35 q 747 -1 756 10 q 743 -6 746 -4 q 734 -8 740 -7 q 715 -8 728 -8 q 682 -7 703 -7 q 576 -5 621 -4 q 507 -8 531 -6 q 485 -8 496 -8 q 468 -7 474 -8 q 444 11 449 -3 q 453 38 439 25 q 465 46 460 46 q 468 68 469 46 q 460 107 467 90 q 440 152 457 117 q 404 228 424 188 q 366 305 378 282 q 344 328 354 328 q 332 319 338 328 q 315 297 326 311 q 261 189 276 244 q 260 96 246 133 q 265 56 265 81 q 260 21 265 32 q 236 3 251 8 q 183 -3 221 -1 q 123 -1 144 -4 q 78 14 101 3 q 31 48 46 29 q 14 97 17 67 q 24 163 11 125 q 58 228 36 200 q 72 247 63 233 q 93 276 82 261 z "},"Y":{"ha":721,"x_min":-10,"x_max":736,"o":"m 290 972 q 301 933 328 963 q 290 917 292 922 q 289 889 288 911 q 292 859 289 869 q 306 825 294 849 q 319 793 311 813 q 337 753 328 774 q 354 715 346 733 q 368 686 363 697 q 374 674 371 679 q 379 668 376 669 q 395 673 386 665 q 421 706 404 681 q 459 765 447 742 q 476 817 471 789 q 481 849 481 839 q 478 882 481 860 q 474 923 475 908 q 478 946 474 938 q 495 959 483 954 q 528 969 507 964 q 596 976 551 976 q 643 974 619 976 q 686 964 667 971 q 719 945 706 957 q 733 917 732 933 q 708 826 736 881 q 606 683 679 771 q 576 642 597 674 q 530 574 554 610 q 485 507 506 539 q 461 465 465 475 q 443 414 450 443 q 432 353 436 385 q 429 303 431 340 q 428 224 428 265 q 428 147 428 182 q 431 103 429 111 q 440 62 433 79 q 457 32 447 44 q 471 13 471 15 q 463 3 471 11 q 421 -10 451 -7 q 315 -10 390 -12 q 236 -4 253 -8 q 221 14 219 0 q 228 31 224 24 q 235 44 232 36 q 241 65 239 51 q 245 99 243 78 q 249 150 247 119 q 251 229 250 183 q 253 306 251 275 q 249 374 253 342 q 240 435 246 406 q 223 495 233 465 q 197 558 213 525 q 190 576 194 567 q 185 590 186 586 q 172 622 181 601 q 155 663 164 642 q 137 704 146 685 q 124 733 128 724 q 108 766 117 746 q 93 803 100 786 q 73 852 81 833 q 56 884 65 871 q 36 908 47 897 q 6 933 25 918 q -7 944 -4 940 q -8 957 -10 949 q 29 985 -6 985 q 90 983 49 985 q 174 980 131 982 q 252 976 218 978 q 290 972 286 974 z "},"Z":{"ha":700,"x_min":25,"x_max":675,"o":"m 590 754 q 553 685 569 717 q 517 613 536 653 q 474 515 499 572 q 413 369 450 458 q 341 196 363 250 q 319 135 319 142 q 337 103 319 114 q 383 92 354 92 q 502 123 450 92 q 589 211 554 154 q 638 251 613 251 q 655 244 646 251 q 667 228 664 238 q 667 193 668 224 q 665 124 667 163 q 665 71 665 90 q 663 41 664 51 q 659 26 661 31 q 654 15 657 21 q 643 1 649 6 q 617 -6 638 -4 q 551 -9 596 -8 q 425 -10 507 -10 q 343 -10 385 -10 q 264 -10 301 -10 q 197 -9 226 -10 q 151 -8 168 -8 q 86 -4 106 -6 q 56 1 67 -3 q 25 33 25 11 q 38 67 25 38 q 72 140 51 96 q 119 237 93 183 q 169 342 144 290 q 211 427 190 385 q 240 488 232 469 q 279 576 256 524 q 335 693 303 628 q 360 747 346 717 q 381 797 374 778 q 394 835 390 821 q 394 858 397 850 q 382 868 392 865 q 354 872 372 871 q 287 869 324 875 q 226 853 250 864 q 114 751 144 815 q 101 726 106 733 q 89 717 96 719 q 43 743 61 707 q 36 767 38 754 q 33 817 35 779 q 37 917 31 885 q 63 960 43 949 q 76 963 67 963 q 117 965 86 964 q 206 966 147 965 q 365 968 265 967 l 657 969 l 664 961 q 675 936 674 951 q 675 926 675 931 q 673 914 675 921 q 665 897 671 907 q 651 868 660 886 q 623 815 640 849 q 590 754 606 782 z "},"[":{"ha":386,"x_min":68,"x_max":349,"o":"m 349 14 q 343 -8 349 -4 q 306 -10 340 -10 q 224 -11 271 -11 q 160 -11 183 -11 q 124 -10 136 -11 q 106 -8 111 -10 q 97 -4 101 -7 q 68 40 72 10 q 68 85 68 46 q 69 186 68 125 q 71 324 69 247 q 74 481 72 401 q 77 638 75 561 q 81 774 79 714 q 83 872 82 835 q 85 913 83 910 q 114 951 93 940 q 126 955 119 954 q 144 957 132 956 q 179 958 157 958 q 238 958 201 958 l 346 958 l 346 933 l 289 931 q 256 930 268 931 q 238 928 244 929 q 228 926 232 928 q 222 921 225 924 q 215 912 218 918 q 210 901 211 906 q 208 864 208 899 q 206 773 207 829 q 205 646 206 717 q 203 501 204 575 q 203 355 203 426 q 203 226 203 283 q 203 130 203 168 q 204 86 203 92 q 233 33 208 49 q 252 28 240 29 q 296 25 264 26 l 347 24 l 349 14 z "},"\\":{"ha":679,"x_min":68,"x_max":611,"o":"m 585 71 q 603 22 596 43 q 610 -1 611 1 q 599 -7 610 -6 q 553 -8 589 -8 q 505 -8 521 -10 q 482 -4 489 -7 q 453 17 468 1 q 426 50 438 32 q 409 93 425 54 q 368 194 393 132 q 310 339 343 257 q 242 513 278 421 q 160 722 193 636 q 106 860 126 807 q 76 936 85 913 q 69 961 68 960 q 84 965 72 964 q 135 965 96 967 q 182 964 161 965 q 208 961 203 963 q 224 952 217 958 q 238 933 231 946 q 256 899 246 921 q 279 840 265 876 q 430 455 354 646 q 585 71 506 264 z "},"]":{"ha":385,"x_min":36,"x_max":315,"o":"m 301 917 q 303 873 301 913 q 306 772 304 833 q 308 633 307 710 q 310 475 310 556 q 313 318 311 394 q 315 181 314 242 q 315 81 315 119 q 315 39 315 42 q 306 8 313 24 q 292 -12 299 -8 q 283 -16 289 -15 q 263 -17 276 -17 q 226 -18 249 -18 q 165 -18 203 -18 q 80 -17 115 -18 q 42 -15 44 -17 q 36 11 36 -11 q 44 17 36 15 q 89 18 53 18 q 150 22 135 18 q 174 39 165 25 q 178 53 176 43 q 180 103 179 63 q 180 228 181 143 q 179 469 179 314 q 178 676 179 594 q 177 806 178 758 q 176 874 176 854 q 174 899 175 894 q 153 917 168 913 q 92 924 138 922 l 39 926 l 39 950 l 147 951 q 227 952 192 953 q 267 950 263 951 q 290 938 281 947 q 301 917 299 929 z "},"^":{"ha":593,"x_min":40,"x_max":551,"o":"m 479 738 q 518 683 504 704 q 540 650 532 663 q 549 630 547 638 q 551 614 551 622 q 528 581 551 585 q 460 579 478 574 q 435 588 446 582 q 411 607 424 594 q 383 640 399 619 q 346 693 368 660 q 312 740 326 721 q 294 761 297 760 q 281 758 288 764 q 258 728 274 751 q 183 627 214 661 q 128 586 151 593 q 113 583 124 585 q 92 582 103 582 q 70 582 81 582 q 54 583 60 582 q 42 607 43 586 q 51 649 40 628 q 70 678 54 656 q 109 731 86 700 q 158 796 132 761 q 207 861 183 831 q 248 914 231 892 q 271 942 265 936 q 294 960 286 957 q 311 957 301 963 q 326 942 315 954 q 356 903 336 929 q 406 837 375 878 q 479 738 436 796 z "},"_":{"ha":700,"x_min":40,"x_max":660,"o":"m 660 29 l 628 26 q 577 26 614 26 q 492 25 540 25 q 390 25 443 25 q 292 26 338 25 q 215 27 246 26 q 178 28 183 28 q 97 60 133 35 q 47 131 61 85 q 40 163 40 154 l 42 171 l 244 172 q 404 172 344 172 q 500 169 464 172 q 556 160 536 165 q 597 143 576 154 q 638 105 621 131 q 657 50 654 79 l 660 29 z "},"`":{"ha":286,"x_min":47,"x_max":238,"o":"m 238 874 q 236 848 238 857 q 231 831 235 839 q 209 805 224 818 q 181 785 194 792 q 190 749 149 771 q 208 728 213 738 q 183 719 203 719 q 156 724 171 719 q 75 778 103 742 q 47 867 47 814 q 72 942 47 911 q 143 974 96 974 q 212 944 186 974 q 238 874 238 914 z "},"a":{"ha":756,"x_min":31,"x_max":736,"o":"m 724 35 q 736 8 736 21 q 732 -7 736 -3 q 717 -17 728 -11 q 696 -21 711 -19 q 662 -24 681 -22 q 624 -24 643 -25 q 592 -22 604 -24 q 508 8 539 -15 q 474 67 476 31 q 473 74 474 71 q 472 79 472 76 l 471 85 q 463 79 469 85 q 449 67 457 74 q 360 10 404 31 q 257 -14 315 -11 q 154 1 200 -17 q 79 54 108 19 q 40 138 50 89 q 44 246 31 188 q 101 355 60 307 q 200 426 142 403 q 229 437 215 433 q 261 443 243 440 q 303 447 279 446 q 358 447 326 447 q 415 447 390 447 q 442 449 439 447 q 456 470 453 453 q 461 539 460 488 q 463 585 463 567 q 460 614 463 603 q 454 633 458 625 q 443 650 450 642 q 404 681 428 671 q 354 692 381 692 q 307 682 328 692 q 246 622 263 661 q 249 544 229 583 q 256 524 256 533 q 242 485 256 506 q 208 453 228 464 q 169 440 193 443 q 129 440 146 436 q 74 479 89 451 q 62 540 58 507 q 81 607 65 574 q 119 663 97 640 q 226 735 164 708 q 353 761 289 761 q 490 735 422 761 q 599 656 558 708 q 648 555 631 614 q 664 428 665 496 q 665 372 664 406 q 669 301 667 338 q 673 228 671 264 q 678 168 675 193 q 683 122 681 142 q 692 88 686 103 q 705 61 697 74 q 724 35 713 49 m 453 185 q 457 212 456 192 q 458 256 458 232 q 458 302 458 279 q 454 335 457 325 q 434 361 449 354 q 400 368 419 368 q 319 339 353 368 q 272 265 286 310 q 268 176 257 215 q 314 121 279 138 q 349 117 328 115 q 390 131 371 119 q 428 158 410 142 q 453 185 447 174 z "},"b":{"ha":708,"x_min":11,"x_max":672,"o":"m 339 682 q 478 653 417 678 q 583 586 540 628 q 649 490 625 544 q 672 371 672 435 q 651 213 672 282 q 581 98 629 144 q 458 27 533 51 q 276 3 383 3 q 190 3 225 3 q 133 3 156 3 q 99 5 111 4 q 82 7 88 6 q 43 51 39 18 q 48 71 44 58 q 56 94 51 83 l 67 121 l 71 333 q 74 515 74 429 q 73 667 74 600 q 70 775 72 733 q 65 825 68 817 q 56 840 63 831 q 43 857 50 850 q 16 896 21 885 q 19 925 11 907 q 42 947 26 940 q 96 956 57 953 q 123 959 107 956 q 157 965 139 963 q 193 971 175 968 q 228 974 211 974 q 255 970 239 974 q 275 953 271 967 q 274 931 276 949 q 268 889 272 913 q 264 859 265 872 q 261 832 263 846 q 260 802 260 818 q 260 763 260 786 q 260 710 260 732 q 263 686 261 688 q 283 684 264 683 q 339 682 303 685 m 483 354 q 476 445 483 399 q 448 529 469 492 q 388 589 426 567 q 288 606 350 611 q 266 601 271 604 q 258 592 261 599 q 256 553 257 589 q 255 463 256 517 q 253 348 254 410 q 253 233 253 286 q 255 142 254 179 q 257 100 256 104 q 267 90 260 92 q 306 88 274 88 q 399 111 364 88 q 453 172 435 135 q 478 258 472 210 q 483 354 483 306 z "},"c":{"ha":704,"x_min":31,"x_max":672,"o":"m 608 181 q 636 179 621 186 q 658 157 651 172 q 664 138 663 150 q 665 112 665 125 q 664 87 665 99 q 658 68 663 75 q 602 15 640 35 q 519 -16 564 -6 q 429 -28 475 -26 q 350 -25 383 -29 q 231 8 285 -18 q 138 73 178 33 q 74 164 99 113 q 39 272 49 215 q 35 381 31 325 q 60 493 40 438 q 108 581 76 540 q 181 654 140 622 q 270 707 222 686 q 368 735 318 728 q 469 734 419 742 q 560 703 519 726 q 630 640 601 679 q 667 546 658 600 q 654 471 672 506 q 606 414 636 436 q 522 383 563 383 q 457 419 478 383 q 463 521 436 456 q 482 585 476 553 q 458 646 488 618 q 428 666 446 657 q 397 675 410 675 q 360 665 381 675 q 322 636 340 654 q 287 595 303 618 q 260 547 271 572 q 231 414 236 485 q 246 276 226 343 q 276 203 257 239 q 323 139 294 167 q 390 94 351 111 q 476 75 428 76 q 512 78 493 75 q 545 90 531 82 q 569 110 560 99 q 579 139 579 122 q 587 167 581 158 q 608 181 593 176 z "},"d":{"ha":708,"x_min":32,"x_max":696,"o":"m 669 857 q 651 834 657 843 q 641 808 644 825 q 637 760 638 790 q 635 671 636 729 q 635 601 635 642 q 635 515 635 561 q 635 420 635 469 q 638 325 636 371 l 642 114 l 653 88 q 660 64 657 76 q 664 44 664 51 q 665 28 667 33 q 656 17 663 24 q 640 4 649 8 q 610 -2 632 0 q 549 -5 589 -4 q 440 -6 510 -6 q 376 -6 407 -6 q 320 -5 344 -6 q 280 -3 296 -4 q 260 -1 264 -3 q 156 42 200 8 q 85 121 113 75 q 45 221 58 167 q 32 325 32 275 q 65 489 33 411 q 171 619 97 567 q 240 658 208 646 q 303 674 271 669 q 371 676 336 678 q 449 675 406 675 l 449 711 q 449 771 449 747 q 447 813 449 794 q 444 847 446 832 q 439 882 443 863 q 433 923 435 904 q 432 946 431 942 q 446 960 435 956 q 481 967 460 967 q 550 958 513 967 q 611 947 588 950 q 666 939 651 944 q 689 917 681 933 q 692 889 696 901 q 669 857 688 876 m 447 85 q 455 176 453 92 q 456 408 457 261 q 450 585 453 578 q 442 594 447 592 q 422 599 438 596 q 349 594 381 606 q 292 557 317 582 q 252 497 268 532 q 228 426 236 463 q 221 390 222 407 q 219 342 219 374 q 223 271 219 299 q 238 211 226 243 q 261 158 246 183 q 297 115 276 133 q 343 87 317 97 q 400 78 369 76 q 435 79 426 78 q 447 85 444 81 z "},"e":{"ha":731,"x_min":32,"x_max":701,"o":"m 693 157 q 700 114 701 139 q 689 74 699 89 q 638 24 672 44 q 561 -9 603 4 q 478 -28 519 -22 q 406 -35 436 -35 q 266 -11 332 -35 q 149 58 200 13 q 67 173 99 104 q 32 331 36 242 q 33 368 32 351 q 36 401 33 385 q 44 437 39 418 q 60 482 50 456 q 115 578 78 533 q 199 656 151 622 q 303 708 247 689 q 414 726 358 726 q 531 701 475 726 q 631 618 588 676 q 653 565 649 594 q 652 508 657 536 q 636 456 647 481 q 610 418 625 432 q 555 385 585 393 q 493 374 525 378 q 428 365 461 371 q 364 339 396 360 q 299 246 306 303 q 310 175 294 207 q 353 121 326 143 q 415 87 381 99 q 486 75 450 75 q 567 93 531 75 q 604 143 608 115 q 624 181 600 169 q 650 188 638 188 q 693 157 681 188 m 238 360 q 286 408 249 379 q 374 467 324 438 q 418 494 401 483 q 444 511 435 504 q 459 524 454 518 q 469 536 464 529 q 481 574 482 553 q 470 615 481 596 q 442 646 460 633 q 399 658 424 658 q 339 640 365 658 q 292 592 313 621 q 259 532 272 564 q 239 472 246 500 q 231 432 235 454 q 226 391 228 410 q 224 360 224 372 q 229 347 225 347 l 232 351 q 238 360 235 354 z "},"f":{"ha":601,"x_min":15,"x_max":651,"o":"m 571 896 q 603 718 651 813 q 557 675 588 693 q 503 661 526 657 q 474 675 490 664 q 450 697 457 686 q 443 711 444 704 q 443 731 442 718 q 446 756 443 746 q 461 799 449 767 q 467 828 468 818 q 450 853 465 838 q 388 879 425 879 q 342 869 363 879 q 310 849 322 861 q 292 814 299 836 q 283 758 285 792 q 281 675 281 725 l 282 599 l 290 592 q 309 585 296 588 q 358 581 322 583 q 392 578 381 579 q 410 576 404 576 q 417 573 415 575 q 418 567 418 571 q 386 549 419 549 q 344 544 369 549 q 303 533 318 540 q 293 526 299 531 q 285 518 288 522 q 281 508 282 514 q 278 482 279 503 q 276 420 276 461 q 274 306 275 379 q 272 176 272 222 q 274 105 272 129 q 280 71 276 81 q 290 51 283 61 q 304 27 301 36 q 304 7 307 18 q 286 -11 300 -6 q 276 -15 281 -14 q 258 -15 271 -15 q 223 -15 246 -15 q 157 -12 200 -14 q 103 -10 122 -11 q 73 -6 83 -8 q 58 -1 63 -4 q 49 6 53 1 q 38 29 36 17 q 56 61 40 42 q 68 81 63 71 q 75 94 74 90 q 76 116 75 97 q 77 165 76 135 q 78 233 78 194 q 79 315 79 272 q 79 444 79 399 q 78 512 79 490 q 73 538 76 533 q 63 544 69 543 q 57 576 15 556 q 70 584 64 581 q 78 590 76 588 q 80 607 79 592 q 81 643 81 622 q 92 778 81 725 q 131 865 104 832 q 236 950 176 925 q 371 975 296 975 q 571 896 490 975 z "},"g":{"ha":738,"x_min":36,"x_max":708,"o":"m 658 33 q 638 -64 663 -22 q 569 -133 613 -106 q 470 -174 526 -160 q 356 -187 414 -187 q 274 -181 314 -187 q 199 -160 233 -174 q 139 -126 165 -146 q 97 -78 113 -106 q 75 -16 82 -49 q 70 48 68 17 q 83 106 72 79 q 114 150 94 132 q 145 169 129 164 q 186 171 161 174 q 289 101 261 165 q 294 88 293 93 q 297 73 296 83 q 296 42 297 63 q 292 -17 294 22 q 294 -64 289 -46 q 314 -96 300 -82 q 343 -112 329 -108 q 378 -115 357 -117 q 438 -87 415 -111 q 468 -28 461 -64 q 470 -6 471 -14 q 467 17 469 1 q 442 69 458 49 q 392 111 426 89 q 360 130 381 118 q 315 155 340 142 q 264 183 290 168 q 215 208 238 197 q 43 407 76 278 q 38 436 40 419 q 36 471 36 453 q 38 506 36 489 q 43 535 39 524 q 87 631 57 589 q 158 701 117 672 q 248 748 199 731 q 350 769 297 765 q 403 779 381 772 q 444 799 426 786 q 478 829 463 811 q 511 871 494 847 q 553 920 536 907 q 592 935 571 933 q 634 920 615 935 q 660 882 653 906 q 653 816 671 842 q 574 761 635 790 q 541 745 554 751 q 528 738 528 739 q 535 732 528 736 q 553 722 543 728 q 656 628 615 686 q 701 504 696 569 q 674 351 708 421 q 565 233 640 282 q 519 208 543 218 q 469 190 496 197 q 465 186 463 188 q 489 178 467 185 q 545 158 517 169 q 598 129 574 146 q 639 89 622 113 q 658 33 656 65 m 493 413 q 511 461 507 440 q 514 517 515 482 q 510 553 513 542 q 501 579 508 564 q 456 633 483 615 q 396 651 428 651 q 328 633 358 651 q 275 584 297 614 q 241 518 253 554 q 229 449 229 482 q 236 397 229 422 q 258 352 243 372 q 293 320 272 332 q 343 308 314 308 q 433 338 394 308 q 493 413 471 367 z "},"h":{"ha":765,"x_min":13,"x_max":735,"o":"m 713 61 q 731 33 728 47 q 724 7 735 18 l 715 0 l 589 0 q 519 0 544 0 q 480 1 493 0 q 463 3 467 1 q 456 7 458 4 q 449 32 444 17 q 468 60 453 47 q 481 82 475 67 q 489 117 488 97 q 492 190 490 144 q 495 280 494 235 q 497 364 496 325 q 496 418 497 403 q 490 487 494 454 q 474 544 486 519 q 436 584 461 569 q 367 599 411 599 q 310 585 332 599 q 275 540 289 572 q 261 379 265 521 q 258 254 258 300 q 260 172 257 208 q 263 128 261 146 q 267 100 264 111 q 275 81 271 89 q 288 65 279 74 q 302 41 297 54 q 304 19 307 28 q 299 13 303 17 q 290 6 294 8 q 265 1 283 3 q 190 -1 247 0 q 117 -1 142 -1 q 82 3 93 0 q 43 47 39 14 q 48 67 44 54 q 56 90 51 79 l 67 117 l 71 329 q 73 424 72 375 q 74 519 74 472 q 74 606 74 565 q 74 675 74 646 q 72 763 72 732 q 68 811 71 794 q 58 836 65 828 q 39 858 51 844 q 16 893 19 882 q 19 921 13 904 q 42 942 26 936 q 96 951 57 949 q 158 958 133 954 q 207 969 183 963 q 244 976 228 976 q 269 971 258 976 q 287 940 285 960 q 278 878 289 919 q 273 855 275 865 q 269 832 271 844 q 267 801 268 819 q 267 756 267 783 l 265 674 l 275 674 q 297 683 285 674 q 382 726 332 711 q 476 736 432 740 q 610 692 554 729 q 685 572 667 654 q 692 507 689 551 q 695 409 694 463 q 695 301 696 356 q 690 206 694 247 q 689 174 689 192 q 690 140 689 157 q 694 110 692 124 q 699 88 696 96 q 706 73 701 81 q 713 61 710 65 z "},"i":{"ha":363,"x_min":28,"x_max":318,"o":"m 139 769 q 65 821 88 778 q 63 898 47 858 q 118 958 78 938 q 142 966 128 964 q 171 968 156 968 q 206 964 192 968 q 243 940 228 957 q 265 903 258 924 q 268 860 271 882 q 251 818 265 838 q 201 777 232 790 q 139 769 171 764 m 311 33 q 317 20 318 28 q 308 7 315 13 q 251 -2 297 0 q 122 -1 206 -4 q 65 1 79 0 q 46 7 51 3 q 46 36 28 18 q 66 59 60 47 q 75 90 72 71 q 76 119 75 96 q 77 178 76 142 q 78 263 78 215 q 79 364 79 310 l 81 614 l 64 631 q 49 647 53 642 q 46 661 46 653 q 56 685 46 672 q 81 701 67 697 q 115 708 90 704 q 167 716 139 713 q 222 722 196 719 q 260 724 247 724 q 281 720 275 724 q 290 708 286 717 q 294 693 293 704 q 295 649 294 682 q 295 552 296 615 q 294 382 294 489 q 293 201 293 265 q 293 106 293 138 q 294 67 293 75 q 299 53 296 58 q 311 33 306 39 z "},"j":{"ha":351,"x_min":-107,"x_max":289,"o":"m 139 763 q 67 814 89 771 q 57 865 54 839 q 74 913 60 892 q 113 948 89 935 q 167 961 138 961 q 189 960 178 961 q 207 956 200 958 q 258 913 240 944 q 268 846 275 882 q 220 781 258 806 q 139 763 182 756 m 276 708 q 283 690 281 703 q 288 638 286 678 q 288 523 289 599 q 288 317 288 447 l 286 7 l 276 -29 q 266 -66 271 -50 q 254 -94 261 -82 q 238 -118 247 -107 q 215 -143 229 -129 q 151 -192 185 -176 q 74 -208 118 -208 q 30 -205 53 -208 q -15 -193 7 -201 q -53 -171 -36 -185 q -79 -137 -71 -157 q -71 -36 -107 -75 q -42 -13 -56 -21 q -11 -6 -28 -6 q 49 -29 25 -6 q 71 -85 74 -53 q 61 -112 68 -103 q 38 -126 54 -121 q 19 -136 19 -132 q 44 -151 15 -151 q 90 -130 71 -151 q 115 -71 108 -108 q 115 -24 119 -49 q 100 19 111 0 q 90 37 94 28 q 83 50 86 46 q 81 64 82 54 q 78 101 79 74 q 76 180 76 129 q 75 315 75 231 q 72 505 74 431 q 68 588 71 579 q 44 639 61 619 q 37 656 38 649 q 42 674 36 663 q 65 692 49 685 q 121 704 82 699 q 160 709 140 707 q 189 713 179 711 q 214 716 199 715 q 240 717 229 717 q 265 717 260 718 q 276 708 269 715 z "},"k":{"ha":701,"x_min":38,"x_max":690,"o":"m 688 17 q 689 5 690 8 q 681 -6 688 1 q 672 -12 676 -10 q 659 -16 668 -15 q 634 -16 650 -17 q 592 -12 618 -15 q 555 -10 576 -11 q 517 -10 533 -10 q 482 -8 490 -10 q 469 -3 474 -7 q 457 47 457 13 q 444 96 457 64 q 415 163 432 128 q 380 228 397 197 q 351 274 363 258 q 325 306 333 299 q 303 310 317 313 q 279 304 289 307 l 271 300 l 272 179 l 272 57 l 282 39 q 290 24 286 32 q 293 14 293 17 q 271 -7 293 -1 q 235 -8 268 -8 q 161 -7 203 -8 q 103 -5 124 -6 q 72 -3 82 -4 q 57 -1 61 -3 q 50 4 53 1 q 45 21 43 11 q 60 63 47 31 q 69 90 67 78 q 72 139 71 103 q 72 217 72 158 q 71 353 72 275 q 69 517 69 431 q 67 679 68 604 q 65 808 65 754 q 63 872 64 861 q 51 919 58 908 q 38 953 38 942 q 51 972 38 964 q 70 977 58 975 q 106 979 82 979 q 204 975 138 979 q 252 972 235 974 q 276 965 269 969 q 283 954 283 961 q 276 935 282 947 q 274 919 275 931 q 272 879 272 908 q 271 799 271 850 q 271 665 271 749 q 271 565 271 613 q 272 483 271 518 q 273 427 272 447 q 274 407 274 407 q 301 417 278 407 q 338 435 318 422 q 375 464 357 449 q 406 496 393 479 q 424 525 419 513 q 427 565 429 543 q 417 607 425 588 q 398 684 396 650 q 417 741 400 718 q 460 776 433 764 q 517 788 488 788 q 583 769 551 788 q 628 715 614 751 q 628 610 643 676 q 443 390 599 482 q 419 376 429 382 q 410 368 410 369 q 417 361 410 367 q 433 349 424 356 q 554 235 500 300 q 643 94 608 169 q 663 58 654 75 q 675 38 672 40 q 688 17 685 28 z "},"l":{"ha":335,"x_min":21,"x_max":296,"o":"m 283 67 q 289 17 296 33 q 253 -1 282 1 q 220 -5 239 -4 q 181 -6 201 -6 q 144 -7 161 -7 q 114 -6 126 -7 q 74 1 90 -3 q 51 17 58 4 q 48 37 46 26 q 55 57 50 47 q 65 76 60 67 q 69 90 69 85 l 69 158 l 68 447 q 68 574 68 514 q 67 682 68 635 q 66 760 67 729 q 64 796 65 790 q 60 821 63 806 q 55 851 58 836 q 47 881 51 867 q 33 900 42 894 q 22 915 24 910 q 28 929 21 921 q 62 949 35 940 q 122 963 89 957 q 185 973 154 969 q 231 976 217 976 q 254 971 249 976 q 257 956 256 969 q 259 899 258 942 q 260 778 260 857 q 261 564 261 699 q 262 380 261 456 q 263 253 263 304 q 265 172 264 203 q 269 123 267 142 q 274 92 271 104 q 283 67 278 81 z "},"m":{"ha":1203,"x_min":22,"x_max":1182,"o":"m 1151 51 q 1164 -3 1182 22 l 1157 -11 l 1042 -11 q 957 -12 994 -12 q 913 -11 919 -11 q 886 14 886 -7 q 907 51 886 29 q 929 136 928 69 q 930 183 929 153 q 932 242 931 214 q 933 442 939 369 q 907 544 926 515 q 871 574 894 563 q 846 584 856 582 q 815 588 836 586 q 774 586 788 590 q 744 571 760 582 q 729 557 735 564 q 721 533 724 550 q 717 480 718 515 q 717 379 717 444 q 717 317 717 347 q 716 261 717 286 q 715 219 715 236 q 713 194 714 201 q 712 164 711 181 q 713 131 713 147 q 716 99 714 114 q 721 76 718 85 q 736 51 726 60 q 746 -3 768 19 l 739 -11 l 611 -11 q 542 -11 567 -11 q 503 -10 517 -11 q 485 -8 489 -8 q 478 -4 481 -7 q 471 21 467 6 q 490 49 475 36 q 511 107 508 65 q 515 179 513 135 q 517 269 517 224 q 519 353 518 315 q 518 408 519 392 q 510 488 517 453 q 493 540 504 524 q 453 576 481 564 q 389 589 425 589 q 333 575 354 589 q 297 531 313 561 q 290 479 293 519 q 283 368 286 439 q 281 244 281 290 q 282 163 281 199 q 285 119 283 136 q 290 90 286 101 q 297 71 293 79 q 310 54 301 63 q 324 30 319 43 q 326 8 329 17 q 322 2 325 6 q 313 -4 318 -1 q 288 -10 306 -8 q 213 -11 269 -11 q 140 -11 164 -12 q 104 -7 115 -10 q 75 10 86 -3 q 66 22 68 17 q 65 38 64 26 q 70 58 67 44 q 78 82 74 71 l 89 110 l 93 281 q 94 410 94 354 q 93 509 94 467 q 88 582 92 551 q 81 635 85 613 q 54 658 79 640 q 27 678 32 674 q 25 690 22 683 q 50 706 32 701 q 118 714 68 711 q 172 716 144 715 q 214 718 200 717 q 246 719 238 721 q 267 714 254 718 q 285 701 282 707 q 289 676 289 694 q 290 665 289 667 q 299 664 292 664 q 321 674 307 664 q 446 724 371 713 q 499 726 474 728 q 558 715 524 724 q 617 692 596 704 q 661 657 638 681 q 681 638 672 646 q 690 631 689 631 q 704 643 694 631 q 792 706 743 688 q 897 725 840 725 q 1017 701 960 725 q 1103 617 1074 678 q 1115 589 1110 603 q 1123 559 1119 575 q 1128 522 1126 543 q 1132 469 1131 500 q 1134 408 1133 444 q 1134 332 1135 371 q 1132 256 1133 293 q 1128 194 1131 219 q 1127 163 1126 181 q 1128 129 1128 146 q 1131 99 1129 113 q 1136 76 1133 85 q 1143 62 1139 69 q 1151 51 1147 54 z "},"n":{"ha":783,"x_min":22,"x_max":751,"o":"m 736 50 q 749 26 747 39 q 743 4 751 13 l 735 -4 l 615 -4 q 538 -4 567 -4 q 494 -3 510 -4 q 474 2 479 -1 q 467 11 468 6 q 482 50 463 32 q 507 99 503 71 q 510 145 508 108 q 515 225 513 182 q 518 308 517 268 q 519 363 519 347 q 512 465 519 421 q 489 531 504 510 q 447 563 474 554 q 393 572 421 572 q 335 561 358 572 q 297 517 313 550 q 291 502 293 508 q 288 481 289 496 q 285 440 286 467 q 282 367 285 414 q 279 267 281 314 q 278 182 278 219 q 281 120 279 144 q 286 89 283 96 q 294 75 289 83 q 306 58 299 67 q 317 8 333 24 q 308 3 314 6 q 296 -1 301 0 q 260 -5 289 -4 q 199 -5 232 -6 q 138 -3 167 -4 q 100 0 108 -3 q 68 10 82 4 q 56 28 54 15 q 60 43 56 36 q 71 56 65 50 q 81 69 76 63 q 86 85 86 76 q 87 104 86 97 q 88 120 88 111 q 88 143 88 129 q 88 182 88 157 q 89 256 88 211 q 93 338 90 301 q 94 408 94 371 q 92 478 93 444 q 90 543 92 513 q 85 594 88 574 l 81 622 l 57 638 q 40 649 47 644 q 29 657 32 654 q 26 669 22 663 q 40 682 29 676 q 65 688 50 686 q 121 692 81 690 q 175 694 149 693 q 213 699 201 696 q 236 701 228 701 q 256 697 244 700 q 281 683 275 690 q 288 661 288 676 q 296 643 288 643 q 336 665 304 643 q 414 696 367 685 q 500 704 461 707 q 571 691 538 701 q 632 662 604 681 q 678 615 660 643 q 706 547 697 588 q 713 486 710 525 q 717 399 715 447 q 717 299 718 351 q 711 199 715 247 q 711 103 706 136 q 736 50 717 69 z "},"o":{"ha":729,"x_min":25,"x_max":697,"o":"m 693 440 q 694 363 697 399 q 678 276 690 326 q 653 196 667 228 q 621 142 639 164 q 604 121 614 135 q 586 96 594 107 q 556 62 574 79 q 515 28 538 44 q 469 0 493 13 q 422 -21 446 -12 q 391 -28 410 -25 q 353 -32 372 -31 q 315 -33 333 -33 q 283 -29 296 -32 q 151 35 206 -11 q 66 146 96 82 q 31 284 36 210 q 46 433 25 358 q 99 552 63 496 q 183 651 135 608 q 288 717 231 693 q 404 742 344 742 q 519 717 468 742 q 608 650 571 692 q 666 554 644 608 q 693 440 688 500 m 515 499 q 510 587 521 547 q 476 644 500 626 q 447 654 463 654 q 381 624 414 654 q 320 550 349 593 q 272 463 292 507 q 243 390 251 418 q 228 319 233 358 q 222 243 222 281 q 225 173 221 206 q 238 119 229 140 q 293 74 257 74 q 333 86 314 74 q 370 116 353 99 q 402 153 388 133 q 426 188 417 174 q 449 235 433 199 q 479 311 465 272 q 515 499 501 376 z "},"p":{"ha":750,"x_min":31,"x_max":719,"o":"m 679 554 q 713 412 706 486 q 706 278 719 338 q 700 253 703 265 q 696 233 697 240 q 683 192 693 214 q 653 143 672 171 q 531 33 600 68 q 371 -1 461 -1 q 348 -1 361 -1 q 322 1 335 0 q 297 4 308 3 q 282 7 286 6 q 276 6 276 10 q 275 -10 275 3 q 276 -36 275 -21 q 281 -67 278 -51 q 287 -98 283 -83 q 294 -122 290 -112 q 303 -156 303 -146 q 293 -175 303 -167 q 279 -186 286 -182 q 261 -192 272 -190 q 233 -195 250 -194 q 186 -196 215 -196 q 131 -197 156 -197 q 104 -196 107 -196 q 82 -188 89 -193 q 69 -172 75 -183 q 62 -142 61 -157 q 71 -99 63 -126 l 81 -68 l 82 208 q 82 366 82 301 q 81 475 82 431 q 78 547 81 519 q 70 591 75 574 q 58 620 65 608 q 40 644 50 632 q 31 666 31 657 q 40 686 31 675 q 64 701 50 699 q 97 706 69 704 q 158 710 125 707 q 217 713 197 713 q 247 708 238 713 q 258 694 256 704 q 261 663 260 683 q 264 635 263 647 q 268 622 265 624 q 282 631 272 618 q 317 668 301 653 q 350 693 333 683 q 386 708 367 703 q 431 718 406 714 q 590 671 515 731 q 617 647 603 661 q 643 616 631 632 q 665 583 656 600 q 679 554 675 567 m 519 356 q 520 399 519 383 q 520 427 521 415 q 517 449 519 439 q 513 472 515 458 q 469 576 500 539 q 401 613 439 613 q 362 602 381 613 q 328 576 343 592 q 301 540 313 560 q 283 503 290 521 l 275 476 l 275 301 q 275 190 275 229 q 277 133 275 151 q 284 109 279 114 q 297 99 289 104 q 316 92 304 94 q 343 90 328 90 q 390 97 369 90 q 422 117 406 103 q 455 153 439 132 q 485 198 471 174 q 507 247 499 222 q 513 266 511 258 q 516 284 515 274 q 517 311 517 294 q 519 356 518 328 z "},"q":{"ha":751,"x_min":38,"x_max":717,"o":"m 710 682 q 715 655 717 671 q 699 610 713 639 q 687 585 692 596 q 679 558 682 574 q 675 521 676 543 q 673 460 674 499 q 672 365 672 422 q 672 225 672 308 l 672 -71 l 682 -103 q 689 -128 686 -115 q 692 -147 692 -142 q 684 -176 692 -161 q 667 -194 676 -190 q 638 -199 663 -197 q 585 -200 614 -200 q 529 -200 556 -200 q 494 -197 503 -200 q 467 -185 479 -194 q 451 -167 454 -175 q 450 -156 450 -162 q 453 -143 450 -149 q 463 -108 458 -124 q 469 -78 467 -93 q 472 -49 471 -64 q 472 -14 472 -33 q 468 44 472 40 q 460 44 465 47 q 443 33 456 42 q 339 -4 403 8 q 281 -8 306 -10 q 226 4 257 -7 q 173 27 196 15 q 133 56 150 39 q 102 95 115 72 q 76 149 89 118 q 64 184 69 168 q 55 217 58 200 q 48 252 51 233 q 42 296 44 271 q 39 328 40 315 q 38 352 38 340 q 38 375 38 364 q 40 403 39 386 q 60 513 44 461 q 96 592 75 564 q 176 678 136 650 q 269 715 215 706 q 322 715 288 719 q 381 700 357 710 q 424 675 401 692 q 463 638 446 658 q 475 623 469 629 q 482 617 481 617 q 483 638 485 617 q 478 672 482 658 q 494 714 468 703 q 504 717 500 717 q 515 718 508 718 q 561 716 532 718 q 620 710 590 714 q 676 699 650 706 q 710 682 701 692 m 478 471 l 469 499 q 452 536 464 517 q 425 572 440 556 q 390 598 410 588 q 350 608 371 608 q 261 536 300 608 q 251 514 256 524 q 244 492 247 504 q 240 463 242 479 q 236 424 239 447 q 234 328 232 381 q 243 243 236 276 q 287 149 254 190 q 357 101 319 108 q 388 100 371 99 q 417 108 406 101 q 445 131 431 115 q 469 167 460 147 l 478 185 l 478 471 z "},"r":{"ha":642,"x_min":28,"x_max":631,"o":"m 622 653 q 629 606 631 631 q 619 558 628 581 q 594 518 610 536 q 560 490 579 500 q 540 483 544 483 q 524 485 535 482 q 485 489 510 489 q 374 451 414 489 q 314 346 335 413 q 304 311 308 326 q 298 277 300 296 q 294 233 296 258 q 293 167 293 207 q 292 113 292 133 q 292 81 292 93 q 294 62 293 68 q 297 50 296 56 q 310 28 303 36 q 316 13 317 21 q 308 0 315 6 q 122 -10 289 -14 q 65 -7 79 -8 q 46 -1 51 -6 q 46 29 28 11 q 66 52 60 40 q 75 83 72 64 q 76 112 75 89 q 77 172 76 135 q 78 256 78 208 q 79 357 79 303 l 82 608 l 64 624 q 49 640 53 635 q 46 653 46 644 q 56 678 46 665 q 81 694 67 690 q 115 701 90 697 q 166 709 139 706 q 219 715 193 713 q 257 717 244 717 q 280 713 274 717 q 290 701 286 710 q 294 680 293 696 q 296 624 296 664 q 298 547 296 569 q 304 524 300 525 q 317 535 307 522 q 361 596 326 549 q 397 640 378 618 q 438 680 415 663 q 487 708 461 697 q 542 719 513 719 q 592 699 571 719 q 622 653 614 679 z "},"s":{"ha":622,"x_min":36,"x_max":589,"o":"m 542 314 q 569 266 558 293 q 585 210 581 239 q 587 155 589 182 q 575 107 585 128 q 547 69 568 92 q 507 33 526 46 q 480 17 492 24 q 455 5 468 10 q 426 -3 442 0 q 390 -7 411 -6 q 354 -11 369 -10 q 338 -12 339 -12 q 331 -11 336 -11 q 321 -10 326 -11 q 283 -5 306 -8 q 238 4 261 -1 q 196 15 215 10 q 167 25 176 21 q 90 76 125 43 q 56 158 56 110 q 89 225 56 199 q 174 253 122 251 q 213 244 196 253 q 245 221 231 235 q 271 189 260 207 q 292 154 282 171 q 326 103 311 118 q 360 85 340 88 q 388 88 372 82 q 413 103 404 94 q 422 124 419 111 q 421 146 424 138 q 402 171 417 156 q 376 193 388 186 q 315 236 361 203 q 203 318 268 269 q 146 362 169 343 q 106 396 122 381 q 79 425 90 411 q 57 456 68 439 q 40 493 43 476 q 36 546 36 510 q 36 572 36 563 q 38 588 36 582 q 42 601 39 594 q 50 618 44 608 q 97 679 69 656 q 156 716 124 703 q 226 733 189 729 q 301 738 264 738 q 330 735 317 738 q 360 731 343 733 q 434 707 392 725 q 508 661 476 689 q 551 598 540 633 q 532 521 563 563 q 513 502 521 506 q 492 496 506 499 q 453 496 472 490 q 422 506 435 500 q 396 525 408 513 q 369 557 383 538 q 339 607 356 576 q 265 661 308 661 q 236 654 253 661 q 217 628 221 646 q 222 589 213 611 q 247 557 228 576 q 291 515 265 538 q 347 469 317 492 q 408 426 378 446 q 486 369 449 401 q 542 314 524 338 z "},"t":{"ha":435,"x_min":14,"x_max":418,"o":"m 322 639 q 303 628 310 633 q 292 611 296 624 q 288 575 289 599 q 285 510 286 551 q 283 395 283 451 q 282 294 282 339 q 283 218 282 249 q 286 182 285 188 q 331 149 294 149 q 358 153 344 149 q 383 158 374 158 q 399 150 393 158 q 403 138 403 143 q 399 118 403 133 q 375 72 392 99 q 339 25 358 44 q 276 -12 313 -1 q 207 -15 239 -24 q 169 3 188 -11 q 134 35 150 17 q 108 77 118 54 q 94 122 97 100 q 92 149 93 128 q 92 199 92 169 q 92 267 92 229 q 92 342 92 304 q 92 472 92 425 q 91 545 92 519 q 90 583 90 571 q 88 608 89 594 q 74 650 83 639 q 39 667 64 661 q 19 686 14 671 q 31 695 21 690 q 64 707 40 700 q 256 811 194 751 q 286 832 279 832 q 296 790 294 832 q 310 721 296 742 q 376 696 325 700 q 418 681 418 692 q 376 657 418 669 q 347 649 363 654 q 322 639 332 643 z "},"u":{"ha":765,"x_min":32,"x_max":743,"o":"m 710 53 q 738 32 733 38 q 739 19 743 26 q 719 6 735 11 q 679 1 703 1 q 642 0 668 1 q 590 -4 615 -1 q 555 -8 568 -7 q 534 -8 542 -8 q 522 -7 526 -8 q 510 -3 517 -6 q 483 35 483 7 q 482 45 483 43 q 474 47 481 47 q 463 44 471 47 q 449 35 456 40 q 393 4 425 17 q 326 -12 361 -8 q 296 -15 304 -15 q 267 -12 288 -15 q 143 34 194 -6 q 78 149 92 74 q 71 213 74 169 q 67 307 68 256 q 67 408 67 358 q 71 492 68 458 q 71 568 74 529 q 61 624 68 607 q 46 647 56 638 q 33 676 33 661 q 43 699 32 692 q 65 701 46 700 q 110 702 83 701 q 169 702 138 703 q 228 701 200 701 q 275 699 256 700 q 297 697 294 699 q 307 676 308 692 q 292 647 306 660 q 276 625 283 639 q 269 589 272 618 q 265 519 267 560 q 261 433 263 479 q 260 343 260 386 q 263 266 261 300 q 268 217 264 232 q 306 143 279 165 q 383 121 332 121 q 429 127 414 121 q 460 151 444 133 q 473 170 468 161 q 481 197 478 179 q 485 247 483 214 q 489 335 488 279 q 491 518 493 443 q 482 611 489 593 q 474 624 479 617 q 464 638 469 631 q 464 697 428 682 q 499 701 469 700 q 562 702 528 701 q 626 702 596 703 q 664 699 656 701 q 698 672 692 692 q 689 617 704 653 l 678 590 l 674 456 q 673 224 671 311 q 685 81 675 136 q 690 69 686 74 q 710 53 694 64 z "},"v":{"ha":678,"x_min":4,"x_max":658,"o":"m 656 613 q 656 565 658 590 q 646 510 654 540 q 622 444 638 481 q 583 360 607 407 q 552 297 568 332 q 528 242 536 263 q 503 190 518 222 q 476 133 488 157 q 433 52 450 82 q 401 7 415 22 q 369 -12 386 -8 q 328 -18 353 -17 q 283 -15 296 -21 q 244 14 263 -7 q 208 72 226 35 q 169 167 189 110 q 128 303 150 224 q 88 441 103 389 q 63 524 74 493 q 46 571 53 554 q 29 603 39 588 q 11 663 4 647 q 20 671 14 668 q 42 675 26 674 q 85 676 58 676 q 157 675 113 676 q 238 672 208 674 q 281 667 267 671 q 295 658 294 664 q 292 640 296 651 q 284 628 289 635 q 275 614 279 621 q 260 578 264 601 q 261 528 257 556 q 272 481 264 510 q 290 415 279 451 q 315 335 301 378 q 344 249 329 293 q 351 146 365 189 q 346 126 346 131 q 351 122 346 122 q 372 134 360 122 q 392 161 383 146 q 404 190 400 176 q 410 227 408 203 q 413 292 413 251 q 414 400 414 332 q 413 500 414 447 q 424 597 411 553 q 469 667 436 640 q 568 692 501 694 q 656 613 646 688 z "},"w":{"ha":1069,"x_min":4,"x_max":1050,"o":"m 1047 629 q 1047 580 1050 604 q 1033 519 1044 556 q 1019 476 1028 500 q 1002 428 1011 451 q 985 386 993 406 q 969 354 976 367 q 953 324 963 342 q 940 293 944 306 q 906 218 926 260 q 862 138 885 176 q 817 67 839 99 q 782 24 796 36 q 748 1 767 10 q 718 -8 729 -8 q 673 -3 694 -8 q 635 21 651 1 q 619 48 629 26 q 596 98 608 69 q 572 156 583 126 q 551 210 560 186 q 535 258 540 247 q 526 268 531 268 q 515 251 522 267 q 490 194 507 236 q 456 110 469 143 q 430 57 442 78 q 408 26 418 36 q 386 8 399 15 q 364 -1 372 1 q 333 -4 356 -3 q 285 -1 304 -7 q 250 15 265 4 q 216 69 235 28 q 181 156 197 110 q 150 247 164 203 q 131 310 136 290 q 103 405 114 368 q 87 464 93 442 q 76 499 81 486 q 68 525 72 513 q 49 581 57 561 q 29 621 40 601 q 11 681 4 665 q 20 689 14 686 q 42 693 26 692 q 85 694 58 694 q 157 693 113 694 q 238 690 208 692 q 281 685 267 689 q 295 676 294 682 q 292 658 296 669 q 284 645 289 653 q 275 632 279 638 q 261 544 253 603 q 272 499 264 528 q 290 433 279 469 q 315 353 301 396 q 344 267 329 311 q 357 213 356 236 q 351 165 358 190 q 353 140 346 140 q 374 155 360 140 q 396 185 388 169 q 408 226 399 192 q 428 300 418 260 q 442 354 436 333 q 450 391 447 375 q 454 422 453 407 q 457 456 456 436 q 459 488 458 475 q 460 508 460 500 q 458 523 460 517 q 454 538 457 529 q 439 582 447 561 q 419 624 431 603 q 403 681 394 667 q 412 689 406 686 q 433 693 418 692 q 476 694 449 694 q 549 693 504 694 q 629 690 600 692 q 672 685 658 689 q 685 676 685 682 q 682 658 686 669 q 667 632 676 644 q 652 597 656 619 q 651 546 649 574 q 662 499 654 528 q 681 432 669 469 q 706 352 692 394 q 735 267 719 310 q 748 213 746 236 q 743 165 750 190 q 738 144 738 147 q 743 140 738 140 q 763 151 751 140 q 783 179 774 163 q 796 208 792 194 q 802 245 800 221 q 804 310 804 269 q 804 418 804 350 q 803 483 804 449 q 805 549 803 517 q 815 612 807 582 q 840 664 822 642 q 886 699 857 686 q 960 708 915 711 q 988 706 979 707 q 1007 697 996 704 q 1035 670 1026 685 q 1047 629 1043 656 z "},"x":{"ha":725,"x_min":13,"x_max":708,"o":"m 658 69 q 700 30 692 42 q 701 6 708 18 q 692 -4 697 0 q 674 -10 686 -8 q 640 -14 661 -12 q 588 -15 619 -15 q 496 -14 522 -17 q 458 0 469 -11 q 433 36 454 3 q 383 114 411 69 q 348 169 363 147 q 324 205 333 192 q 308 223 314 218 q 297 228 301 228 q 274 209 283 228 q 261 179 264 190 q 263 157 260 165 q 275 126 265 149 q 288 95 285 107 q 292 67 290 83 q 292 42 293 49 q 285 24 292 35 q 247 -13 271 -1 q 196 -25 224 -25 q 149 -17 172 -25 q 108 9 126 -8 q 77 52 89 26 q 65 113 65 78 q 74 153 65 128 q 93 194 82 179 q 189 278 117 231 q 232 310 221 299 q 243 332 243 321 q 222 371 243 335 q 168 457 200 407 q 122 529 140 501 q 90 576 104 557 q 64 608 76 594 q 35 635 51 621 q 15 660 18 650 q 24 683 13 671 q 59 697 33 693 q 153 700 85 700 q 197 700 181 700 q 223 699 214 700 q 238 697 232 699 q 249 692 243 694 q 271 674 265 685 q 302 622 279 660 q 350 543 325 583 q 396 470 375 503 q 419 435 417 438 q 438 425 429 425 q 456 431 446 425 q 474 447 465 438 q 490 467 483 457 q 496 485 496 476 q 488 511 496 496 q 464 544 479 526 q 438 604 443 569 q 447 671 433 639 q 488 714 458 700 q 551 728 518 728 q 647 692 614 728 q 681 594 681 657 q 647 494 681 550 q 556 390 614 439 q 519 359 532 369 q 501 342 507 349 q 496 331 496 336 q 496 319 496 326 q 502 299 497 310 q 521 265 507 288 q 546 224 531 250 q 574 179 561 199 q 619 112 599 139 q 658 69 640 85 z "},"y":{"ha":678,"x_min":0,"x_max":658,"o":"m 656 654 q 657 615 658 635 q 649 569 656 594 q 632 513 643 544 q 603 439 621 481 q 594 419 600 432 q 583 391 589 407 q 570 358 576 375 q 558 325 564 342 q 525 243 539 278 q 499 181 511 208 q 477 131 488 154 q 456 83 467 108 q 430 34 443 58 q 405 -12 417 10 q 383 -49 393 -33 q 368 -69 374 -64 q 354 -85 364 -74 q 333 -108 344 -96 q 291 -151 311 -135 q 249 -178 271 -168 q 202 -193 228 -189 q 143 -197 176 -197 q 92 -192 118 -197 q 47 -176 67 -187 q 14 -145 26 -165 q 0 -94 1 -125 q 1 -72 0 -79 q 10 -51 3 -64 q 30 -26 21 -33 q 57 -17 39 -19 q 128 -31 96 -10 q 167 -53 151 -46 q 196 -60 182 -60 q 219 -54 206 -60 q 247 -40 233 -49 q 269 -22 260 -32 q 278 -4 278 -12 q 257 26 278 6 q 216 93 235 54 q 181 174 197 132 q 153 258 165 217 q 131 333 140 300 q 103 429 114 393 q 87 488 93 465 q 76 524 81 511 q 68 550 72 538 q 49 606 57 586 q 29 646 40 626 q 11 706 4 693 q 20 714 14 711 q 42 718 26 717 q 85 719 58 719 q 157 718 113 719 q 238 715 208 717 q 280 710 267 714 q 294 701 293 707 q 292 683 296 694 q 284 670 289 678 q 275 657 279 663 q 261 571 253 628 q 270 526 264 554 q 287 463 276 499 q 310 387 297 428 q 338 306 324 346 q 355 243 351 268 q 351 193 358 218 q 346 168 346 171 q 351 165 346 165 q 371 176 360 165 q 392 204 382 188 q 404 233 400 219 q 410 270 408 246 q 413 335 413 294 q 413 443 413 375 q 410 522 413 483 q 414 597 408 561 q 434 660 419 633 q 469 704 449 686 q 513 731 489 722 q 558 740 536 740 q 622 719 594 740 q 656 654 649 697 z "},"z":{"ha":619,"x_min":15,"x_max":586,"o":"m 578 226 q 581 195 579 221 q 583 140 582 169 q 583 82 583 110 q 582 43 583 54 q 572 14 579 21 q 565 10 569 11 q 551 8 561 8 q 519 6 540 7 q 460 4 497 6 q 406 3 438 4 q 336 2 374 3 q 260 1 299 1 q 186 0 221 0 q 96 -1 129 -1 q 45 -1 63 -1 q 22 0 28 -1 q 17 3 17 1 q 15 9 15 6 q 22 25 15 13 q 42 65 28 38 q 84 143 56 92 q 156 273 113 194 q 264 468 200 351 q 301 534 288 510 q 320 573 314 558 q 327 594 326 588 q 325 607 328 601 q 319 619 322 613 q 311 628 315 625 q 299 635 304 635 q 269 636 293 636 q 186 615 210 636 q 168 589 178 608 q 156 554 158 569 q 142 531 153 543 q 122 517 132 518 q 90 525 106 515 q 68 546 74 535 q 66 572 67 551 q 65 621 65 593 q 65 658 65 644 q 66 678 65 671 q 69 688 67 685 q 74 693 71 690 q 101 704 81 703 q 126 705 106 704 q 181 706 147 706 q 257 706 214 706 q 346 707 300 707 q 462 708 417 707 q 532 708 507 708 q 566 706 557 707 q 576 704 575 706 q 560 643 586 692 q 543 612 556 636 q 511 551 531 588 q 467 468 492 514 q 418 374 443 422 q 301 92 283 114 q 328 74 313 79 q 371 68 343 68 q 430 84 410 68 q 461 140 450 100 q 470 169 465 151 q 479 200 475 188 q 524 258 496 251 q 537 260 531 260 q 546 260 543 261 q 565 247 556 257 q 578 226 574 238 z "},"{":{"ha":458,"x_min":40,"x_max":443,"o":"m 283 586 q 174 483 257 504 q 156 476 156 478 q 174 469 156 475 q 238 438 214 458 q 273 388 261 417 q 288 326 285 360 q 292 257 292 293 q 294 120 292 171 q 304 58 297 69 q 392 8 328 13 q 421 3 413 6 q 429 -6 429 0 q 424 -12 429 -10 q 404 -15 419 -14 q 370 -17 389 -17 q 333 -17 351 -17 q 303 -15 314 -17 q 248 -5 274 -11 q 203 15 222 1 q 172 49 183 28 q 161 101 161 69 q 159 138 160 114 q 156 181 158 161 q 153 226 154 200 q 154 267 153 251 q 155 296 156 279 q 152 330 154 313 q 148 363 150 347 q 143 389 146 379 q 117 435 135 419 q 57 463 99 450 q 43 467 46 465 q 40 476 40 469 q 43 485 40 482 q 57 490 46 488 q 94 503 82 497 q 117 518 107 508 q 135 542 128 528 q 148 577 143 556 q 156 631 153 599 q 160 708 158 663 q 164 799 163 764 q 167 856 165 835 q 172 888 169 878 q 176 904 174 899 q 230 944 192 928 q 319 967 268 961 q 356 969 336 969 q 392 969 375 969 q 422 966 410 968 q 436 961 433 964 q 435 951 443 954 q 403 944 428 947 q 337 924 364 942 q 303 864 310 906 q 301 817 303 857 q 296 728 299 778 q 293 665 294 689 q 290 626 292 640 q 288 603 289 611 q 283 586 286 594 z "},"|":{"ha":289,"x_min":69,"x_max":219,"o":"m 218 500 q 219 298 218 393 q 219 131 219 203 q 219 17 219 60 q 218 -29 218 -26 q 207 -56 215 -43 q 190 -72 199 -68 q 154 -78 181 -76 q 114 -78 128 -81 q 86 -59 93 -74 q 76 4 79 -44 q 74 67 75 17 q 73 190 74 117 q 72 353 72 264 q 70 535 71 443 q 69 716 69 628 q 69 873 69 804 q 70 985 69 942 q 72 1033 71 1029 q 82 1053 75 1049 q 109 1063 89 1060 q 150 1065 129 1065 q 180 1063 167 1065 q 197 1057 193 1061 q 204 1049 201 1053 q 209 1028 207 1044 q 213 980 211 1013 q 215 886 214 947 q 216 731 215 825 q 218 500 217 638 z "},"}":{"ha":464,"x_min":22,"x_max":424,"o":"m 390 494 q 417 485 410 489 q 424 475 424 481 q 392 458 424 465 q 323 403 343 447 q 303 264 303 360 q 301 210 303 240 q 297 160 300 179 q 294 120 294 140 q 293 93 293 100 q 287 60 293 74 q 265 31 281 46 q 191 -8 235 0 q 107 -17 147 -15 l 47 -17 q 27 -12 32 -14 q 22 -6 22 -10 q 28 2 22 0 q 58 7 35 4 q 131 34 107 13 q 160 99 154 56 q 161 142 160 106 q 165 222 163 178 q 168 292 167 265 q 172 335 169 318 q 176 362 174 351 q 185 383 179 372 q 222 436 200 417 q 278 467 244 456 q 296 472 289 469 q 303 476 303 475 q 288 483 303 478 q 176 600 200 504 q 172 645 174 614 q 168 746 171 676 q 165 839 167 803 q 161 882 164 875 q 68 944 144 939 q 34 951 40 947 q 35 963 28 956 q 50 967 39 967 q 103 968 61 968 q 156 966 126 968 q 214 956 186 964 q 264 931 242 947 q 293 888 286 915 q 298 857 296 878 q 302 808 300 836 q 306 749 304 781 q 307 689 307 718 q 333 531 307 571 q 354 509 342 517 q 390 494 367 501 z "},"~":{"ha":589,"x_min":43,"x_max":543,"o":"m 535 497 q 540 488 538 492 q 542 478 542 483 q 542 464 543 472 q 542 442 542 456 q 539 411 540 426 q 536 390 538 396 q 502 340 525 358 q 446 321 479 321 q 392 333 418 321 q 344 361 367 344 q 292 397 313 383 q 258 418 272 410 q 236 431 244 426 q 219 438 228 435 q 193 443 204 443 q 154 419 164 443 q 143 372 144 396 q 140 347 142 360 q 132 322 138 333 q 117 304 126 311 q 93 297 108 297 q 71 303 79 297 q 56 326 64 310 q 46 360 49 343 q 49 404 43 378 q 65 453 54 431 q 105 501 81 483 q 157 518 129 518 q 308 453 203 518 q 376 415 349 426 q 418 403 403 403 q 444 417 436 403 q 451 432 447 419 q 457 458 454 444 q 469 498 464 485 q 486 518 475 511 q 497 521 493 521 q 511 518 500 521 q 525 511 521 515 q 535 497 529 507 z "},"":{"ha":429,"x_min":0,"x_max":0,"o":""},"":{"ha":347,"x_min":60,"x_max":288,"o":"m 161 758 q 101 801 121 771 q 89 868 81 832 q 125 927 96 906 q 188 949 154 949 q 221 943 204 949 q 253 924 238 938 q 285 858 283 896 q 260 788 288 819 q 213 760 243 768 q 161 758 183 751 m 247 474 q 252 432 249 464 q 260 364 256 400 q 265 317 264 336 q 268 278 267 297 q 269 237 269 258 q 269 183 269 215 q 269 108 271 139 q 267 68 268 76 q 226 6 257 28 q 154 -15 194 -15 q 75 35 99 -15 q 61 124 60 68 q 78 286 63 181 q 86 342 82 314 q 92 382 90 371 q 103 463 97 422 q 117 540 110 504 q 131 601 125 575 q 143 640 138 628 q 163 669 150 656 q 183 682 176 682 q 202 673 190 682 q 217 654 214 664 q 233 587 226 631 q 247 474 240 543 z "},"":{"ha":754,"x_min":50,"x_max":714,"o":"m 711 26 q 700 -12 714 -6 q 675 -13 699 -12 q 613 -15 651 -14 q 524 -15 575 -15 q 415 -15 472 -15 q 285 -16 339 -15 q 198 -16 232 -17 q 148 -15 164 -15 q 129 -12 132 -14 q 113 -1 117 -7 q 108 15 108 4 q 112 31 108 25 q 131 53 115 38 q 149 75 143 65 q 159 101 156 85 q 163 144 163 117 q 164 219 164 171 q 163 304 164 282 q 158 332 161 326 q 146 340 153 342 q 131 336 139 338 q 117 335 124 335 q 64 361 83 335 q 53 384 56 371 q 51 410 50 397 q 59 435 53 424 q 75 454 65 447 q 92 464 79 457 q 118 478 104 471 q 142 492 132 485 q 156 503 153 499 q 159 510 158 506 q 160 527 160 515 q 161 560 161 539 q 161 615 161 582 q 160 730 161 685 q 155 804 158 775 q 145 849 151 833 q 129 874 139 865 q 111 896 118 885 q 104 915 104 907 q 108 925 104 919 q 114 935 111 931 q 127 944 121 942 q 149 950 133 947 q 197 951 160 951 q 276 951 235 951 q 352 949 318 950 q 392 946 386 947 q 410 924 410 939 q 392 875 410 910 l 374 839 l 371 619 l 379 617 q 418 629 388 615 q 471 644 451 644 q 515 626 494 644 q 535 577 535 607 q 514 528 535 547 q 491 514 511 525 q 447 490 471 503 l 388 461 l 368 421 l 368 292 q 369 222 368 249 q 370 181 369 196 q 372 160 371 167 q 376 150 374 154 q 394 131 383 135 q 442 128 406 128 q 501 132 476 128 q 544 146 526 136 q 576 172 563 156 q 601 215 589 189 q 630 260 618 249 q 657 272 642 272 q 700 243 686 272 q 704 233 703 239 q 706 217 706 228 q 708 188 707 207 q 708 138 708 169 q 709 66 708 99 q 711 26 710 33 z "},"":{"ha":875,"x_min":39,"x_max":819,"o":"m 246 501 q 141 502 178 501 q 86 506 104 503 q 64 513 68 508 q 56 528 60 518 q 67 576 42 554 q 74 582 71 581 q 83 585 78 583 q 97 586 88 586 q 121 586 106 586 l 163 586 l 179 650 q 199 712 189 685 q 221 763 208 739 q 250 808 233 786 q 289 856 267 831 q 340 905 317 888 q 397 939 363 922 q 429 952 414 947 q 461 960 444 957 q 499 963 478 963 q 549 963 519 964 q 642 947 607 960 q 707 906 678 935 q 747 847 726 886 q 776 776 768 808 q 785 718 783 753 q 783 660 788 683 q 773 621 781 642 q 756 581 765 600 q 735 546 746 561 q 713 524 724 531 q 674 507 697 514 q 631 500 650 500 q 596 506 608 500 q 572 532 583 513 q 563 552 564 544 q 561 586 561 560 q 562 610 561 601 q 565 631 563 619 q 574 660 568 643 q 592 708 581 678 q 600 740 599 729 q 600 779 601 750 q 599 811 600 796 q 594 833 597 826 q 583 856 592 844 q 565 878 575 868 q 542 894 554 888 q 522 900 531 900 q 497 888 513 900 q 463 858 481 876 q 429 815 446 839 q 400 767 413 792 q 373 697 385 738 q 354 614 361 657 l 350 586 l 386 586 q 443 583 426 586 q 469 571 460 581 q 478 560 475 567 q 483 550 482 554 q 480 526 486 539 q 464 506 474 513 q 456 501 460 503 q 433 500 453 500 q 371 500 414 500 q 246 501 328 500 m 818 206 q 817 177 819 194 q 810 142 814 160 q 800 108 806 124 q 789 83 794 92 q 736 32 769 54 q 660 -3 703 10 q 566 -22 617 -17 q 461 -21 515 -26 q 419 -13 438 -18 q 374 3 401 -8 q 235 119 289 39 q 163 318 182 200 q 155 361 158 343 q 151 381 151 379 q 138 383 150 382 q 107 385 125 383 q 72 388 81 386 q 56 393 63 389 q 39 426 39 406 q 54 460 39 447 l 65 469 l 146 468 q 186 467 163 468 q 235 465 210 467 q 288 463 261 464 q 338 461 315 463 q 409 458 383 460 q 447 453 435 456 q 464 445 460 450 q 472 431 468 440 q 461 385 483 404 q 453 378 457 381 q 445 375 450 376 q 431 374 440 374 q 407 374 422 374 l 364 374 l 374 347 q 385 318 378 336 q 403 281 393 300 q 422 246 413 263 q 436 221 431 229 q 493 158 464 179 q 569 122 522 136 q 613 115 597 115 q 661 128 635 115 q 709 163 694 143 q 722 215 724 183 q 722 235 721 229 q 728 249 724 242 q 767 271 746 271 q 801 254 786 271 q 818 206 815 238 z "},"":{"ha":829,"x_min":69,"x_max":796,"o":"m 792 868 q 792 829 796 849 q 776 786 789 810 q 741 731 764 763 q 682 657 718 700 q 652 615 674 647 q 606 548 631 583 q 562 481 582 513 q 538 439 542 449 q 527 406 525 411 q 554 401 529 401 q 578 401 567 401 q 596 397 589 400 q 615 380 607 392 q 622 357 622 368 q 615 337 622 347 q 600 321 608 326 q 578 318 596 319 q 535 317 561 317 q 476 318 510 317 q 408 321 443 319 q 326 325 357 324 q 279 328 296 326 q 256 331 263 329 q 244 335 249 332 q 224 366 225 346 q 240 401 224 386 q 255 411 249 410 q 282 413 261 413 q 307 414 301 413 q 313 418 313 415 q 306 444 313 425 q 292 487 300 464 q 274 532 283 510 q 260 564 265 554 q 248 595 256 575 q 231 638 240 615 q 213 679 221 660 q 199 708 204 699 q 183 741 192 721 q 168 776 175 761 q 149 825 157 807 q 132 856 140 843 q 113 881 124 869 q 83 906 101 892 q 72 917 75 913 q 69 929 69 921 q 106 958 69 957 q 167 957 125 958 q 251 953 208 956 q 328 949 294 951 q 367 946 363 947 q 378 906 404 936 q 366 890 368 896 q 365 863 364 885 q 367 833 365 843 q 381 799 369 822 q 417 719 400 758 q 442 664 435 681 q 454 642 451 644 q 470 646 461 638 q 497 679 479 654 q 535 737 524 715 q 551 785 546 758 q 556 803 554 796 q 557 817 557 810 q 556 833 557 824 q 554 856 556 842 q 551 897 551 882 q 555 919 550 911 q 571 932 560 928 q 603 942 582 936 q 639 948 618 946 q 679 950 660 950 q 753 934 724 950 q 792 868 783 918 m 599 281 q 626 258 618 275 q 625 221 635 240 q 604 202 618 206 q 557 200 590 199 q 528 201 540 201 q 515 200 515 201 q 515 178 514 199 q 517 131 515 158 q 519 81 518 101 q 524 48 521 61 q 533 25 528 35 q 546 6 538 15 q 555 -7 551 -1 q 558 -14 558 -12 q 550 -25 558 -19 q 508 -36 539 -33 q 403 -36 478 -39 q 353 -33 372 -35 q 324 -30 335 -32 q 311 -24 314 -28 q 308 -12 308 -19 q 315 3 311 -1 q 329 38 325 14 q 336 124 333 61 q 338 157 338 142 q 338 183 338 172 q 338 208 338 197 q 325 210 336 210 q 299 213 314 211 q 255 221 267 215 q 236 242 243 226 q 234 267 231 253 q 249 288 238 281 q 257 292 253 290 q 273 295 261 294 q 308 295 285 296 q 375 294 332 294 q 521 289 463 292 q 599 281 579 286 z "},"":{"ha":749,"x_min":61,"x_max":707,"o":"m 667 617 q 705 467 703 544 q 675 315 707 389 q 624 231 656 269 q 553 163 593 192 q 467 118 514 135 q 369 101 419 101 q 313 107 339 101 q 174 176 232 124 q 89 299 117 228 q 67 453 61 371 q 119 613 74 536 q 171 681 140 650 q 239 733 201 711 q 318 767 276 756 q 403 779 360 779 q 484 768 444 779 q 558 735 524 757 q 620 684 592 714 q 667 617 649 654 m 597 332 q 606 374 603 350 q 610 425 610 399 q 608 477 610 451 q 601 522 606 503 q 549 640 586 589 q 463 715 513 690 q 444 724 451 721 q 428 728 436 726 q 411 730 421 729 q 386 731 401 731 q 361 730 371 731 q 344 728 351 729 q 328 723 336 726 q 308 713 321 719 q 222 640 257 688 q 172 533 188 593 q 163 408 157 474 q 197 282 168 343 q 278 181 228 217 q 386 144 328 144 q 460 160 426 144 q 520 203 493 176 q 567 263 547 229 q 597 332 586 297 m 436 456 q 424 479 425 467 q 433 511 424 492 q 447 547 444 535 q 446 574 450 560 q 429 599 442 589 q 401 608 417 608 q 344 572 369 608 q 307 479 318 536 q 304 445 304 456 q 307 419 304 435 q 340 349 318 379 q 393 304 363 319 q 436 288 419 292 q 468 290 453 285 q 494 305 483 293 q 501 325 504 317 q 507 340 499 332 q 524 347 515 347 q 550 307 550 347 q 534 269 549 283 q 499 246 519 254 q 456 234 479 238 q 415 229 433 231 q 372 231 388 229 q 338 236 357 232 q 311 244 324 240 q 294 250 299 247 q 233 301 257 269 q 201 372 210 333 q 197 454 192 411 q 225 539 203 497 q 261 583 236 560 q 314 618 286 606 q 332 626 325 624 q 347 631 339 629 q 369 633 356 632 q 404 633 382 633 q 438 633 425 633 q 460 631 451 632 q 476 628 469 631 q 490 621 482 625 q 533 585 517 610 q 551 532 549 560 q 551 506 553 513 q 540 483 549 499 q 513 456 528 464 q 472 446 499 449 q 449 446 454 444 q 436 456 443 447 z "},"":{"ha":0,"x_min":0,"x_max":0,"o":""},"":{"ha":469,"x_min":50,"x_max":442,"o":"m 397 869 q 399 688 442 782 q 378 654 389 668 q 353 625 368 640 q 284 583 322 596 q 207 574 246 569 q 110 617 150 581 q 54 711 69 653 q 50 760 50 731 q 56 810 50 790 q 77 863 63 839 q 113 910 92 888 q 253 964 171 968 q 365 913 318 963 q 385 892 379 900 q 397 869 390 885 m 361 724 q 364 746 364 735 q 364 776 364 757 q 358 820 363 804 q 343 860 354 836 q 285 925 322 904 q 207 935 247 946 q 153 902 176 926 q 118 844 131 878 q 104 772 106 811 q 117 696 103 733 q 156 633 131 658 q 214 600 182 607 q 235 597 226 597 q 257 600 243 597 q 323 642 294 608 q 361 724 351 676 m 297 708 q 317 672 307 679 q 324 657 328 661 q 300 651 321 653 q 272 651 282 649 q 263 657 265 653 q 251 692 261 661 q 245 711 249 703 q 240 721 242 719 q 224 721 236 728 q 219 715 219 718 q 218 696 218 711 q 224 667 218 676 q 226 658 226 660 q 224 653 226 657 q 215 650 221 650 q 190 650 208 650 q 169 651 179 650 q 157 653 160 651 q 158 668 149 657 q 165 683 163 672 q 165 715 165 688 q 165 773 165 742 q 165 831 165 804 q 164 860 164 857 l 157 874 q 151 882 151 881 q 154 886 151 883 q 165 890 157 889 q 207 890 172 890 q 244 889 226 890 q 276 882 261 888 q 301 864 290 876 q 318 831 313 851 q 299 753 331 786 q 294 747 296 750 q 290 742 292 744 l 286 738 q 289 729 288 733 q 297 708 293 721 m 247 763 q 267 781 258 767 q 276 807 276 794 q 271 832 276 819 q 258 850 265 844 q 240 858 251 856 q 224 857 229 860 q 219 848 219 854 q 218 808 218 842 q 219 771 218 778 q 222 761 219 764 q 247 763 232 756 z "},"":{"ha":663,"x_min":43,"x_max":621,"o":"m 317 757 q 260 791 281 765 q 239 851 239 817 q 270 922 239 896 q 339 949 301 949 q 404 924 375 949 q 438 858 436 896 q 411 788 439 819 q 367 760 396 769 q 317 757 338 750 m 611 250 q 617 238 615 243 q 619 227 618 233 q 620 210 621 221 q 619 182 619 200 q 619 153 619 164 q 617 136 618 143 q 613 124 615 129 q 607 110 611 118 q 561 53 589 75 q 501 19 533 32 q 432 2 468 7 q 360 -3 396 -3 q 303 -3 331 -3 q 268 0 276 -3 q 203 12 235 4 q 145 33 172 19 q 95 69 118 47 q 56 122 72 90 q 49 140 51 133 q 44 152 46 146 q 43 167 43 158 q 43 189 43 175 q 58 270 43 239 q 110 326 74 301 q 185 382 156 358 q 232 433 214 406 q 260 496 250 460 q 275 588 269 532 q 313 672 286 672 q 326 667 318 672 q 340 655 333 663 q 353 640 347 647 q 360 626 358 632 q 369 591 365 613 q 375 544 374 569 q 375 494 376 519 q 369 447 374 468 q 338 353 361 397 q 272 264 314 308 q 247 226 258 250 q 232 185 235 201 q 238 129 228 157 q 268 85 249 101 q 331 64 294 64 q 374 73 358 64 q 399 98 390 82 q 409 134 407 114 q 413 175 411 154 q 418 231 415 214 q 429 260 421 249 q 472 291 446 281 q 526 301 499 301 q 611 250 588 301 z "},"":{"ha":826,"x_min":-8,"x_max":833,"o":"m 371 1083 q 355 1100 369 1085 q 324 1134 340 1115 q 291 1171 307 1153 q 271 1194 275 1189 l 265 1203 l 272 1208 q 290 1217 281 1215 q 343 1200 317 1225 q 364 1180 347 1197 q 398 1142 381 1163 q 429 1106 415 1122 q 443 1088 443 1089 q 433 1079 443 1085 q 418 1073 425 1075 q 400 1072 411 1071 q 371 1083 383 1072 m 800 88 q 826 47 819 72 q 822 8 833 22 l 815 0 l 651 -4 q 523 -6 564 -6 q 476 -3 482 -6 q 469 3 474 -1 q 461 10 464 7 q 458 20 457 17 q 463 39 458 24 q 469 55 465 46 q 476 68 474 64 q 484 81 482 75 q 485 98 486 86 q 480 132 485 110 q 465 194 475 154 q 452 242 457 232 q 436 256 447 253 q 406 251 431 257 q 353 238 382 246 q 297 221 324 229 q 257 206 269 213 q 220 170 232 193 q 210 110 208 147 q 213 87 210 96 q 222 63 215 78 q 229 4 247 18 q 194 -4 225 0 q 131 -11 164 -8 q 115 -12 122 -11 q 106 -14 107 -12 q 97 -12 103 -18 q 83 -10 94 -11 q 58 -8 72 -10 q 19 -2 29 -6 q 4 13 8 1 q 31 90 -8 44 q 44 109 39 100 q 56 135 50 118 q 68 178 61 151 q 85 251 75 206 q 97 302 90 275 q 110 347 104 329 q 123 396 115 364 q 138 456 131 428 q 156 525 144 483 q 175 599 167 567 q 193 662 185 631 q 204 706 201 693 q 211 735 207 718 q 218 764 215 753 q 224 794 222 779 q 225 829 225 810 q 224 864 225 856 q 215 886 222 872 q 236 960 186 939 q 263 965 243 963 q 306 969 282 967 q 354 972 329 971 q 396 971 379 972 q 436 969 410 969 q 486 967 463 968 q 552 961 532 965 q 583 946 572 957 q 591 926 593 938 q 574 889 589 915 q 558 860 563 872 q 553 840 554 849 q 556 791 550 822 q 569 732 561 760 q 585 685 574 722 q 613 596 597 647 q 647 488 629 544 q 681 381 665 431 q 708 293 694 336 q 736 206 722 250 q 765 128 751 154 q 800 88 779 103 m 403 369 q 415 395 414 382 q 407 443 415 408 q 395 492 403 461 q 382 549 388 524 q 368 606 375 575 q 357 654 361 636 q 349 688 353 672 q 344 708 346 703 q 341 719 342 718 q 338 713 340 719 q 332 690 336 708 q 322 647 328 671 q 308 577 314 607 q 296 523 301 547 q 285 478 290 499 q 276 435 281 457 q 265 381 269 401 q 259 351 261 361 q 258 335 257 340 q 260 326 258 331 q 267 318 264 318 q 285 325 269 318 q 304 331 292 328 q 328 338 317 335 q 374 353 351 343 q 403 369 396 363 z "},"":{"ha":826,"x_min":-8,"x_max":833,"o":"m 415 1079 q 406 1088 406 1085 q 419 1106 406 1089 q 451 1142 433 1122 q 485 1179 469 1161 q 506 1200 501 1197 q 558 1217 532 1225 q 576 1208 568 1215 l 585 1203 l 578 1194 q 558 1171 574 1189 q 525 1134 542 1153 q 494 1100 508 1115 q 478 1083 481 1085 q 465 1074 471 1076 q 449 1072 460 1072 q 431 1073 438 1071 q 415 1079 424 1075 m 800 88 q 826 47 819 72 q 822 8 833 22 l 815 0 l 651 -4 q 523 -6 564 -6 q 476 -3 482 -6 q 469 3 474 -1 q 461 10 464 7 q 458 20 457 17 q 463 39 458 24 q 469 55 465 46 q 476 68 474 64 q 484 81 482 75 q 485 98 486 86 q 480 132 485 110 q 465 194 475 154 q 452 242 457 232 q 436 256 447 253 q 406 251 431 257 q 353 238 382 246 q 297 221 324 229 q 257 206 269 213 q 220 170 232 193 q 210 110 208 147 q 213 87 210 96 q 222 63 215 78 q 229 4 247 18 q 194 -4 225 0 q 131 -11 164 -8 q 115 -12 122 -11 q 106 -14 107 -12 q 97 -12 103 -18 q 83 -10 94 -11 q 58 -8 72 -10 q 19 -2 29 -6 q 4 13 8 1 q 31 90 -8 44 q 44 109 39 100 q 56 135 50 118 q 68 178 61 151 q 85 251 75 206 q 97 302 90 275 q 110 347 104 329 q 123 396 115 364 q 138 456 131 428 q 156 525 144 483 q 175 599 167 567 q 193 662 185 631 q 204 706 201 693 q 211 735 207 718 q 218 764 215 753 q 224 794 222 779 q 225 829 225 810 q 224 864 225 856 q 215 886 222 872 q 236 960 186 939 q 263 965 243 963 q 306 969 282 967 q 354 972 329 971 q 396 971 379 972 q 436 969 410 969 q 486 967 463 968 q 552 961 532 965 q 583 946 572 957 q 591 926 593 938 q 574 889 589 915 q 558 860 563 872 q 553 840 554 849 q 556 791 550 822 q 569 732 561 760 q 585 685 574 722 q 613 596 597 647 q 647 488 629 544 q 681 381 665 431 q 708 293 694 336 q 736 206 722 250 q 765 128 751 154 q 800 88 779 103 m 403 369 q 415 395 414 382 q 407 443 415 408 q 395 492 403 461 q 382 549 388 524 q 368 606 375 575 q 357 654 361 636 q 349 688 353 672 q 344 708 346 703 q 341 719 342 718 q 338 713 340 719 q 332 690 336 708 q 322 647 328 671 q 308 577 314 607 q 296 523 301 547 q 285 478 290 499 q 276 435 281 457 q 265 381 269 401 q 259 351 261 361 q 258 335 257 340 q 260 326 258 331 q 267 318 264 318 q 285 325 269 318 q 304 331 292 328 q 328 338 317 335 q 374 353 351 343 q 403 369 396 363 z "},"":{"ha":826,"x_min":-8,"x_max":833,"o":"m 306 1065 q 301 1075 301 1067 q 304 1092 300 1083 q 319 1113 307 1096 q 348 1151 332 1131 q 377 1190 364 1172 q 394 1210 390 1207 q 404 1218 401 1217 q 410 1217 407 1219 q 430 1194 414 1214 q 463 1150 446 1174 q 493 1105 479 1126 q 507 1078 507 1083 q 497 1064 507 1065 q 469 1064 478 1061 q 450 1074 458 1067 q 424 1110 442 1082 q 403 1138 407 1133 q 398 1136 400 1139 q 389 1124 396 1133 q 358 1083 371 1096 q 336 1067 346 1069 q 321 1064 332 1064 q 306 1065 310 1064 m 800 88 q 826 47 819 72 q 822 8 833 22 l 815 0 l 651 -4 q 523 -6 564 -6 q 476 -3 482 -6 q 469 3 474 -1 q 461 10 464 7 q 458 20 457 17 q 463 39 458 24 q 469 55 465 46 q 476 68 474 64 q 484 81 482 75 q 485 98 486 86 q 480 132 485 110 q 465 194 475 154 q 452 242 457 232 q 436 256 447 253 q 406 251 431 257 q 353 238 382 246 q 297 221 324 229 q 257 206 269 213 q 220 170 232 193 q 210 110 208 147 q 213 87 210 96 q 222 63 215 78 q 229 4 247 18 q 194 -4 225 0 q 131 -11 164 -8 q 115 -12 122 -11 q 106 -14 107 -12 q 97 -12 103 -18 q 83 -10 94 -11 q 58 -8 72 -10 q 19 -2 29 -6 q 4 13 8 1 q 31 90 -8 44 q 44 109 39 100 q 56 135 50 118 q 68 178 61 151 q 85 251 75 206 q 97 302 90 275 q 110 347 104 329 q 123 396 115 364 q 138 456 131 428 q 156 525 144 483 q 175 599 167 567 q 193 662 185 631 q 204 706 201 693 q 211 735 207 718 q 218 764 215 753 q 224 794 222 779 q 225 829 225 810 q 224 864 225 856 q 215 886 222 872 q 236 960 186 939 q 263 965 243 963 q 306 969 282 967 q 354 972 329 971 q 396 971 379 972 q 436 969 410 969 q 486 967 463 968 q 552 961 532 965 q 583 946 572 957 q 591 926 593 938 q 574 889 589 915 q 558 860 563 872 q 553 840 554 849 q 556 791 550 822 q 569 732 561 760 q 585 685 574 722 q 613 596 597 647 q 647 488 629 544 q 681 381 665 431 q 708 293 694 336 q 736 206 722 250 q 765 128 751 154 q 800 88 779 103 m 403 369 q 415 395 414 382 q 407 443 415 408 q 395 492 403 461 q 382 549 388 524 q 368 606 375 575 q 357 654 361 636 q 349 688 353 672 q 344 708 346 703 q 341 719 342 718 q 338 713 340 719 q 332 690 336 708 q 322 647 328 671 q 308 577 314 607 q 296 523 301 547 q 285 478 290 499 q 276 435 281 457 q 265 381 269 401 q 259 351 261 361 q 258 335 257 340 q 260 326 258 331 q 267 318 264 318 q 285 325 269 318 q 304 331 292 328 q 328 338 317 335 q 374 353 351 343 q 403 369 396 363 z "},"":{"ha":826,"x_min":-8,"x_max":833,"o":"m 324 1097 q 318 1106 321 1100 q 314 1119 315 1113 q 315 1138 313 1126 q 322 1158 318 1149 q 338 1177 328 1169 q 358 1185 347 1185 q 419 1157 376 1185 q 464 1138 450 1138 q 475 1143 471 1138 q 481 1160 478 1146 q 492 1185 485 1179 q 503 1185 496 1186 q 513 1175 510 1181 q 515 1167 515 1171 q 515 1153 515 1164 q 514 1140 514 1146 q 513 1132 514 1135 q 505 1119 510 1125 q 494 1108 500 1113 q 486 1105 489 1106 q 475 1104 483 1104 q 465 1105 468 1104 q 454 1110 461 1106 q 444 1115 450 1111 q 435 1121 439 1118 q 399 1144 408 1139 q 383 1151 390 1149 q 363 1150 372 1154 q 353 1125 354 1144 q 344 1100 351 1106 q 333 1094 339 1094 q 324 1097 329 1094 m 800 88 q 826 47 819 72 q 822 8 833 22 l 815 0 l 651 -4 q 523 -6 564 -6 q 476 -3 482 -6 q 469 3 474 -1 q 461 10 464 7 q 458 20 457 17 q 463 39 458 24 q 469 55 465 46 q 476 68 474 64 q 484 81 482 75 q 485 98 486 86 q 480 132 485 110 q 465 194 475 154 q 452 242 457 232 q 436 256 447 253 q 406 251 431 257 q 353 238 382 246 q 297 221 324 229 q 257 206 269 213 q 220 170 232 193 q 210 110 208 147 q 213 87 210 96 q 222 63 215 78 q 229 4 247 18 q 194 -4 225 0 q 131 -11 164 -8 q 115 -12 122 -11 q 106 -14 107 -12 q 97 -12 103 -18 q 83 -10 94 -11 q 58 -8 72 -10 q 19 -2 29 -6 q 4 13 8 1 q 31 90 -8 44 q 44 109 39 100 q 56 135 50 118 q 68 178 61 151 q 85 251 75 206 q 97 302 90 275 q 110 347 104 329 q 123 396 115 364 q 138 456 131 428 q 156 525 144 483 q 175 599 167 567 q 193 662 185 631 q 204 706 201 693 q 211 735 207 718 q 218 764 215 753 q 224 794 222 779 q 225 829 225 810 q 224 864 225 856 q 215 886 222 872 q 236 960 186 939 q 263 965 243 963 q 306 969 282 967 q 354 972 329 971 q 396 971 379 972 q 436 969 410 969 q 486 967 463 968 q 552 961 532 965 q 583 946 572 957 q 591 926 593 938 q 574 889 589 915 q 558 860 563 872 q 553 840 554 849 q 556 791 550 822 q 569 732 561 760 q 585 685 574 722 q 613 596 597 647 q 647 488 629 544 q 681 381 665 431 q 708 293 694 336 q 736 206 722 250 q 765 128 751 154 q 800 88 779 103 m 403 369 q 415 395 414 382 q 407 443 415 408 q 395 492 403 461 q 382 549 388 524 q 368 606 375 575 q 357 654 361 636 q 349 688 353 672 q 344 708 346 703 q 341 719 342 718 q 338 713 340 719 q 332 690 336 708 q 322 647 328 671 q 308 577 314 607 q 296 523 301 547 q 285 478 290 499 q 276 435 281 457 q 265 381 269 401 q 259 351 261 361 q 258 335 257 340 q 260 326 258 331 q 267 318 264 318 q 285 325 269 318 q 304 331 292 328 q 328 338 317 335 q 374 353 351 343 q 403 369 396 363 z "},"":{"ha":826,"x_min":-8,"x_max":833,"o":"m 319 1079 q 294 1103 304 1083 q 291 1113 292 1110 q 290 1125 290 1115 q 291 1138 290 1135 q 294 1147 292 1142 q 335 1176 308 1174 q 368 1163 354 1179 q 378 1147 376 1154 q 382 1128 381 1140 q 381 1115 382 1118 q 378 1104 381 1111 q 356 1081 368 1088 q 336 1076 347 1076 q 319 1078 324 1076 l 319 1079 m 468 1079 q 443 1103 453 1083 q 440 1113 440 1110 q 439 1125 439 1115 q 440 1138 439 1135 q 443 1147 440 1142 q 485 1176 457 1174 q 517 1163 503 1179 q 528 1147 525 1154 q 531 1128 531 1140 q 530 1115 531 1118 q 526 1104 529 1111 q 504 1081 517 1088 q 486 1076 496 1076 q 468 1078 472 1076 l 468 1079 m 800 88 q 826 47 819 72 q 822 8 833 22 l 815 0 l 651 -4 q 523 -6 564 -6 q 476 -3 482 -6 q 469 3 474 -1 q 461 10 464 7 q 458 20 457 17 q 463 39 458 24 q 469 55 465 46 q 476 68 474 64 q 484 81 482 75 q 485 98 486 86 q 480 132 485 110 q 465 194 475 154 q 452 242 457 232 q 436 256 447 253 q 406 251 431 257 q 353 238 382 246 q 297 221 324 229 q 257 206 269 213 q 220 170 232 193 q 210 110 208 147 q 213 87 210 96 q 222 63 215 78 q 229 4 247 18 q 194 -4 225 0 q 131 -11 164 -8 q 115 -12 122 -11 q 106 -14 107 -12 q 97 -12 103 -18 q 83 -10 94 -11 q 58 -8 72 -10 q 19 -2 29 -6 q 4 13 8 1 q 31 90 -8 44 q 44 109 39 100 q 56 135 50 118 q 68 178 61 151 q 85 251 75 206 q 97 302 90 275 q 110 347 104 329 q 123 396 115 364 q 138 456 131 428 q 156 525 144 483 q 175 599 167 567 q 193 662 185 631 q 204 706 201 693 q 211 735 207 718 q 218 764 215 753 q 224 794 222 779 q 225 829 225 810 q 224 864 225 856 q 215 886 222 872 q 236 960 186 939 q 263 965 243 963 q 306 969 282 967 q 354 972 329 971 q 396 971 379 972 q 436 969 410 969 q 486 967 463 968 q 552 961 532 965 q 583 946 572 957 q 591 926 593 938 q 574 889 589 915 q 558 860 563 872 q 553 840 554 849 q 556 791 550 822 q 569 732 561 760 q 585 685 574 722 q 613 596 597 647 q 647 488 629 544 q 681 381 665 431 q 708 293 694 336 q 736 206 722 250 q 765 128 751 154 q 800 88 779 103 m 403 369 q 415 395 414 382 q 407 443 415 408 q 395 492 403 461 q 382 549 388 524 q 368 606 375 575 q 357 654 361 636 q 349 688 353 672 q 344 708 346 703 q 341 719 342 718 q 338 713 340 719 q 332 690 336 708 q 322 647 328 671 q 308 577 314 607 q 296 523 301 547 q 285 478 290 499 q 276 435 281 457 q 265 381 269 401 q 259 351 261 361 q 258 335 257 340 q 260 326 258 331 q 267 318 264 318 q 285 325 269 318 q 304 331 292 328 q 328 338 317 335 q 374 353 351 343 q 403 369 396 363 z "},"":{"ha":826,"x_min":-8,"x_max":833,"o":"m 383 1081 q 349 1103 363 1086 q 336 1140 336 1119 q 356 1185 336 1168 q 399 1201 375 1201 q 429 1194 417 1201 q 456 1165 447 1183 q 460 1126 465 1146 q 430 1088 453 1101 q 383 1081 407 1074 m 397 1179 q 382 1133 382 1167 q 388 1107 382 1115 q 401 1106 394 1099 q 412 1122 408 1111 q 415 1145 415 1133 q 413 1167 415 1157 q 404 1179 411 1176 q 397 1179 401 1181 m 800 88 q 826 47 819 72 q 822 8 833 22 l 815 0 l 651 -4 q 523 -6 564 -6 q 476 -3 482 -6 q 469 3 474 -1 q 461 10 464 7 q 458 20 457 17 q 463 39 458 24 q 469 55 465 46 q 476 68 474 64 q 484 81 482 75 q 485 98 486 86 q 480 132 485 110 q 465 194 475 154 q 452 242 457 232 q 436 256 447 253 q 406 251 431 257 q 353 238 382 246 q 297 221 324 229 q 257 206 269 213 q 220 170 232 193 q 210 110 208 147 q 213 87 210 96 q 222 63 215 78 q 229 4 247 18 q 194 -4 225 0 q 131 -11 164 -8 q 115 -12 122 -11 q 106 -14 107 -12 q 97 -12 103 -18 q 83 -10 94 -11 q 58 -8 72 -10 q 19 -2 29 -6 q 4 13 8 1 q 31 90 -8 44 q 44 109 39 100 q 56 135 50 118 q 68 178 61 151 q 85 251 75 206 q 97 302 90 275 q 110 347 104 329 q 123 396 115 364 q 138 456 131 428 q 156 525 144 483 q 175 599 167 567 q 193 662 185 631 q 204 706 201 693 q 211 735 207 718 q 218 764 215 753 q 224 794 222 779 q 225 829 225 810 q 224 864 225 856 q 215 886 222 872 q 236 960 186 939 q 263 965 243 963 q 306 969 282 967 q 354 972 329 971 q 396 971 379 972 q 436 969 410 969 q 486 967 463 968 q 552 961 532 965 q 583 946 572 957 q 591 926 593 938 q 574 889 589 915 q 558 860 563 872 q 553 840 554 849 q 556 791 550 822 q 569 732 561 760 q 585 685 574 722 q 613 596 597 647 q 647 488 629 544 q 681 381 665 431 q 708 293 694 336 q 736 206 722 250 q 765 128 751 154 q 800 88 779 103 m 403 369 q 415 395 414 382 q 407 443 415 408 q 395 492 403 461 q 382 549 388 524 q 368 606 375 575 q 357 654 361 636 q 349 688 353 672 q 344 708 346 703 q 341 719 342 718 q 338 713 340 719 q 332 690 336 708 q 322 647 328 671 q 308 577 314 607 q 296 523 301 547 q 285 478 290 499 q 276 435 281 457 q 265 381 269 401 q 259 351 261 361 q 258 335 257 340 q 260 326 258 331 q 267 318 264 318 q 285 325 269 318 q 304 331 292 328 q 328 338 317 335 q 374 353 351 343 q 403 369 396 363 z "},"":{"ha":1153,"x_min":-8,"x_max":1107,"o":"m 1100 254 q 1104 224 1103 247 q 1106 173 1106 201 q 1106 114 1107 144 q 1104 63 1106 83 q 1101 32 1103 39 q 1093 18 1100 25 q 1064 7 1082 8 q 1040 6 1060 7 q 990 5 1021 6 q 921 3 960 4 q 840 3 882 3 l 818 3 l 817 0 l 651 -4 q 524 -6 565 -6 q 476 -3 482 -6 q 461 10 468 0 q 458 17 458 14 q 458 26 457 19 q 457 42 457 31 q 462 64 457 56 q 486 90 467 72 q 481 124 486 101 q 465 194 476 146 q 452 242 457 232 q 436 254 447 253 q 406 251 431 256 q 353 238 382 246 q 297 221 324 229 q 257 206 269 213 q 220 170 232 193 q 210 110 208 147 q 213 87 210 96 q 222 63 215 78 q 229 4 247 18 q 194 -4 225 0 q 131 -11 164 -8 q 106 -14 111 -11 q 97 -12 103 -18 q 83 -10 94 -11 q 58 -8 72 -10 q 19 -2 29 -6 q 4 13 8 1 q 31 90 -8 44 q 44 109 39 100 q 56 135 50 118 q 68 178 61 151 q 85 251 75 206 q 97 302 90 275 q 110 347 104 329 q 123 396 115 364 q 138 456 131 428 q 156 525 144 483 q 175 599 167 567 q 193 662 185 631 q 204 706 201 693 q 211 735 207 718 q 218 764 215 753 q 224 794 222 779 q 225 829 225 810 q 224 864 225 856 q 214 886 222 872 q 236 958 186 939 q 263 964 243 961 q 306 969 282 967 q 354 971 329 971 q 396 969 379 971 q 610 966 503 963 q 826 968 718 969 q 969 967 918 968 q 1044 966 1019 967 q 1076 964 1069 965 q 1085 960 1082 963 q 1096 947 1092 953 q 1102 928 1100 942 q 1104 890 1104 915 q 1104 819 1104 865 q 1104 759 1104 782 q 1103 723 1104 736 q 1102 703 1103 710 q 1099 690 1101 696 q 1060 663 1088 663 q 1038 669 1049 663 q 1020 688 1028 676 q 1008 711 1013 699 q 1004 733 1004 724 q 981 778 1003 754 q 932 811 960 803 q 886 822 911 818 q 838 825 861 825 q 769 814 803 825 q 721 767 736 803 q 718 755 719 761 q 715 739 717 749 q 714 713 714 729 q 714 671 714 697 q 714 630 714 646 q 715 604 714 614 q 717 589 715 594 q 721 578 718 583 q 736 560 726 565 q 759 556 740 557 q 799 553 778 554 q 842 553 821 553 q 872 556 863 554 q 913 574 892 560 q 943 588 932 588 q 958 581 949 588 q 973 556 969 572 q 974 503 976 539 q 967 442 971 464 q 957 407 964 419 q 946 392 951 396 q 929 389 940 389 q 910 397 921 389 q 900 410 900 404 q 885 419 900 413 q 863 424 874 424 q 821 424 851 425 q 769 417 785 421 q 732 401 753 414 q 719 390 724 396 q 710 373 714 383 q 706 347 707 363 q 706 303 706 331 l 706 289 q 706 233 706 258 q 708 203 707 208 q 726 176 713 189 q 754 154 739 163 q 767 149 758 151 q 792 145 776 146 q 824 144 807 144 q 892 149 865 144 q 940 167 919 154 q 978 205 961 181 q 1014 267 994 229 q 1022 279 1017 272 q 1031 290 1026 286 q 1042 299 1038 297 q 1057 299 1046 300 q 1085 285 1072 297 q 1100 254 1094 272 m 403 369 q 415 395 414 382 q 407 443 415 408 q 394 492 401 461 q 382 549 388 524 q 368 606 375 575 q 357 654 361 636 q 349 687 353 671 q 344 708 346 703 q 338 713 340 719 q 332 689 336 708 q 322 646 328 669 q 308 577 314 607 q 296 523 301 547 q 285 478 290 499 q 276 435 281 457 q 265 381 269 401 q 259 351 261 361 q 258 335 257 340 q 260 326 258 331 q 267 318 264 318 q 285 325 269 318 q 304 331 292 328 q 328 338 317 335 q 374 353 351 343 q 403 369 396 363 z "},"":{"ha":735,"x_min":36,"x_max":704,"o":"m 703 214 q 701 185 704 203 q 694 150 699 168 q 685 116 690 132 q 674 92 679 100 q 619 38 651 58 q 549 5 586 17 q 473 -11 513 -7 q 396 -15 433 -15 q 391 -66 393 -42 q 389 -93 389 -90 q 388 -96 388 -94 q 417 -114 400 -104 q 448 -133 433 -124 q 474 -151 463 -143 q 488 -161 485 -158 q 496 -171 494 -168 q 494 -176 497 -174 q 473 -197 492 -181 q 431 -233 454 -214 q 388 -267 408 -251 q 363 -283 368 -282 q 347 -274 351 -283 q 345 -258 346 -264 q 346 -247 344 -251 q 355 -226 347 -236 q 389 -197 363 -217 q 407 -183 400 -189 q 414 -175 414 -176 q 413 -169 415 -172 q 400 -161 411 -167 q 353 -129 365 -142 q 339 -112 343 -122 q 338 -110 339 -111 q 338 -106 338 -108 l 338 -104 q 336 -92 336 -99 q 336 -83 336 -86 q 339 -79 336 -82 q 340 -67 340 -75 q 344 -37 343 -51 q 346 -12 344 -24 q 305 -5 322 -10 q 260 11 288 0 q 153 87 196 39 q 86 193 111 135 q 50 317 61 251 q 38 446 39 382 q 37 500 36 478 q 40 544 38 522 q 49 592 43 567 q 65 656 56 618 q 85 719 75 692 q 107 771 94 747 q 136 817 119 794 q 176 867 153 840 q 226 913 203 896 q 283 947 249 931 q 311 960 299 956 q 338 968 324 965 q 372 972 353 971 q 417 972 390 972 q 520 958 479 972 q 593 914 561 944 q 633 856 613 894 q 663 785 654 817 q 671 726 669 761 q 669 668 672 692 q 659 629 667 650 q 641 589 651 608 q 619 554 631 569 q 599 532 608 539 q 559 515 583 522 q 515 508 535 508 q 481 515 493 508 q 457 540 468 521 q 448 560 450 553 q 447 594 446 568 q 448 619 447 610 q 451 640 449 628 q 460 669 454 651 q 476 717 465 686 q 486 748 485 738 q 486 788 488 758 q 483 819 485 804 q 481 842 482 835 q 469 865 478 853 q 449 886 460 876 q 428 902 439 896 q 408 908 417 908 q 383 897 399 908 q 349 866 367 885 q 314 824 331 847 q 285 775 297 800 q 256 694 268 740 q 237 599 243 647 q 230 506 231 551 q 238 426 229 460 q 258 358 246 390 q 289 288 269 325 q 325 224 308 250 q 360 181 342 199 q 402 151 379 163 q 454 131 425 139 q 478 126 468 128 q 497 124 488 124 q 521 126 510 124 q 547 136 532 129 q 594 172 581 151 q 607 224 608 192 q 614 257 607 247 q 653 279 631 279 q 685 263 671 279 q 703 214 700 246 z "},"":{"ha":729,"x_min":33,"x_max":683,"o":"m 336 1083 q 320 1100 335 1085 q 289 1134 306 1115 q 257 1171 272 1153 q 238 1194 242 1189 l 231 1203 l 239 1208 q 257 1217 247 1215 q 310 1200 283 1225 q 330 1179 314 1197 q 364 1142 346 1161 q 396 1106 382 1122 q 410 1088 410 1089 q 400 1079 410 1085 q 385 1073 392 1075 q 367 1072 378 1071 q 350 1074 356 1072 q 338 1083 344 1076 l 336 1083 m 678 254 q 681 224 679 247 q 683 173 682 201 q 683 114 683 144 q 682 63 683 83 q 678 33 679 39 q 669 19 676 26 q 640 7 661 8 q 617 6 636 7 q 567 5 597 6 q 497 3 536 4 q 417 3 458 3 q 333 2 375 3 q 254 1 290 1 q 190 0 218 0 q 150 0 163 0 q 101 -1 125 -1 q 71 1 78 0 q 33 42 33 6 q 39 65 33 57 q 67 93 44 74 q 88 115 81 106 q 98 151 94 124 q 101 240 101 179 q 101 415 101 300 q 101 597 101 525 q 99 713 100 668 q 94 783 97 758 q 86 821 90 807 q 56 879 74 861 q 42 903 47 890 q 36 932 36 917 q 40 957 36 951 q 56 969 43 963 q 65 974 61 972 q 75 975 69 975 q 89 975 81 975 q 111 974 97 975 q 147 973 119 974 q 214 972 174 972 q 303 970 254 971 q 404 969 353 969 q 547 967 496 968 q 622 966 597 967 q 653 964 647 965 q 663 960 660 963 q 674 947 669 953 q 680 928 678 942 q 682 890 682 915 q 682 819 682 865 q 682 759 682 782 q 681 723 682 736 q 679 703 681 710 q 675 690 678 696 q 638 663 664 663 q 613 671 625 663 q 603 682 608 674 q 592 699 597 690 q 584 718 588 708 q 581 733 581 728 q 558 778 581 754 q 508 811 536 801 q 464 822 489 818 q 415 825 439 825 q 347 814 381 825 q 297 767 313 803 q 294 755 296 761 q 292 739 293 749 q 291 713 292 729 q 290 671 290 697 q 290 630 290 646 q 292 604 290 614 q 294 589 293 594 q 297 579 296 583 q 314 560 304 564 q 337 556 318 557 q 377 553 356 554 q 419 553 399 553 q 450 556 440 554 q 469 563 458 558 q 490 574 481 567 q 519 588 510 588 q 536 581 526 588 q 550 556 547 572 q 550 503 553 539 q 535 407 546 429 q 524 392 529 396 q 506 389 518 389 q 488 397 499 389 q 478 410 478 404 q 461 419 478 413 q 440 424 451 424 q 399 424 428 425 q 347 417 363 421 q 310 401 331 414 q 294 389 300 396 q 286 371 289 382 q 283 340 283 360 q 282 289 282 321 q 283 234 282 258 q 286 203 283 210 q 308 170 290 186 q 344 149 325 154 q 401 144 364 144 q 469 149 442 144 q 517 167 496 154 q 555 205 538 181 q 590 267 572 229 q 599 279 593 272 q 608 290 604 286 q 619 299 615 297 q 633 299 622 300 q 661 285 651 297 q 670 269 665 278 q 678 254 675 261 z "},"":{"ha":729,"x_min":33,"x_max":683,"o":"m 344 1079 q 336 1088 336 1086 q 350 1106 336 1089 q 381 1142 364 1122 q 415 1180 399 1163 q 436 1200 432 1197 q 489 1217 463 1225 q 507 1208 499 1215 l 514 1203 l 508 1194 q 488 1171 504 1189 q 456 1134 472 1153 q 425 1100 439 1115 q 408 1083 411 1085 q 379 1072 396 1072 q 361 1073 368 1071 q 344 1079 354 1075 m 678 254 q 681 224 679 247 q 683 173 682 201 q 683 114 683 144 q 682 63 683 83 q 678 33 679 39 q 669 19 676 26 q 640 7 661 8 q 617 6 636 7 q 567 5 597 6 q 497 3 536 4 q 417 3 458 3 q 333 2 375 3 q 254 1 290 1 q 190 0 218 0 q 150 0 163 0 q 101 -1 125 -1 q 71 1 78 0 q 33 42 33 6 q 39 65 33 57 q 67 93 44 74 q 88 115 81 106 q 98 151 94 124 q 101 240 101 179 q 101 415 101 300 q 101 597 101 525 q 99 713 100 668 q 94 783 97 758 q 86 821 90 807 q 56 879 74 861 q 42 903 47 890 q 36 932 36 917 q 40 957 36 951 q 56 969 43 963 q 65 974 61 972 q 75 975 69 975 q 89 975 81 975 q 111 974 97 975 q 147 973 119 974 q 214 972 174 972 q 303 970 254 971 q 404 969 353 969 q 547 967 496 968 q 622 966 597 967 q 653 964 647 965 q 663 960 660 963 q 674 947 669 953 q 680 928 678 942 q 682 890 682 915 q 682 819 682 865 q 682 759 682 782 q 681 723 682 736 q 679 703 681 710 q 675 690 678 696 q 638 663 664 663 q 613 671 625 663 q 603 682 608 674 q 592 699 597 690 q 584 718 588 708 q 581 733 581 728 q 558 778 581 754 q 508 811 536 801 q 464 822 489 818 q 415 825 439 825 q 347 814 381 825 q 297 767 313 803 q 294 755 296 761 q 292 739 293 749 q 291 713 292 729 q 290 671 290 697 q 290 630 290 646 q 292 604 290 614 q 294 589 293 594 q 297 579 296 583 q 314 560 304 564 q 337 556 318 557 q 377 553 356 554 q 419 553 399 553 q 450 556 440 554 q 469 563 458 558 q 490 574 481 567 q 519 588 510 588 q 536 581 526 588 q 550 556 547 572 q 550 503 553 539 q 535 407 546 429 q 524 392 529 396 q 506 389 518 389 q 488 397 499 389 q 478 410 478 404 q 461 419 478 413 q 440 424 451 424 q 399 424 428 425 q 347 417 363 421 q 310 401 331 414 q 294 389 300 396 q 286 371 289 382 q 283 340 283 360 q 282 289 282 321 q 283 234 282 258 q 286 203 283 210 q 308 170 290 186 q 344 149 325 154 q 401 144 364 144 q 469 149 442 144 q 517 167 496 154 q 555 205 538 181 q 590 267 572 229 q 599 279 593 272 q 608 290 604 286 q 619 299 615 297 q 633 299 622 300 q 661 285 651 297 q 670 269 665 278 q 678 254 675 261 z "},"":{"ha":729,"x_min":33,"x_max":683,"o":"m 281 1065 q 275 1075 275 1067 q 279 1092 275 1083 q 293 1113 281 1096 q 322 1151 306 1131 q 351 1190 338 1172 q 368 1210 364 1207 q 378 1218 375 1217 q 383 1217 381 1219 q 403 1194 388 1214 q 437 1150 419 1174 q 467 1105 454 1126 q 481 1078 481 1083 q 471 1064 481 1065 q 444 1064 453 1063 q 425 1074 433 1067 q 399 1110 417 1082 q 385 1128 390 1121 q 378 1138 379 1136 q 372 1136 375 1139 q 363 1124 369 1133 q 332 1083 344 1096 q 310 1067 319 1069 q 295 1064 306 1064 q 281 1065 285 1064 m 678 254 q 681 224 679 247 q 683 173 682 201 q 683 114 683 144 q 682 63 683 83 q 678 33 679 39 q 669 19 676 26 q 640 7 661 8 q 617 6 636 7 q 567 5 597 6 q 497 3 536 4 q 417 3 458 3 q 333 2 375 3 q 254 1 290 1 q 190 0 218 0 q 150 0 163 0 q 101 -1 125 -1 q 71 1 78 0 q 33 42 33 6 q 39 65 33 57 q 67 93 44 74 q 88 115 81 106 q 98 151 94 124 q 101 240 101 179 q 101 415 101 300 q 101 597 101 525 q 99 713 100 668 q 94 783 97 758 q 86 821 90 807 q 56 879 74 861 q 42 903 47 890 q 36 932 36 917 q 40 957 36 951 q 56 969 43 963 q 65 974 61 972 q 75 975 69 975 q 89 975 81 975 q 111 974 97 975 q 147 973 119 974 q 214 972 174 972 q 303 970 254 971 q 404 969 353 969 q 547 967 496 968 q 622 966 597 967 q 653 964 647 965 q 663 960 660 963 q 674 947 669 953 q 680 928 678 942 q 682 890 682 915 q 682 819 682 865 q 682 759 682 782 q 681 723 682 736 q 679 703 681 710 q 675 690 678 696 q 638 663 664 663 q 613 671 625 663 q 603 682 608 674 q 592 699 597 690 q 584 718 588 708 q 581 733 581 728 q 558 778 581 754 q 508 811 536 801 q 464 822 489 818 q 415 825 439 825 q 347 814 381 825 q 297 767 313 803 q 294 755 296 761 q 292 739 293 749 q 291 713 292 729 q 290 671 290 697 q 290 630 290 646 q 292 604 290 614 q 294 589 293 594 q 297 579 296 583 q 314 560 304 564 q 337 556 318 557 q 377 553 356 554 q 419 553 399 553 q 450 556 440 554 q 469 563 458 558 q 490 574 481 567 q 519 588 510 588 q 536 581 526 588 q 550 556 547 572 q 550 503 553 539 q 535 407 546 429 q 524 392 529 396 q 506 389 518 389 q 488 397 499 389 q 478 410 478 404 q 461 419 478 413 q 440 424 451 424 q 399 424 428 425 q 347 417 363 421 q 310 401 331 414 q 294 389 300 396 q 286 371 289 382 q 283 340 283 360 q 282 289 282 321 q 283 234 282 258 q 286 203 283 210 q 308 170 290 186 q 344 149 325 154 q 401 144 364 144 q 469 149 442 144 q 517 167 496 154 q 555 205 538 181 q 590 267 572 229 q 599 279 593 272 q 608 290 604 286 q 619 299 615 297 q 633 299 622 300 q 661 285 651 297 q 670 269 665 278 q 678 254 675 261 z "},"":{"ha":729,"x_min":33,"x_max":683,"o":"m 317 1079 q 292 1103 301 1083 q 288 1113 289 1110 q 288 1125 288 1115 q 288 1138 288 1135 q 292 1147 289 1142 q 333 1176 306 1174 q 365 1163 351 1179 q 376 1147 374 1154 q 379 1128 379 1140 q 378 1115 379 1118 q 375 1104 378 1111 q 353 1081 365 1088 q 335 1076 344 1076 q 317 1078 321 1076 l 317 1079 m 465 1079 q 442 1103 449 1083 q 438 1113 439 1110 q 436 1125 436 1115 q 437 1138 436 1135 q 440 1147 438 1142 q 482 1176 454 1174 q 514 1163 500 1179 q 525 1147 522 1154 q 528 1128 528 1140 q 527 1115 528 1118 q 524 1104 526 1111 q 503 1081 518 1090 q 494 1077 497 1078 q 483 1076 490 1076 q 465 1078 469 1076 l 465 1079 m 678 254 q 681 224 679 247 q 683 173 682 201 q 683 114 683 144 q 682 63 683 83 q 678 33 679 39 q 669 19 676 26 q 640 7 661 8 q 617 6 636 7 q 567 5 597 6 q 497 3 536 4 q 417 3 458 3 q 333 2 375 3 q 254 1 290 1 q 190 0 218 0 q 150 0 163 0 q 101 -1 125 -1 q 71 1 78 0 q 33 42 33 6 q 39 65 33 57 q 67 93 44 74 q 88 115 81 106 q 98 151 94 124 q 101 240 101 179 q 101 415 101 300 q 101 597 101 525 q 99 713 100 668 q 94 783 97 758 q 86 821 90 807 q 56 879 74 861 q 42 903 47 890 q 36 932 36 917 q 40 957 36 951 q 56 969 43 963 q 65 974 61 972 q 75 975 69 975 q 89 975 81 975 q 111 974 97 975 q 147 973 119 974 q 214 972 174 972 q 303 970 254 971 q 404 969 353 969 q 547 967 496 968 q 622 966 597 967 q 653 964 647 965 q 663 960 660 963 q 674 947 669 953 q 680 928 678 942 q 682 890 682 915 q 682 819 682 865 q 682 759 682 782 q 681 723 682 736 q 679 703 681 710 q 675 690 678 696 q 638 663 664 663 q 613 671 625 663 q 603 682 608 674 q 592 699 597 690 q 584 718 588 708 q 581 733 581 728 q 558 778 581 754 q 508 811 536 801 q 464 822 489 818 q 415 825 439 825 q 347 814 381 825 q 297 767 313 803 q 294 755 296 761 q 292 739 293 749 q 291 713 292 729 q 290 671 290 697 q 290 630 290 646 q 292 604 290 614 q 294 589 293 594 q 297 579 296 583 q 314 560 304 564 q 337 556 318 557 q 377 553 356 554 q 419 553 399 553 q 450 556 440 554 q 469 563 458 558 q 490 574 481 567 q 519 588 510 588 q 536 581 526 588 q 550 556 547 572 q 550 503 553 539 q 535 407 546 429 q 524 392 529 396 q 506 389 518 389 q 488 397 499 389 q 478 410 478 404 q 461 419 478 413 q 440 424 451 424 q 399 424 428 425 q 347 417 363 421 q 310 401 331 414 q 294 389 300 396 q 286 371 289 382 q 283 340 283 360 q 282 289 282 321 q 283 234 282 258 q 286 203 283 210 q 308 170 290 186 q 344 149 325 154 q 401 144 364 144 q 469 149 442 144 q 517 167 496 154 q 555 205 538 181 q 590 267 572 229 q 599 279 593 272 q 608 290 604 286 q 619 299 615 297 q 633 299 622 300 q 661 285 651 297 q 670 269 665 278 q 678 254 675 261 z "},"":{"ha":386,"x_min":33,"x_max":344,"o":"m 169 1083 q 153 1100 168 1085 q 122 1134 139 1115 q 90 1171 106 1153 q 69 1194 74 1189 l 64 1203 l 71 1208 q 89 1217 79 1215 q 142 1200 115 1225 q 163 1180 146 1197 q 197 1142 179 1163 q 228 1106 214 1122 q 242 1088 242 1089 q 233 1079 242 1086 q 217 1073 224 1075 q 199 1072 210 1071 q 169 1083 182 1072 m 303 139 q 313 90 307 108 q 328 60 318 72 q 335 48 332 54 q 339 38 339 42 q 331 17 339 26 q 313 6 324 8 q 283 2 307 4 q 227 -1 258 0 q 164 -1 196 -1 q 113 1 132 0 q 56 11 71 4 q 40 36 40 18 q 46 56 40 47 q 67 81 51 65 q 82 97 76 89 q 90 138 88 106 q 92 239 92 169 q 92 440 92 308 q 92 565 92 506 q 91 674 92 625 q 90 755 90 722 q 89 796 89 788 q 58 899 85 872 q 36 933 39 919 q 49 960 33 946 q 62 969 56 967 q 88 974 68 971 q 137 975 99 975 q 217 975 175 975 q 273 974 253 975 q 304 972 293 974 q 320 969 315 971 q 329 965 325 968 q 344 945 344 956 q 329 904 344 935 q 316 877 322 890 q 307 858 310 864 q 305 824 306 856 q 303 744 304 793 q 303 634 303 696 q 302 507 303 572 q 301 379 301 442 q 301 265 301 317 q 301 180 301 214 q 303 139 301 146 z "},"":{"ha":386,"x_min":33,"x_max":344,"o":"m 158 1079 q 149 1088 149 1085 q 163 1106 149 1089 q 194 1142 176 1122 q 229 1180 213 1163 q 250 1200 246 1197 q 301 1217 275 1225 q 319 1208 311 1215 l 328 1203 l 321 1194 q 301 1171 317 1189 q 269 1134 286 1153 q 239 1100 253 1115 q 222 1083 225 1085 q 208 1074 214 1076 q 192 1072 203 1072 q 174 1073 181 1071 q 158 1079 167 1075 m 303 139 q 313 90 307 108 q 328 60 318 72 q 335 48 332 54 q 339 38 339 42 q 331 17 339 26 q 313 6 324 8 q 283 2 307 4 q 227 -1 258 0 q 164 -1 196 -1 q 113 1 132 0 q 56 11 71 4 q 40 36 40 18 q 46 56 40 47 q 67 81 51 65 q 82 97 76 89 q 90 138 88 106 q 92 239 92 169 q 92 440 92 308 q 92 565 92 506 q 91 674 92 625 q 90 755 90 722 q 89 796 89 788 q 58 899 85 872 q 36 933 39 919 q 49 960 33 946 q 62 969 56 967 q 88 974 68 971 q 137 975 99 975 q 217 975 175 975 q 273 974 253 975 q 304 972 293 974 q 320 969 315 971 q 329 965 325 968 q 344 945 344 956 q 329 904 344 935 q 316 877 322 890 q 307 858 310 864 q 305 824 306 856 q 303 744 304 793 q 303 634 303 696 q 302 507 303 572 q 301 379 301 442 q 301 265 301 317 q 301 180 301 214 q 303 139 301 146 z "},"":{"ha":386,"x_min":33,"x_max":344,"o":"m 92 1065 q 87 1075 88 1067 q 90 1092 86 1083 q 106 1113 93 1096 q 133 1151 118 1131 q 163 1190 149 1172 q 179 1210 176 1207 q 196 1217 192 1219 q 216 1194 200 1214 q 249 1150 232 1174 q 279 1105 265 1126 q 293 1078 293 1083 q 283 1064 293 1065 q 256 1064 264 1061 q 236 1074 244 1067 q 210 1110 228 1082 q 189 1138 193 1133 q 183 1136 186 1139 q 174 1124 181 1133 q 144 1083 157 1096 q 122 1067 132 1069 q 107 1064 118 1064 q 92 1065 96 1064 m 303 139 q 313 90 307 108 q 328 60 318 72 q 335 48 332 54 q 339 38 339 42 q 331 17 339 26 q 313 6 324 8 q 283 2 307 4 q 227 -1 258 0 q 164 -1 196 -1 q 113 1 132 0 q 56 11 71 4 q 40 36 40 18 q 46 56 40 47 q 67 81 51 65 q 82 97 76 89 q 90 138 88 106 q 92 239 92 169 q 92 440 92 308 q 92 565 92 506 q 91 674 92 625 q 90 755 90 722 q 89 796 89 788 q 58 899 85 872 q 36 933 39 919 q 49 960 33 946 q 62 969 56 967 q 88 974 68 971 q 137 975 99 975 q 217 975 175 975 q 273 974 253 975 q 304 972 293 974 q 320 969 315 971 q 329 965 325 968 q 344 945 344 956 q 329 904 344 935 q 316 877 322 890 q 307 858 310 864 q 305 824 306 856 q 303 744 304 793 q 303 634 303 696 q 302 507 303 572 q 301 379 301 442 q 301 265 301 317 q 301 180 301 214 q 303 139 301 146 z "},"":{"ha":386,"x_min":33,"x_max":344,"o":"m 99 1079 q 75 1103 82 1083 q 72 1113 72 1110 q 71 1125 71 1115 q 74 1147 71 1140 q 115 1176 88 1174 q 149 1163 132 1179 q 158 1147 156 1154 q 161 1128 161 1140 q 160 1115 161 1118 q 157 1104 160 1111 q 136 1081 151 1090 q 127 1077 131 1078 q 117 1076 124 1076 q 99 1078 103 1076 l 99 1079 m 247 1079 q 233 1088 240 1082 q 224 1103 226 1094 q 220 1113 221 1110 q 219 1125 219 1115 q 222 1147 219 1140 q 264 1176 236 1174 q 297 1163 281 1179 q 307 1147 304 1154 q 310 1128 310 1140 q 309 1115 310 1118 q 306 1104 308 1111 q 285 1081 300 1090 q 276 1077 279 1078 q 265 1076 272 1076 q 247 1078 251 1076 l 247 1079 m 303 139 q 313 90 307 108 q 328 60 318 72 q 335 48 332 54 q 339 38 339 42 q 331 17 339 26 q 313 6 324 8 q 283 2 307 4 q 227 -1 258 0 q 164 -1 196 -1 q 113 1 132 0 q 56 11 71 4 q 40 36 40 18 q 46 56 40 47 q 67 81 51 65 q 82 97 76 89 q 90 138 88 106 q 92 239 92 169 q 92 440 92 308 q 92 565 92 506 q 91 674 92 625 q 90 755 90 722 q 89 796 89 788 q 58 899 85 872 q 36 933 39 919 q 49 960 33 946 q 62 969 56 967 q 88 974 68 971 q 137 975 99 975 q 217 975 175 975 q 273 974 253 975 q 304 972 293 974 q 320 969 315 971 q 329 965 325 968 q 344 945 344 956 q 329 904 344 935 q 316 877 322 890 q 307 858 310 864 q 305 824 306 856 q 303 744 304 793 q 303 634 303 696 q 302 507 303 572 q 301 379 301 442 q 301 265 301 317 q 301 180 301 214 q 303 139 301 146 z "},"":{"ha":813,"x_min":32,"x_max":782,"o":"m 317 1097 q 311 1106 314 1100 q 307 1119 308 1113 q 308 1138 306 1126 q 315 1158 311 1149 q 331 1177 321 1169 q 351 1185 340 1185 q 413 1157 369 1185 q 457 1138 443 1138 q 468 1143 464 1138 q 474 1160 471 1146 q 485 1185 478 1179 q 494 1185 488 1186 q 504 1175 501 1182 q 508 1167 507 1171 q 507 1153 508 1164 q 506 1140 507 1146 q 506 1132 506 1135 q 498 1119 503 1125 q 488 1108 493 1113 q 479 1105 482 1106 q 468 1104 476 1104 q 458 1105 461 1104 q 447 1110 454 1106 q 438 1115 443 1111 q 428 1121 432 1118 q 392 1144 401 1139 q 376 1151 383 1149 q 356 1150 364 1156 q 346 1125 347 1146 q 338 1100 344 1106 q 326 1094 332 1094 q 317 1097 319 1094 m 722 731 q 719 679 721 703 q 717 619 718 656 q 715 526 715 583 q 713 376 714 469 q 712 257 713 303 q 712 183 711 211 q 713 138 713 154 q 715 108 714 122 q 736 44 724 51 q 739 26 739 42 q 731 1 739 10 q 725 -5 728 -3 q 717 -8 722 -7 q 701 -10 711 -10 q 675 -11 692 -11 q 629 -12 656 -12 q 585 -11 603 -12 q 553 -9 567 -10 q 539 -8 540 -8 q 521 8 535 -7 q 497 38 507 22 q 474 74 488 50 q 446 122 460 97 q 437 140 443 125 q 422 172 431 154 q 410 198 418 181 q 392 238 403 215 q 370 284 382 260 q 347 333 358 308 q 323 383 335 358 q 301 431 311 408 q 283 469 290 453 q 271 494 275 486 l 254 538 l 251 506 q 251 481 251 500 q 250 435 250 463 q 249 376 250 408 q 249 311 249 344 q 249 231 249 264 q 249 174 249 197 q 251 134 250 150 q 254 107 253 118 q 274 44 260 51 q 276 28 276 42 q 274 7 276 14 q 254 -7 268 -4 q 201 -11 240 -10 q 161 -12 181 -12 q 135 -12 142 -12 q 83 -7 94 -10 q 64 3 71 -4 q 53 29 51 15 q 75 68 56 43 q 86 85 82 76 q 92 124 90 94 q 94 215 93 154 q 94 388 94 275 q 94 586 94 506 q 93 719 94 667 q 89 801 92 772 q 82 847 86 831 q 72 876 76 868 q 56 896 68 885 q 36 914 40 907 q 32 929 32 921 q 43 953 32 940 q 65 969 54 967 q 94 974 72 972 q 144 976 117 975 q 197 976 171 976 q 235 974 222 975 q 258 970 246 972 q 272 965 269 968 q 297 935 281 960 q 332 876 313 911 q 372 799 351 840 q 407 719 392 757 q 427 672 414 704 q 453 613 440 640 q 543 415 501 515 l 558 386 l 557 599 q 555 742 556 690 q 551 822 554 793 q 543 863 549 850 q 528 890 538 876 q 519 943 508 922 q 527 953 522 950 q 544 959 532 957 q 581 962 557 961 q 646 963 604 963 q 703 963 682 963 q 735 962 724 963 q 751 960 746 961 q 760 956 756 958 q 782 914 782 942 q 778 899 782 907 q 765 878 775 892 q 747 848 754 861 q 735 819 739 835 q 728 783 731 804 q 722 731 725 763 z "},"":{"ha":800,"x_min":33,"x_max":769,"o":"m 406 1083 q 390 1100 404 1085 q 358 1134 375 1115 q 326 1171 342 1153 q 307 1194 311 1189 l 300 1203 l 308 1208 q 316 1213 313 1211 q 326 1217 319 1215 q 378 1200 353 1225 q 399 1179 382 1197 q 433 1142 415 1161 q 465 1106 451 1122 q 479 1088 479 1089 q 469 1079 478 1083 q 453 1073 460 1075 q 435 1072 446 1071 q 419 1074 425 1072 q 406 1083 414 1076 m 764 554 q 768 503 767 525 q 769 464 769 482 q 765 428 768 446 q 758 389 763 410 q 724 277 747 336 q 672 174 700 218 q 618 102 649 138 q 551 39 588 67 q 474 -6 515 11 q 386 -22 432 -22 q 297 -6 340 -22 q 217 37 254 10 q 151 99 181 64 q 100 175 121 135 q 74 240 86 204 q 52 313 61 275 q 38 389 43 351 q 33 460 33 426 q 49 602 33 529 q 92 733 64 675 q 129 791 104 758 q 185 855 154 824 q 246 912 215 886 q 301 950 276 938 q 355 969 325 961 q 410 976 385 976 q 490 962 451 976 q 563 924 528 947 q 601 897 586 908 q 630 871 617 885 q 656 840 643 857 q 685 794 668 822 q 717 738 704 764 q 739 685 731 713 q 753 627 747 658 q 764 554 760 596 m 515 331 q 579 629 586 494 q 571 710 576 682 q 551 768 565 739 q 518 817 532 804 q 485 831 504 831 q 328 717 413 831 q 303 676 315 700 q 278 622 290 651 q 257 563 267 593 q 242 506 247 533 q 239 483 240 493 q 236 459 238 472 q 235 428 235 446 q 235 385 235 411 q 235 326 235 350 q 240 282 236 301 q 249 245 243 263 q 263 207 254 228 q 283 166 275 179 q 304 144 292 153 q 317 138 311 139 q 332 139 322 138 q 393 163 365 143 q 444 212 421 183 q 485 272 468 240 q 515 331 503 303 z "},"":{"ha":800,"x_min":33,"x_max":769,"o":"m 411 1079 q 401 1088 401 1085 q 415 1106 401 1089 q 447 1142 429 1122 q 481 1180 464 1163 q 501 1200 497 1197 q 554 1217 528 1225 q 572 1208 564 1215 l 579 1203 l 574 1194 q 553 1171 569 1189 q 521 1134 538 1153 q 490 1100 504 1115 q 474 1083 476 1085 q 444 1072 461 1072 q 426 1073 433 1071 q 411 1079 419 1075 m 764 554 q 768 503 767 525 q 769 464 769 482 q 765 428 768 446 q 758 389 763 410 q 724 277 747 336 q 672 174 700 218 q 618 102 649 138 q 551 39 588 67 q 474 -6 515 11 q 386 -22 432 -22 q 297 -6 340 -22 q 217 37 254 10 q 151 99 181 64 q 100 175 121 135 q 74 240 86 204 q 52 313 61 275 q 38 389 43 351 q 33 460 33 426 q 49 602 33 529 q 92 733 64 675 q 129 791 104 758 q 185 855 154 824 q 246 912 215 886 q 301 950 276 938 q 355 969 325 961 q 410 976 385 976 q 490 962 451 976 q 563 924 528 947 q 601 897 586 908 q 630 871 617 885 q 656 840 643 857 q 685 794 668 822 q 717 738 704 764 q 739 685 731 713 q 753 627 747 658 q 764 554 760 596 m 515 331 q 579 629 586 494 q 571 710 576 682 q 551 768 565 739 q 518 817 532 804 q 485 831 504 831 q 328 717 413 831 q 303 676 315 700 q 278 622 290 651 q 257 563 267 593 q 242 506 247 533 q 239 483 240 493 q 236 459 238 472 q 235 428 235 446 q 235 385 235 411 q 235 326 235 350 q 240 282 236 301 q 249 245 243 263 q 263 207 254 228 q 283 166 275 179 q 304 144 292 153 q 317 138 311 139 q 332 139 322 138 q 393 163 365 143 q 444 212 421 183 q 485 272 468 240 q 515 331 503 303 z "},"":{"ha":800,"x_min":33,"x_max":769,"o":"m 321 1065 q 315 1075 315 1067 q 319 1092 315 1083 q 335 1113 322 1096 q 363 1151 347 1131 q 392 1190 378 1172 q 408 1210 406 1207 q 418 1218 415 1217 q 425 1217 421 1219 q 447 1191 431 1211 q 479 1147 463 1171 q 509 1103 496 1124 q 522 1078 522 1083 q 513 1064 522 1065 q 485 1064 493 1061 q 465 1074 474 1067 q 439 1110 457 1082 q 418 1138 422 1133 q 413 1136 415 1139 q 403 1124 410 1133 q 351 1067 369 1072 q 336 1064 347 1064 q 321 1065 325 1064 m 764 554 q 768 503 767 525 q 769 464 769 482 q 765 428 768 446 q 758 389 763 410 q 724 277 747 336 q 672 174 700 218 q 618 102 649 138 q 551 39 588 67 q 474 -6 515 11 q 386 -22 432 -22 q 297 -6 340 -22 q 217 37 254 10 q 151 99 181 64 q 100 175 121 135 q 74 240 86 204 q 52 313 61 275 q 38 389 43 351 q 33 460 33 426 q 49 602 33 529 q 92 733 64 675 q 129 791 104 758 q 185 855 154 824 q 246 912 215 886 q 301 950 276 938 q 355 969 325 961 q 410 976 385 976 q 490 962 451 976 q 563 924 528 947 q 601 897 586 908 q 630 871 617 885 q 656 840 643 857 q 685 794 668 822 q 717 738 704 764 q 739 685 731 713 q 753 627 747 658 q 764 554 760 596 m 515 331 q 579 629 586 494 q 571 710 576 682 q 551 768 565 739 q 518 817 532 804 q 485 831 504 831 q 328 717 413 831 q 303 676 315 700 q 278 622 290 651 q 257 563 267 593 q 242 506 247 533 q 239 483 240 493 q 236 459 238 472 q 235 428 235 446 q 235 385 235 411 q 235 326 235 350 q 240 282 236 301 q 249 245 243 263 q 263 207 254 228 q 283 166 275 179 q 304 144 292 153 q 317 138 311 139 q 332 139 322 138 q 393 163 365 143 q 444 212 421 183 q 485 272 468 240 q 515 331 503 303 z "},"":{"ha":800,"x_min":33,"x_max":769,"o":"m 317 1097 q 311 1106 314 1100 q 307 1119 308 1113 q 308 1138 306 1126 q 315 1158 311 1149 q 331 1177 321 1169 q 351 1185 340 1185 q 413 1157 369 1185 q 457 1138 443 1138 q 468 1143 464 1138 q 474 1160 471 1146 q 485 1185 478 1179 q 496 1185 489 1186 q 506 1175 503 1181 q 508 1167 508 1171 q 507 1153 508 1164 q 506 1140 507 1146 q 506 1132 506 1135 q 498 1119 503 1125 q 488 1108 493 1113 q 479 1105 482 1106 q 468 1104 476 1104 q 458 1105 461 1104 q 447 1110 454 1106 q 438 1115 443 1111 q 428 1121 432 1118 q 392 1144 401 1139 q 376 1151 383 1149 q 356 1150 365 1154 q 346 1125 347 1144 q 338 1100 344 1106 q 326 1094 332 1094 q 317 1097 319 1094 m 764 554 q 768 503 767 525 q 769 464 769 482 q 765 428 768 446 q 758 389 763 410 q 724 277 747 336 q 672 174 700 218 q 618 102 649 138 q 551 39 588 67 q 474 -6 515 11 q 386 -22 432 -22 q 297 -6 340 -22 q 217 37 254 10 q 151 99 181 64 q 100 175 121 135 q 74 240 86 204 q 52 313 61 275 q 38 389 43 351 q 33 460 33 426 q 49 602 33 529 q 92 733 64 675 q 129 791 104 758 q 185 855 154 824 q 246 912 215 886 q 301 950 276 938 q 355 969 325 961 q 410 976 385 976 q 490 962 451 976 q 563 924 528 947 q 601 897 586 908 q 630 871 617 885 q 656 840 643 857 q 685 794 668 822 q 717 738 704 764 q 739 685 731 713 q 753 627 747 658 q 764 554 760 596 m 515 331 q 579 629 586 494 q 571 710 576 682 q 551 768 565 739 q 518 817 532 804 q 485 831 504 831 q 328 717 413 831 q 303 676 315 700 q 278 622 290 651 q 257 563 267 593 q 242 506 247 533 q 239 483 240 493 q 236 459 238 472 q 235 428 235 446 q 235 385 235 411 q 235 326 235 350 q 240 282 236 301 q 249 245 243 263 q 263 207 254 228 q 283 166 275 179 q 304 144 292 153 q 317 138 311 139 q 332 139 322 138 q 393 163 365 143 q 444 212 421 183 q 485 272 468 240 q 515 331 503 303 z "},"":{"ha":800,"x_min":33,"x_max":769,"o":"m 342 1079 q 317 1103 326 1083 q 313 1113 314 1110 q 313 1125 313 1115 q 313 1138 313 1135 q 317 1147 314 1142 q 357 1176 331 1174 q 390 1163 376 1179 q 401 1147 399 1154 q 404 1128 403 1140 q 403 1115 404 1118 q 400 1104 403 1111 q 378 1081 390 1088 q 358 1076 369 1076 q 342 1078 346 1076 l 342 1079 m 490 1079 q 465 1103 475 1083 q 462 1113 463 1110 q 461 1125 461 1115 q 462 1138 461 1135 q 465 1147 463 1142 q 507 1176 479 1174 q 539 1163 525 1179 q 550 1147 547 1154 q 553 1128 553 1140 q 552 1115 553 1118 q 549 1104 551 1111 q 526 1081 539 1088 q 508 1076 518 1076 q 490 1078 494 1076 l 490 1079 m 764 554 q 768 503 767 525 q 769 464 769 482 q 765 428 768 446 q 758 389 763 410 q 724 277 747 336 q 672 174 700 218 q 618 102 649 138 q 551 39 588 67 q 474 -6 515 11 q 386 -22 432 -22 q 297 -6 340 -22 q 217 37 254 10 q 151 99 181 64 q 100 175 121 135 q 74 240 86 204 q 52 313 61 275 q 38 389 43 351 q 33 460 33 426 q 49 602 33 529 q 92 733 64 675 q 129 791 104 758 q 185 855 154 824 q 246 912 215 886 q 301 950 276 938 q 355 969 325 961 q 410 976 385 976 q 490 962 451 976 q 563 924 528 947 q 601 897 586 908 q 630 871 617 885 q 656 840 643 857 q 685 794 668 822 q 717 738 704 764 q 739 685 731 713 q 753 627 747 658 q 764 554 760 596 m 515 331 q 579 629 586 494 q 571 710 576 682 q 551 768 565 739 q 518 817 532 804 q 485 831 504 831 q 328 717 413 831 q 303 676 315 700 q 278 622 290 651 q 257 563 267 593 q 242 506 247 533 q 239 483 240 493 q 236 459 238 472 q 235 428 235 446 q 235 385 235 411 q 235 326 235 350 q 240 282 236 301 q 249 245 243 263 q 263 207 254 228 q 283 166 275 179 q 304 144 292 153 q 317 138 311 139 q 332 139 322 138 q 393 163 365 143 q 444 212 421 183 q 485 272 468 240 q 515 331 503 303 z "},"":{"ha":558,"x_min":44,"x_max":513,"o":"m 446 283 q 492 214 474 243 q 511 182 511 185 q 503 177 513 178 q 457 176 493 176 q 397 179 414 176 q 367 192 379 182 q 350 212 363 194 q 324 249 338 229 q 296 287 306 275 q 278 299 286 299 q 265 290 271 299 q 249 267 260 282 q 210 213 225 231 q 179 186 194 194 q 167 181 172 182 q 156 178 163 179 q 137 176 149 176 q 106 175 125 175 q 61 174 71 174 q 50 179 51 175 q 66 210 49 182 q 115 285 83 238 q 165 360 143 326 q 190 401 188 394 q 195 419 194 411 q 185 448 196 428 q 148 506 174 468 q 74 615 122 544 q 46 664 44 658 q 56 668 49 667 q 92 667 64 669 q 129 665 111 667 q 156 660 147 663 q 196 635 175 653 q 240 582 217 617 q 260 556 251 567 q 272 543 269 544 q 288 548 279 540 q 311 579 297 556 q 345 625 324 601 q 390 658 367 649 q 418 664 400 661 q 454 667 436 667 q 487 668 472 668 q 504 665 501 668 q 506 659 507 664 q 497 643 504 654 q 477 612 490 632 q 443 560 464 592 q 394 487 415 519 q 371 449 374 454 q 372 393 357 422 q 397 356 375 388 q 446 283 418 324 z "},"":{"ha":800,"x_min":33,"x_max":769,"o":"m 764 554 q 768 503 767 525 q 769 464 769 482 q 765 428 768 446 q 758 389 763 410 q 724 277 747 336 q 672 174 700 218 q 572 55 631 107 q 435 -18 513 3 q 394 -22 419 -22 q 349 -19 369 -22 q 344 -36 346 -31 q 343 -43 343 -42 q 333 -67 339 -56 q 321 -83 326 -79 q 302 -85 315 -86 q 283 -82 289 -85 q 273 -61 274 -75 q 279 1 272 -47 q 176 70 224 25 q 100 175 129 115 q 74 240 86 204 q 52 313 61 275 q 38 389 43 351 q 33 460 33 426 q 49 602 33 529 q 92 733 64 675 q 129 791 104 758 q 185 855 154 824 q 246 912 215 886 q 301 950 276 938 q 355 969 325 961 q 410 976 385 976 q 436 976 422 976 q 457 972 450 975 q 464 969 461 972 q 474 1014 474 1013 q 483 1032 479 1028 q 507 1039 490 1039 q 528 1035 518 1039 q 540 1026 538 1032 q 542 1019 542 1022 q 542 1008 543 1017 q 539 985 542 1000 q 532 942 536 969 q 582 911 561 925 q 619 881 603 897 q 651 844 636 864 q 685 794 667 824 q 717 738 704 764 q 739 685 731 713 q 753 627 747 658 q 764 554 760 596 m 515 331 q 579 629 586 494 q 571 710 576 682 q 551 768 565 739 q 530 805 539 792 q 510 824 521 818 q 483 681 499 765 q 444 476 467 596 q 411 305 426 386 q 382 157 396 224 q 424 190 404 169 q 462 234 444 210 q 492 283 479 258 q 515 331 506 308 m 435 817 q 363 763 396 799 q 307 683 331 726 q 267 592 283 639 q 242 506 250 546 q 239 483 240 493 q 236 459 238 472 q 235 428 235 446 q 235 385 235 411 q 235 326 235 350 q 240 282 236 301 q 249 245 243 263 q 263 207 254 228 q 283 166 275 179 q 304 144 292 153 q 333 297 317 211 q 368 473 350 382 q 403 653 386 564 q 435 817 421 743 z "},"":{"ha":757,"x_min":15,"x_max":732,"o":"m 350 1083 q 334 1100 349 1085 q 303 1134 319 1115 q 271 1171 286 1153 q 251 1194 256 1189 l 244 1203 l 253 1208 q 271 1217 261 1215 q 322 1200 297 1225 q 343 1180 326 1197 q 378 1142 360 1163 q 410 1106 396 1122 q 424 1088 424 1089 q 414 1079 424 1085 q 399 1073 406 1075 q 381 1072 392 1071 q 364 1074 369 1072 q 350 1083 358 1076 m 722 949 q 706 897 732 932 q 694 883 699 889 q 686 867 689 878 q 682 840 683 857 q 680 790 681 822 q 678 706 679 757 q 676 579 678 656 q 674 391 675 463 q 672 276 674 319 q 666 213 669 233 q 657 175 663 192 q 632 115 646 140 q 599 69 618 89 q 557 34 581 50 q 503 3 533 18 q 484 -2 496 1 q 460 -8 472 -6 q 437 -11 447 -10 q 424 -12 426 -12 q 401 -12 421 -12 q 356 -10 382 -11 q 299 -6 322 -8 q 258 3 276 -3 q 224 18 240 8 q 185 43 207 28 q 117 115 140 75 q 85 217 94 156 q 83 245 83 226 q 81 297 82 264 q 78 377 79 329 q 78 492 78 425 q 76 656 78 588 q 74 770 75 725 q 69 840 72 815 q 64 875 67 865 q 56 890 61 882 q 46 904 51 897 q 56 961 15 942 q 67 965 61 964 q 87 967 74 965 q 124 968 100 968 q 189 968 149 968 l 308 968 l 318 957 q 326 947 322 953 q 329 939 329 942 q 325 928 329 936 q 314 910 321 919 q 297 874 303 892 q 283 821 290 857 q 281 795 282 810 q 279 748 279 781 q 280 658 279 715 q 282 503 281 600 q 286 285 285 363 q 289 200 288 207 q 318 151 297 169 q 369 129 339 132 q 426 138 406 126 q 463 178 447 150 q 476 205 471 193 q 483 233 481 217 q 485 274 485 250 q 483 338 485 299 q 483 388 483 357 q 481 456 482 418 q 480 534 481 493 q 479 613 479 575 q 478 686 479 650 q 478 751 478 722 q 477 801 478 781 q 476 829 476 822 q 469 871 475 857 q 449 906 464 885 q 433 941 433 925 q 444 963 432 957 q 485 965 447 964 q 576 967 524 965 q 655 967 626 967 q 697 965 683 967 q 715 960 711 964 q 722 949 719 956 z "},"":{"ha":757,"x_min":15,"x_max":732,"o":"m 335 1079 q 326 1088 326 1085 q 334 1099 325 1089 q 371 1140 343 1108 q 406 1179 390 1161 q 426 1200 422 1197 q 479 1217 453 1224 q 496 1208 486 1215 l 504 1203 l 497 1194 q 478 1171 493 1189 q 446 1134 463 1153 q 415 1100 429 1115 q 399 1083 401 1085 q 369 1072 386 1072 q 351 1073 358 1071 q 335 1079 344 1075 m 722 949 q 706 897 732 932 q 694 883 699 889 q 686 867 689 878 q 682 840 683 857 q 680 790 681 822 q 678 706 679 757 q 676 579 678 656 q 674 391 675 463 q 672 276 674 319 q 666 213 669 233 q 657 175 663 192 q 632 115 646 140 q 599 69 618 89 q 557 34 581 50 q 503 3 533 18 q 484 -2 496 1 q 460 -8 472 -6 q 437 -11 447 -10 q 424 -12 426 -12 q 401 -12 421 -12 q 356 -10 382 -11 q 299 -6 322 -8 q 258 3 276 -3 q 224 18 240 8 q 185 43 207 28 q 117 115 140 75 q 85 217 94 156 q 83 245 83 226 q 81 297 82 264 q 78 377 79 329 q 78 492 78 425 q 76 656 78 588 q 74 770 75 725 q 69 840 72 815 q 64 875 67 865 q 56 890 61 882 q 46 904 51 897 q 56 961 15 942 q 67 965 61 964 q 87 967 74 965 q 124 968 100 968 q 189 968 149 968 l 308 968 l 318 957 q 326 947 322 953 q 329 939 329 942 q 325 928 329 936 q 314 910 321 919 q 297 874 303 892 q 283 821 290 857 q 281 795 282 810 q 279 748 279 781 q 280 658 279 715 q 282 503 281 600 q 286 285 285 363 q 289 200 288 207 q 318 151 297 169 q 369 129 339 132 q 426 138 406 126 q 463 178 447 150 q 476 205 471 193 q 483 233 481 217 q 485 274 485 250 q 483 338 485 299 q 483 388 483 357 q 481 456 482 418 q 480 534 481 493 q 479 613 479 575 q 478 686 479 650 q 478 751 478 722 q 477 801 478 781 q 476 829 476 822 q 469 871 475 857 q 449 906 464 885 q 433 941 433 925 q 444 963 432 957 q 485 965 447 964 q 576 967 524 965 q 655 967 626 967 q 697 965 683 967 q 715 960 711 964 q 722 949 719 956 z "},"":{"ha":757,"x_min":15,"x_max":732,"o":"m 306 1065 q 300 1075 300 1067 q 304 1092 300 1083 q 319 1113 307 1096 q 347 1151 332 1131 q 376 1190 363 1172 q 393 1210 390 1207 q 403 1218 400 1217 q 410 1217 406 1219 q 430 1194 414 1214 q 463 1150 446 1174 q 493 1105 479 1126 q 507 1078 507 1083 q 497 1064 507 1065 q 469 1064 478 1061 q 450 1074 458 1067 q 424 1110 442 1082 q 403 1138 407 1133 q 397 1136 400 1139 q 388 1124 394 1133 q 336 1067 354 1072 q 321 1064 332 1064 q 306 1065 310 1064 m 722 949 q 706 897 732 932 q 694 883 699 889 q 686 867 689 878 q 682 840 683 857 q 680 790 681 822 q 678 706 679 757 q 676 579 678 656 q 674 391 675 463 q 672 276 674 319 q 666 213 669 233 q 657 175 663 192 q 632 115 646 140 q 599 69 618 89 q 557 34 581 50 q 503 3 533 18 q 484 -2 496 1 q 460 -8 472 -6 q 437 -11 447 -10 q 424 -12 426 -12 q 401 -12 421 -12 q 356 -10 382 -11 q 299 -6 322 -8 q 258 3 276 -3 q 224 18 240 8 q 185 43 207 28 q 117 115 140 75 q 85 217 94 156 q 83 245 83 226 q 81 297 82 264 q 78 377 79 329 q 78 492 78 425 q 76 656 78 588 q 74 770 75 725 q 69 840 72 815 q 64 875 67 865 q 56 890 61 882 q 46 904 51 897 q 56 961 15 942 q 67 965 61 964 q 87 967 74 965 q 124 968 100 968 q 189 968 149 968 l 308 968 l 318 957 q 326 947 322 953 q 329 939 329 942 q 325 928 329 936 q 314 910 321 919 q 297 874 303 892 q 283 821 290 857 q 281 795 282 810 q 279 748 279 781 q 280 658 279 715 q 282 503 281 600 q 286 285 285 363 q 289 200 288 207 q 318 151 297 169 q 369 129 339 132 q 426 138 406 126 q 463 178 447 150 q 476 205 471 193 q 483 233 481 217 q 485 274 485 250 q 483 338 485 299 q 483 388 483 357 q 481 456 482 418 q 480 534 481 493 q 479 613 479 575 q 478 686 479 650 q 478 751 478 722 q 477 801 478 781 q 476 829 476 822 q 469 871 475 857 q 449 906 464 885 q 433 941 433 925 q 444 963 432 957 q 485 965 447 964 q 576 967 524 965 q 655 967 626 967 q 697 965 683 967 q 715 960 711 964 q 722 949 719 956 z "},"":{"ha":757,"x_min":15,"x_max":732,"o":"m 288 1079 q 274 1088 281 1082 q 264 1103 267 1094 q 260 1113 261 1110 q 260 1125 260 1115 q 260 1138 260 1135 q 264 1147 261 1142 q 304 1176 278 1174 q 338 1163 322 1178 q 347 1147 344 1154 q 350 1128 350 1140 q 350 1115 350 1118 q 347 1104 350 1111 q 325 1081 338 1088 q 316 1077 319 1078 q 306 1076 313 1076 q 288 1078 292 1076 l 288 1079 m 438 1079 q 415 1097 422 1083 q 408 1125 408 1110 q 409 1138 408 1135 q 413 1147 410 1142 q 453 1176 426 1174 q 486 1163 471 1178 q 496 1147 493 1154 q 499 1128 499 1140 q 499 1115 499 1118 q 496 1104 499 1111 q 474 1081 486 1088 q 454 1076 465 1076 q 438 1078 442 1076 l 438 1079 m 722 949 q 706 897 732 932 q 694 883 699 889 q 686 867 689 878 q 682 840 683 857 q 680 790 681 822 q 678 706 679 757 q 676 579 678 656 q 674 391 675 463 q 672 276 674 319 q 666 213 669 233 q 657 175 663 192 q 632 115 646 140 q 599 69 618 89 q 557 34 581 50 q 503 3 533 18 q 484 -2 496 1 q 460 -8 472 -6 q 437 -11 447 -10 q 424 -12 426 -12 q 401 -12 421 -12 q 356 -10 382 -11 q 299 -6 322 -8 q 258 3 276 -3 q 224 18 240 8 q 185 43 207 28 q 117 115 140 75 q 85 217 94 156 q 83 245 83 226 q 81 297 82 264 q 78 377 79 329 q 78 492 78 425 q 76 656 78 588 q 74 770 75 725 q 69 840 72 815 q 64 875 67 865 q 56 890 61 882 q 46 904 51 897 q 56 961 15 942 q 67 965 61 964 q 87 967 74 965 q 124 968 100 968 q 189 968 149 968 l 308 968 l 318 957 q 326 947 322 953 q 329 939 329 942 q 325 928 329 936 q 314 910 321 919 q 297 874 303 892 q 283 821 290 857 q 281 795 282 810 q 279 748 279 781 q 280 658 279 715 q 282 503 281 600 q 286 285 285 363 q 289 200 288 207 q 318 151 297 169 q 369 129 339 132 q 426 138 406 126 q 463 178 447 150 q 476 205 471 193 q 483 233 481 217 q 485 274 485 250 q 483 338 485 299 q 483 388 483 357 q 481 456 482 418 q 480 534 481 493 q 479 613 479 575 q 478 686 479 650 q 478 751 478 722 q 477 801 478 781 q 476 829 476 822 q 469 871 475 857 q 449 906 464 885 q 433 941 433 925 q 444 963 432 957 q 485 965 447 964 q 576 967 524 965 q 655 967 626 967 q 697 965 683 967 q 715 960 711 964 q 722 949 719 956 z "},"":{"ha":721,"x_min":-10,"x_max":719,"o":"m 311 1079 q 301 1088 301 1085 q 315 1106 301 1089 q 347 1142 329 1122 q 381 1179 365 1161 q 401 1200 397 1197 q 454 1217 428 1225 q 472 1208 464 1215 l 481 1203 l 474 1194 q 454 1171 469 1189 q 422 1134 439 1153 q 390 1100 404 1115 q 374 1083 376 1085 q 361 1074 367 1076 q 344 1072 356 1072 q 326 1073 333 1071 q 311 1079 319 1075 m 461 465 q 443 414 450 443 q 432 353 436 385 q 429 303 431 340 q 428 224 428 265 q 428 147 428 182 q 431 103 429 111 q 440 62 433 79 q 457 32 447 44 q 471 13 471 15 q 463 3 471 11 q 421 -10 451 -7 q 315 -10 390 -12 q 236 -4 253 -8 q 221 14 219 0 q 228 31 224 24 q 235 44 232 36 q 241 65 239 51 q 245 99 243 78 q 249 150 247 119 q 251 229 250 183 q 253 306 251 275 q 249 374 253 342 q 240 435 246 406 q 223 495 233 465 q 197 558 213 525 q 190 576 194 567 q 185 590 186 586 q 172 622 181 601 q 155 663 164 642 q 137 704 146 685 q 124 733 128 724 q 108 766 117 746 q 93 803 100 786 q 73 852 81 833 q 56 884 65 871 q 36 908 47 897 q 6 933 25 918 q -7 944 -4 940 q -8 957 -10 949 q 29 985 -6 985 q 90 983 49 985 q 174 980 131 982 q 252 976 218 978 q 290 972 286 974 q 301 933 328 963 q 290 917 292 922 q 289 889 288 911 q 292 859 289 869 q 306 825 294 849 q 319 793 311 813 q 337 753 328 774 q 354 715 346 733 q 368 686 363 697 q 374 674 371 679 q 379 668 376 669 q 395 673 386 665 q 421 706 404 681 q 459 765 447 742 q 476 817 471 789 q 481 849 481 839 q 478 882 481 860 q 474 923 475 908 q 478 946 474 938 q 495 958 483 954 q 528 968 507 963 q 563 974 543 972 q 603 976 583 976 q 676 961 647 976 q 715 896 704 946 q 717 857 719 876 q 701 814 714 838 q 665 759 689 790 q 606 683 642 728 q 576 642 597 674 q 530 574 554 610 q 485 507 506 539 q 461 465 465 475 z "},"":{"ha":731,"x_min":36,"x_max":699,"o":"m 674 313 q 692 262 685 292 q 696 204 699 232 q 669 116 694 153 q 606 56 644 79 q 522 19 568 32 q 431 4 476 7 q 335 0 368 0 q 289 7 303 0 q 263 33 269 15 q 268 63 257 50 q 290 77 274 71 q 331 88 307 83 q 406 109 372 94 q 456 142 439 124 q 497 260 501 189 q 465 349 494 313 q 386 406 435 386 q 352 426 367 413 q 338 450 338 439 q 379 489 338 481 q 424 519 399 493 q 465 572 450 544 q 480 611 472 586 q 490 658 488 636 q 493 686 493 669 q 492 719 493 703 q 488 751 490 736 q 481 776 485 767 q 469 798 476 786 q 454 822 463 810 q 438 842 446 833 q 424 856 431 851 q 389 869 413 863 q 349 875 365 875 q 274 843 307 876 q 244 794 254 824 q 232 738 235 765 q 230 708 231 732 q 228 647 229 685 q 227 563 228 610 q 226 464 226 515 q 224 275 225 349 q 219 157 222 201 q 212 89 217 113 q 200 50 207 65 q 185 22 193 31 q 129 -6 167 3 q 63 -7 92 -14 q 47 -3 51 -4 q 50 35 36 4 q 61 68 57 53 q 67 120 65 83 q 70 226 69 157 q 71 421 71 294 q 73 600 72 536 q 74 697 74 664 q 77 741 75 729 q 82 764 79 753 q 128 877 100 835 q 196 940 156 919 q 219 951 206 946 q 247 960 232 956 q 275 967 261 964 q 299 969 289 969 q 329 970 310 969 q 365 972 349 971 q 442 969 406 975 q 513 950 478 964 q 674 711 674 885 q 672 675 674 690 q 667 647 671 660 q 657 619 664 633 q 639 589 650 606 q 591 533 619 557 q 518 486 563 508 q 485 467 499 475 q 472 458 471 460 q 485 454 472 457 q 535 433 507 449 q 590 397 563 418 q 640 354 617 376 q 674 313 663 332 z "},"":{"ha":756,"x_min":39,"x_max":736,"o":"m 351 874 q 335 890 350 875 q 304 924 321 906 q 272 961 288 943 q 253 985 257 979 l 246 993 l 254 999 q 272 1008 261 1004 q 324 992 299 1014 q 344 970 328 988 q 379 933 361 953 q 411 896 397 913 q 425 878 425 879 q 415 871 425 875 q 382 863 401 863 q 365 865 371 863 q 351 874 360 867 m 724 51 q 736 25 736 38 q 732 10 736 14 q 717 0 728 6 q 696 -4 711 -3 q 662 -7 681 -6 q 624 -8 643 -8 q 592 -6 604 -7 q 508 24 539 1 q 474 83 476 47 q 473 90 474 88 q 472 96 472 93 l 471 101 q 463 96 469 101 q 449 83 457 90 q 360 26 404 47 q 257 3 315 6 q 187 7 221 0 q 132 25 153 14 q 112 40 124 31 q 89 61 100 50 q 69 83 78 72 q 57 101 61 94 q 47 136 51 115 q 40 180 42 157 q 40 224 39 203 q 44 263 40 246 q 101 372 60 324 q 200 443 142 419 q 229 453 215 450 q 261 460 243 457 q 303 463 279 463 q 358 464 326 464 q 415 464 390 464 q 442 465 439 464 q 456 487 453 469 q 461 556 460 504 q 463 601 463 583 q 460 631 463 619 q 454 650 458 642 q 443 667 450 658 q 409 697 428 688 q 357 708 390 706 q 331 708 339 710 q 307 699 324 707 q 246 639 263 678 q 249 561 229 600 q 256 540 256 550 q 242 501 256 522 q 208 469 228 481 q 169 456 193 460 q 129 457 146 453 q 88 484 108 464 q 64 526 68 504 q 67 604 54 568 q 119 679 81 640 q 229 751 168 729 q 358 774 290 774 q 492 753 436 774 q 599 672 549 733 q 648 572 631 631 q 664 444 665 513 q 665 388 664 422 q 669 317 667 354 q 673 245 671 281 q 678 185 675 210 q 683 139 681 158 q 692 105 686 119 q 705 78 697 90 q 724 51 713 65 m 453 201 q 457 228 456 208 q 458 272 458 249 q 458 319 458 296 q 454 351 457 342 q 434 378 449 371 q 400 385 419 385 q 319 356 353 385 q 272 282 286 326 q 268 193 257 232 q 314 138 279 154 q 349 134 328 132 q 390 147 371 136 q 428 174 410 158 q 453 201 447 190 z "},"":{"ha":756,"x_min":39,"x_max":736,"o":"m 325 871 q 315 878 315 875 q 329 896 315 879 q 360 932 343 913 q 394 969 378 951 q 415 992 411 988 q 468 1008 442 1014 q 486 999 479 1004 l 493 993 l 488 985 q 467 961 483 979 q 435 924 451 943 q 404 890 418 906 q 388 874 390 875 q 358 863 375 863 q 325 871 339 863 m 724 51 q 736 25 736 38 q 732 10 736 14 q 717 0 728 6 q 696 -4 711 -3 q 662 -7 681 -6 q 624 -8 643 -8 q 592 -6 604 -7 q 508 24 539 1 q 474 83 476 47 q 473 90 474 88 q 472 96 472 93 l 471 101 q 463 96 469 101 q 449 83 457 90 q 360 26 404 47 q 257 3 315 6 q 187 7 221 0 q 132 25 153 14 q 112 40 124 31 q 89 61 100 50 q 69 83 78 72 q 57 101 61 94 q 47 136 51 115 q 40 180 42 157 q 40 224 39 203 q 44 263 40 246 q 101 372 60 324 q 200 443 142 419 q 229 453 215 450 q 261 460 243 457 q 303 463 279 463 q 358 464 326 464 q 415 464 390 464 q 442 465 439 464 q 456 487 453 469 q 461 556 460 504 q 463 601 463 583 q 460 631 463 619 q 454 650 458 642 q 443 667 450 658 q 409 697 428 688 q 357 708 390 706 q 331 708 339 710 q 307 699 324 707 q 246 639 263 678 q 249 561 229 600 q 256 540 256 550 q 242 501 256 522 q 208 469 228 481 q 169 456 193 460 q 129 457 146 453 q 88 484 108 464 q 64 526 68 504 q 67 604 54 568 q 119 679 81 640 q 229 751 168 729 q 358 774 290 774 q 492 753 436 774 q 599 672 549 733 q 648 572 631 631 q 664 444 665 513 q 665 388 664 422 q 669 317 667 354 q 673 245 671 281 q 678 185 675 210 q 683 139 681 158 q 692 105 686 119 q 705 78 697 90 q 724 51 713 65 m 453 201 q 457 228 456 208 q 458 272 458 249 q 458 319 458 296 q 454 351 457 342 q 434 378 449 371 q 400 385 419 385 q 319 356 353 385 q 272 282 286 326 q 268 193 257 232 q 314 138 279 154 q 349 134 328 132 q 390 147 371 136 q 428 174 410 158 q 453 201 447 190 z "},"":{"ha":756,"x_min":39,"x_max":736,"o":"m 268 856 q 263 866 263 858 q 267 882 263 874 q 282 903 269 886 q 310 942 294 921 q 339 980 325 963 q 356 1001 353 997 q 365 1009 363 1008 q 372 1007 368 1010 q 395 981 379 1001 q 428 938 411 961 q 457 895 444 915 q 469 868 469 875 q 460 854 469 856 q 432 854 440 851 q 413 865 421 857 q 386 900 404 874 q 373 919 379 911 q 365 928 367 928 q 360 927 363 929 q 350 914 357 925 q 299 857 315 863 q 283 855 294 856 q 268 856 272 854 m 724 51 q 736 25 736 38 q 732 10 736 14 q 717 0 728 6 q 696 -4 711 -3 q 662 -7 681 -6 q 624 -8 643 -8 q 592 -6 604 -7 q 508 24 539 1 q 474 83 476 47 q 473 90 474 88 q 472 96 472 93 l 471 101 q 463 96 469 101 q 449 83 457 90 q 360 26 404 47 q 257 3 315 6 q 187 7 221 0 q 132 25 153 14 q 112 40 124 31 q 89 61 100 50 q 69 83 78 72 q 57 101 61 94 q 47 136 51 115 q 40 180 42 157 q 40 224 39 203 q 44 263 40 246 q 101 372 60 324 q 200 443 142 419 q 229 453 215 450 q 261 460 243 457 q 303 463 279 463 q 358 464 326 464 q 415 464 390 464 q 442 465 439 464 q 456 487 453 469 q 461 556 460 504 q 463 601 463 583 q 460 631 463 619 q 454 650 458 642 q 443 667 450 658 q 409 697 428 688 q 357 708 390 706 q 331 708 339 710 q 307 699 324 707 q 246 639 263 678 q 249 561 229 600 q 256 540 256 550 q 242 501 256 522 q 208 469 228 481 q 169 456 193 460 q 129 457 146 453 q 88 484 108 464 q 64 526 68 504 q 67 604 54 568 q 119 679 81 640 q 229 751 168 729 q 358 774 290 774 q 492 753 436 774 q 599 672 549 733 q 648 572 631 631 q 664 444 665 513 q 665 388 664 422 q 669 317 667 354 q 673 245 671 281 q 678 185 675 210 q 683 139 681 158 q 692 105 686 119 q 705 78 697 90 q 724 51 713 65 m 453 201 q 457 228 456 208 q 458 272 458 249 q 458 319 458 296 q 454 351 457 342 q 434 378 449 371 q 400 385 419 385 q 319 356 353 385 q 272 282 286 326 q 268 193 257 232 q 314 138 279 154 q 349 134 328 132 q 390 147 371 136 q 428 174 410 158 q 453 201 447 190 z "},"":{"ha":756,"x_min":39,"x_max":736,"o":"m 297 888 q 291 897 294 890 q 288 911 288 904 q 294 949 285 928 q 332 975 308 975 q 393 949 349 975 q 438 928 426 928 q 449 933 443 928 q 451 940 450 936 q 454 950 451 944 q 465 975 458 971 q 475 975 468 976 q 485 967 482 974 q 488 958 488 961 q 488 944 489 956 q 483 919 488 932 q 467 900 479 907 q 460 896 463 897 q 449 894 457 894 q 428 899 440 894 q 408 911 415 904 q 373 934 382 929 q 357 942 364 939 q 346 944 350 944 q 336 940 342 943 q 326 915 326 935 q 324 899 325 904 q 317 890 322 894 q 306 886 314 886 q 297 888 299 886 m 724 51 q 736 25 736 38 q 732 10 736 14 q 717 0 728 6 q 696 -4 711 -3 q 662 -7 681 -6 q 624 -8 643 -8 q 592 -6 604 -7 q 508 24 539 1 q 474 83 476 47 q 473 90 474 88 q 472 96 472 93 l 471 101 q 463 96 469 101 q 449 83 457 90 q 360 26 404 47 q 257 3 315 6 q 187 7 221 0 q 132 25 153 14 q 112 40 124 31 q 89 61 100 50 q 69 83 78 72 q 57 101 61 94 q 47 136 51 115 q 40 180 42 157 q 40 224 39 203 q 44 263 40 246 q 101 372 60 324 q 200 443 142 419 q 229 453 215 450 q 261 460 243 457 q 303 463 279 463 q 358 464 326 464 q 415 464 390 464 q 442 465 439 464 q 456 487 453 469 q 461 556 460 504 q 463 601 463 583 q 460 631 463 619 q 454 650 458 642 q 443 667 450 658 q 409 697 428 688 q 357 708 390 706 q 331 708 339 710 q 307 699 324 707 q 246 639 263 678 q 249 561 229 600 q 256 540 256 550 q 242 501 256 522 q 208 469 228 481 q 169 456 193 460 q 129 457 146 453 q 88 484 108 464 q 64 526 68 504 q 67 604 54 568 q 119 679 81 640 q 229 751 168 729 q 358 774 290 774 q 492 753 436 774 q 599 672 549 733 q 648 572 631 631 q 664 444 665 513 q 665 388 664 422 q 669 317 667 354 q 673 245 671 281 q 678 185 675 210 q 683 139 681 158 q 692 105 686 119 q 705 78 697 90 q 724 51 713 65 m 453 201 q 457 228 456 208 q 458 272 458 249 q 458 319 458 296 q 454 351 457 342 q 434 378 449 371 q 400 385 419 385 q 319 356 353 385 q 272 282 286 326 q 268 193 257 232 q 314 138 279 154 q 349 134 328 132 q 390 147 371 136 q 428 174 410 158 q 453 201 447 190 z "},"":{"ha":756,"x_min":39,"x_max":736,"o":"m 260 869 q 236 893 243 874 q 233 903 233 900 q 232 915 232 907 q 243 951 232 936 q 276 968 254 965 q 310 953 294 968 q 319 938 317 944 q 322 918 322 931 q 322 905 322 908 q 318 896 321 901 q 297 872 313 879 q 288 869 292 869 q 278 868 285 868 q 260 869 268 867 m 408 869 q 394 878 401 872 q 385 893 388 885 q 381 903 382 900 q 381 915 381 907 q 392 951 381 936 q 425 968 403 965 q 458 953 443 968 q 468 938 465 944 q 471 918 471 931 q 470 905 471 908 q 467 896 469 901 q 446 872 460 878 q 437 869 440 869 q 426 868 433 868 q 408 869 417 867 m 724 51 q 736 25 736 38 q 732 10 736 14 q 717 0 728 6 q 696 -4 711 -3 q 662 -7 681 -6 q 624 -8 643 -8 q 592 -6 604 -7 q 508 24 539 1 q 474 83 476 47 q 473 90 474 88 q 472 96 472 93 l 471 101 q 463 96 469 101 q 449 83 457 90 q 360 26 404 47 q 257 3 315 6 q 187 7 221 0 q 132 25 153 14 q 112 40 124 31 q 89 61 100 50 q 69 83 78 72 q 57 101 61 94 q 47 136 51 115 q 40 180 42 157 q 40 224 39 203 q 44 263 40 246 q 101 372 60 324 q 200 443 142 419 q 229 453 215 450 q 261 460 243 457 q 303 463 279 463 q 358 464 326 464 q 415 464 390 464 q 442 465 439 464 q 456 487 453 469 q 461 556 460 504 q 463 601 463 583 q 460 631 463 619 q 454 650 458 642 q 443 667 450 658 q 409 697 428 688 q 357 708 390 706 q 331 708 339 710 q 307 699 324 707 q 246 639 263 678 q 249 561 229 600 q 256 540 256 550 q 242 501 256 522 q 208 469 228 481 q 169 456 193 460 q 129 457 146 453 q 88 484 108 464 q 64 526 68 504 q 67 604 54 568 q 119 679 81 640 q 229 751 168 729 q 358 774 290 774 q 492 753 436 774 q 599 672 549 733 q 648 572 631 631 q 664 444 665 513 q 665 388 664 422 q 669 317 667 354 q 673 245 671 281 q 678 185 675 210 q 683 139 681 158 q 692 105 686 119 q 705 78 697 90 q 724 51 713 65 m 453 201 q 457 228 456 208 q 458 272 458 249 q 458 319 458 296 q 454 351 457 342 q 434 378 449 371 q 400 385 419 385 q 319 356 353 385 q 272 282 286 326 q 268 193 257 232 q 314 138 279 154 q 349 134 328 132 q 390 147 371 136 q 428 174 410 158 q 453 201 447 190 z "},"":{"ha":756,"x_min":39,"x_max":736,"o":"m 374 871 q 340 894 353 878 q 326 931 326 910 q 346 976 326 958 q 389 993 365 993 q 419 985 406 993 q 447 956 438 975 q 450 917 456 936 q 420 878 443 892 q 374 871 397 864 m 388 969 q 372 925 372 958 q 378 897 372 906 q 392 896 385 889 q 402 914 399 903 q 406 937 406 925 q 403 958 406 949 q 394 971 401 968 q 388 969 390 972 m 724 51 q 736 25 736 38 q 732 10 736 14 q 717 0 728 6 q 696 -4 711 -3 q 662 -7 681 -6 q 624 -8 643 -8 q 592 -6 604 -7 q 508 24 539 1 q 474 83 476 47 q 473 90 474 88 q 472 96 472 93 l 471 101 q 463 96 469 101 q 449 83 457 90 q 360 26 404 47 q 257 3 315 6 q 187 7 221 0 q 132 25 153 14 q 112 40 124 31 q 89 61 100 50 q 69 83 78 72 q 57 101 61 94 q 47 136 51 115 q 40 180 42 157 q 40 224 39 203 q 44 263 40 246 q 101 372 60 324 q 200 443 142 419 q 229 453 215 450 q 261 460 243 457 q 303 463 279 463 q 358 464 326 464 q 415 464 390 464 q 442 465 439 464 q 456 487 453 469 q 461 556 460 504 q 463 601 463 583 q 460 631 463 619 q 454 650 458 642 q 443 667 450 658 q 409 697 428 688 q 357 708 390 706 q 331 708 339 710 q 307 699 324 707 q 246 639 263 678 q 249 561 229 600 q 256 540 256 550 q 242 501 256 522 q 208 469 228 481 q 169 456 193 460 q 129 457 146 453 q 88 484 108 464 q 64 526 68 504 q 67 604 54 568 q 119 679 81 640 q 229 751 168 729 q 358 774 290 774 q 492 753 436 774 q 599 672 549 733 q 648 572 631 631 q 664 444 665 513 q 665 388 664 422 q 669 317 667 354 q 673 245 671 281 q 678 185 675 210 q 683 139 681 158 q 692 105 686 119 q 705 78 697 90 q 724 51 713 65 m 453 201 q 457 228 456 208 q 458 272 458 249 q 458 319 458 296 q 454 351 457 342 q 434 378 449 371 q 400 385 419 385 q 319 356 353 385 q 272 282 286 326 q 268 193 257 232 q 314 138 279 154 q 349 134 328 132 q 390 147 371 136 q 428 174 410 158 q 453 201 447 190 z "},"":{"ha":1204,"x_min":39,"x_max":1176,"o":"m 1169 176 q 1176 133 1176 158 q 1165 93 1175 108 q 1125 53 1153 72 q 1060 18 1097 33 q 1015 6 1042 11 q 956 -3 988 0 q 893 -7 925 -6 q 832 -6 861 -8 q 781 2 806 -3 q 733 14 757 7 q 717 0 732 7 q 696 -4 711 -3 q 662 -7 681 -6 q 624 -8 643 -8 q 592 -6 604 -7 q 508 24 539 1 q 474 83 476 47 q 473 90 474 88 q 472 96 472 93 l 471 101 q 463 96 469 101 q 449 83 457 90 q 360 26 404 47 q 257 3 315 6 q 187 7 221 0 q 132 25 153 14 q 112 40 124 31 q 89 61 100 50 q 69 83 78 72 q 57 101 61 94 q 47 136 51 115 q 40 180 42 157 q 40 224 39 203 q 44 263 40 246 q 101 372 60 324 q 200 443 142 419 q 229 453 215 450 q 261 460 243 457 q 303 463 279 463 q 358 464 326 464 q 415 464 390 464 q 442 465 439 464 q 456 487 453 469 q 461 556 460 504 q 463 601 463 583 q 460 631 463 619 q 454 650 458 642 q 443 667 450 658 q 409 697 428 688 q 357 708 390 706 q 331 708 339 710 q 307 699 324 707 q 246 639 263 678 q 249 561 229 600 q 256 540 256 550 q 242 501 256 522 q 208 469 228 481 q 169 456 193 460 q 129 457 146 453 q 88 484 108 464 q 64 526 68 504 q 67 604 54 568 q 119 679 81 640 q 229 751 168 729 q 358 774 290 774 q 492 753 436 774 q 599 672 549 733 q 615 648 607 661 q 629 621 622 635 q 643 632 638 629 q 697 669 672 656 q 758 696 721 683 l 792 707 l 874 707 q 944 705 911 707 q 1004 694 976 703 q 1057 668 1032 686 q 1104 618 1082 650 q 1138 496 1147 556 q 1090 408 1129 449 q 1065 385 1076 394 q 1040 372 1054 376 q 1005 365 1025 367 q 953 363 985 363 q 909 361 926 363 q 880 358 892 360 q 858 351 868 356 q 838 339 849 346 q 774 246 778 301 q 772 224 771 232 q 781 201 774 217 q 812 155 792 175 q 858 122 832 135 q 914 101 885 108 q 969 94 943 94 q 1042 113 1006 94 q 1073 135 1064 124 q 1081 163 1082 147 q 1099 200 1076 189 q 1125 207 1113 207 q 1169 176 1157 207 m 711 360 q 760 408 722 379 q 847 467 797 438 q 892 494 875 483 q 918 511 908 504 q 933 524 928 518 q 943 536 938 529 q 951 552 950 546 q 953 572 953 558 q 948 610 953 596 q 932 635 943 624 q 901 656 919 647 q 871 664 883 664 q 840 656 858 664 q 804 633 822 647 q 713 472 743 586 q 705 432 708 454 q 699 391 701 410 q 698 360 697 372 q 703 347 699 347 l 706 351 q 711 360 708 354 m 453 201 q 457 228 456 208 q 458 272 458 249 q 458 319 458 296 q 454 351 457 342 q 434 378 449 371 q 400 385 419 385 q 319 356 353 385 q 272 282 286 326 q 268 193 257 232 q 314 138 279 154 q 349 134 328 132 q 390 147 371 136 q 428 174 410 158 q 453 201 447 190 z "},"":{"ha":704,"x_min":28,"x_max":674,"o":"m 603 218 q 631 217 615 224 q 653 194 646 210 q 658 175 656 188 q 660 149 660 163 q 658 124 660 136 q 653 106 656 113 q 597 53 638 78 q 510 19 557 29 q 449 12 486 14 q 379 10 411 10 q 376 -25 376 -19 q 375 -33 376 -31 l 374 -36 q 403 -55 386 -44 q 434 -75 419 -65 q 460 -92 449 -85 q 474 -101 471 -100 q 482 -111 481 -108 q 481 -117 483 -114 q 460 -136 478 -119 q 396 -190 442 -153 q 363 -218 371 -212 q 349 -224 356 -224 q 335 -215 338 -224 q 332 -187 331 -194 q 342 -167 335 -176 q 375 -139 350 -158 q 394 -124 386 -131 q 401 -117 401 -118 q 400 -110 403 -112 q 386 -101 397 -108 q 339 -69 351 -82 q 326 -53 329 -61 q 325 -50 325 -51 q 324 -46 325 -49 q 322 -33 322 -39 q 322 -24 322 -26 q 324 -22 324 -22 q 326 -19 324 -21 q 328 -7 326 -12 q 329 9 329 6 q 329 13 329 13 q 329 11 329 13 q 329 13 329 10 q 114 124 189 35 q 32 349 39 213 q 63 516 28 443 q 153 640 97 589 q 280 718 210 692 q 418 744 350 744 q 503 733 463 744 q 576 699 543 722 q 633 639 610 675 q 667 553 657 603 q 661 488 674 518 q 626 436 649 458 q 573 401 603 414 q 515 389 543 389 q 449 421 471 389 q 441 435 442 429 q 442 458 440 442 q 447 486 443 475 q 461 521 450 497 q 472 542 468 533 q 476 556 475 550 q 478 569 478 563 q 479 585 479 575 q 474 627 479 613 q 458 653 469 642 q 397 681 429 681 q 353 669 375 681 q 314 638 332 657 q 282 597 296 619 q 260 554 268 575 q 234 412 233 489 q 263 268 235 335 q 347 157 292 201 q 483 111 401 113 q 527 120 504 111 q 563 143 550 129 q 572 156 569 150 q 574 176 574 163 q 603 218 575 211 z "},"":{"ha":731,"x_min":32,"x_max":701,"o":"m 358 874 q 342 890 357 875 q 311 924 328 906 q 279 961 294 943 q 260 985 264 979 l 253 993 l 261 999 q 279 1008 269 1006 q 331 992 306 1014 q 351 969 335 988 q 386 931 368 951 q 418 895 404 911 q 432 878 432 879 q 429 875 431 876 q 422 871 428 874 q 406 864 413 865 q 389 863 400 863 q 372 865 378 863 q 358 874 367 867 m 693 157 q 700 114 701 139 q 689 74 699 89 q 638 24 672 44 q 561 -9 603 4 q 478 -28 519 -22 q 406 -35 436 -35 q 266 -11 332 -35 q 149 58 200 13 q 67 173 99 104 q 32 331 36 242 q 33 368 32 351 q 36 401 33 385 q 44 437 39 418 q 60 482 50 456 q 115 578 78 533 q 199 656 151 622 q 303 708 247 689 q 414 726 358 726 q 531 701 475 726 q 631 618 588 676 q 653 565 649 594 q 652 508 657 536 q 636 456 647 481 q 610 418 625 432 q 555 385 585 393 q 493 374 525 378 q 428 365 461 371 q 364 339 396 360 q 299 246 306 303 q 310 175 294 207 q 353 121 326 143 q 415 87 381 99 q 486 75 450 75 q 567 93 531 75 q 604 143 608 115 q 624 181 600 169 q 650 188 638 188 q 693 157 681 188 m 238 360 q 286 408 249 379 q 374 467 324 438 q 418 494 401 483 q 444 511 435 504 q 459 524 454 518 q 469 536 464 529 q 481 574 482 553 q 470 615 481 596 q 442 646 460 633 q 399 658 424 658 q 339 640 365 658 q 292 592 313 621 q 259 532 272 564 q 239 472 246 500 q 231 432 235 454 q 226 391 228 410 q 224 360 224 372 q 229 347 225 347 l 232 351 q 238 360 235 354 z "},"":{"ha":731,"x_min":32,"x_max":701,"o":"m 333 878 q 347 896 333 879 q 378 932 361 913 q 413 969 396 951 q 433 992 429 988 q 486 1008 460 1014 q 495 1003 492 1006 q 504 999 499 1001 l 511 993 l 504 985 q 485 961 500 979 q 453 924 469 943 q 422 890 436 906 q 406 874 408 875 q 376 863 393 863 q 367 863 374 863 q 352 866 360 864 q 339 871 344 868 q 333 878 333 874 m 693 157 q 700 114 701 139 q 689 74 699 89 q 638 24 672 44 q 561 -9 603 4 q 478 -28 519 -22 q 406 -35 436 -35 q 266 -11 332 -35 q 149 58 200 13 q 67 173 99 104 q 32 331 36 242 q 33 368 32 351 q 36 401 33 385 q 44 437 39 418 q 60 482 50 456 q 115 578 78 533 q 199 656 151 622 q 303 708 247 689 q 414 726 358 726 q 531 701 475 726 q 631 618 588 676 q 653 565 649 594 q 652 508 657 536 q 636 456 647 481 q 610 418 625 432 q 555 385 585 393 q 493 374 525 378 q 428 365 461 371 q 364 339 396 360 q 299 246 306 303 q 310 175 294 207 q 353 121 326 143 q 415 87 381 99 q 486 75 450 75 q 567 93 531 75 q 604 143 608 115 q 624 181 600 169 q 650 188 638 188 q 693 157 681 188 m 238 360 q 286 408 249 379 q 374 467 324 438 q 418 494 401 483 q 444 511 435 504 q 459 524 454 518 q 469 536 464 529 q 481 574 482 553 q 470 615 481 596 q 442 646 460 633 q 399 658 424 658 q 339 640 365 658 q 292 592 313 621 q 259 532 272 564 q 239 472 246 500 q 231 432 235 454 q 226 391 228 410 q 224 360 224 372 q 229 347 225 347 l 232 351 q 238 360 235 354 z "},"":{"ha":731,"x_min":32,"x_max":701,"o":"m 342 856 q 336 866 336 858 q 340 882 336 874 q 356 903 343 886 q 383 942 368 921 q 413 980 399 963 q 429 1001 426 997 q 439 1009 436 1008 q 446 1007 442 1010 q 469 981 453 1001 q 501 938 485 961 q 531 895 518 915 q 543 868 543 875 q 533 854 543 856 q 506 854 514 851 q 486 865 494 857 q 460 900 478 874 q 447 919 453 911 q 439 928 440 928 q 433 927 436 929 q 424 914 431 925 q 372 857 389 863 q 357 855 368 856 q 342 856 346 854 m 693 157 q 700 114 701 139 q 689 74 699 89 q 638 24 672 44 q 561 -9 603 4 q 478 -28 519 -22 q 406 -35 436 -35 q 266 -11 332 -35 q 149 58 200 13 q 67 173 99 104 q 32 331 36 242 q 33 368 32 351 q 36 401 33 385 q 44 437 39 418 q 60 482 50 456 q 115 578 78 533 q 199 656 151 622 q 303 708 247 689 q 414 726 358 726 q 531 701 475 726 q 631 618 588 676 q 653 565 649 594 q 652 508 657 536 q 636 456 647 481 q 610 418 625 432 q 555 385 585 393 q 493 374 525 378 q 428 365 461 371 q 364 339 396 360 q 299 246 306 303 q 310 175 294 207 q 353 121 326 143 q 415 87 381 99 q 486 75 450 75 q 567 93 531 75 q 604 143 608 115 q 624 181 600 169 q 650 188 638 188 q 693 157 681 188 m 238 360 q 286 408 249 379 q 374 467 324 438 q 418 494 401 483 q 444 511 435 504 q 459 524 454 518 q 469 536 464 529 q 481 574 482 553 q 470 615 481 596 q 442 646 460 633 q 399 658 424 658 q 339 640 365 658 q 292 592 313 621 q 259 532 272 564 q 239 472 246 500 q 231 432 235 454 q 226 391 228 410 q 224 360 224 372 q 229 347 225 347 l 232 351 q 238 360 235 354 z "},"":{"ha":731,"x_min":32,"x_max":701,"o":"m 313 869 q 289 893 296 874 q 285 903 286 900 q 285 915 285 907 q 295 951 285 936 q 329 968 306 965 q 363 953 347 968 q 372 938 369 944 q 375 918 375 931 q 374 905 375 908 q 371 896 374 901 q 350 872 365 879 q 341 869 344 869 q 331 868 338 868 q 313 869 321 867 m 461 869 q 438 893 444 874 q 434 903 435 900 q 433 915 433 907 q 444 951 433 936 q 478 968 456 965 q 511 953 496 968 q 521 938 518 944 q 524 918 524 931 q 523 905 524 908 q 519 896 522 901 q 499 872 514 879 q 490 869 493 869 q 479 868 486 868 q 461 869 469 867 m 693 157 q 700 114 701 139 q 689 74 699 89 q 638 24 672 44 q 561 -9 603 4 q 478 -28 519 -22 q 406 -35 436 -35 q 266 -11 332 -35 q 149 58 200 13 q 67 173 99 104 q 32 331 36 242 q 33 368 32 351 q 36 401 33 385 q 44 437 39 418 q 60 482 50 456 q 115 578 78 533 q 199 656 151 622 q 303 708 247 689 q 414 726 358 726 q 531 701 475 726 q 631 618 588 676 q 653 565 649 594 q 652 508 657 536 q 636 456 647 481 q 610 418 625 432 q 555 385 585 393 q 493 374 525 378 q 428 365 461 371 q 364 339 396 360 q 299 246 306 303 q 310 175 294 207 q 353 121 326 143 q 415 87 381 99 q 486 75 450 75 q 567 93 531 75 q 604 143 608 115 q 624 181 600 169 q 650 188 638 188 q 693 157 681 188 m 238 360 q 286 408 249 379 q 374 467 324 438 q 418 494 401 483 q 444 511 435 504 q 459 524 454 518 q 469 536 464 529 q 481 574 482 553 q 470 615 481 596 q 442 646 460 633 q 399 658 424 658 q 339 640 365 658 q 292 592 313 621 q 259 532 272 564 q 239 472 246 500 q 231 432 235 454 q 226 391 228 410 q 224 360 224 372 q 229 347 225 347 l 232 351 q 238 360 235 354 z "},"":{"ha":363,"x_min":28,"x_max":318,"o":"m 190 874 q 174 890 189 875 q 143 924 160 906 q 111 961 126 943 q 92 985 96 979 l 85 993 l 93 999 q 110 1008 101 1006 q 163 992 136 1014 q 183 969 167 988 q 218 931 199 951 q 255 889 246 899 q 263 878 264 879 q 257 871 263 874 q 244 866 251 868 q 229 863 236 864 q 219 863 222 863 q 190 874 203 863 m 311 33 q 317 20 318 28 q 308 7 315 13 q 122 -3 289 -7 q 65 1 79 0 q 46 7 51 3 q 46 36 28 18 q 66 59 60 47 q 75 90 72 71 q 76 119 75 96 q 77 178 76 142 q 78 263 78 215 q 79 364 79 310 l 81 614 l 64 631 q 49 647 53 642 q 46 661 46 653 q 56 685 46 672 q 81 701 67 697 q 115 708 90 704 q 167 716 139 713 q 222 722 196 719 q 260 724 247 724 q 281 720 275 724 q 290 708 286 717 q 294 693 293 704 q 295 649 294 682 q 295 552 296 615 q 294 382 294 489 q 293 201 293 265 q 293 105 293 136 q 294 65 293 74 q 299 53 296 57 q 311 33 306 39 z "},"":{"ha":363,"x_min":28,"x_max":318,"o":"m 129 878 q 137 889 128 879 q 174 931 146 899 q 209 969 193 951 q 229 992 225 988 q 282 1008 256 1014 q 299 999 290 1006 l 307 993 l 300 985 q 281 961 296 979 q 249 924 265 943 q 218 890 232 906 q 201 874 204 875 q 172 863 189 863 q 163 863 169 863 q 148 866 156 864 q 135 871 140 868 q 129 878 129 874 m 311 33 q 317 20 318 28 q 308 7 315 13 q 122 -3 289 -7 q 65 1 79 0 q 46 7 51 3 q 46 36 28 18 q 66 59 60 47 q 75 90 72 71 q 76 119 75 96 q 77 178 76 142 q 78 263 78 215 q 79 364 79 310 l 81 614 l 64 631 q 49 647 53 642 q 46 661 46 653 q 56 685 46 672 q 81 701 67 697 q 115 708 90 704 q 167 716 139 713 q 222 722 196 719 q 260 724 247 724 q 281 720 275 724 q 290 708 286 717 q 294 693 293 704 q 295 649 294 682 q 295 552 296 615 q 294 382 294 489 q 293 201 293 265 q 293 105 293 136 q 294 65 293 74 q 299 53 296 57 q 311 33 306 39 z "}}}
